<svg width="375" height="812" viewBox="0 0 375 812" fill="none" xmlns="http://www.w3.org/2000/svg">
<g id="Mask Group">
<g id="Star Background">
<g id="undraw_counting_stars_rrnl 16">
<path id="Vector" d="M216.91 835.932C215.001 881.77 310.688 928.562 430.127 928.562C549.565 928.562 739.773 838.195 649.437 835.932C475.37 831.572 415.72 785.538 433.174 752.906C464.432 694.464 220.67 745.677 216.91 835.932Z" fill="#3F3D56"/>
<path id="Vector_2" d="M375.784 799.628L374.328 799.036L375.255 798.106L374.857 797.945L373.931 798.875L372.475 798.283L372.222 798.536L373.678 799.128L372.751 800.058L373.149 800.219L374.075 799.289L375.531 799.881L375.784 799.628Z" fill="#6C63FF"/>
<path id="Vector_3" d="M288.154 808.271L286.698 807.679L287.625 806.75L287.227 806.589L286.301 807.518L284.845 806.927L284.592 807.18L286.048 807.772L285.121 808.702L285.519 808.863L286.445 807.933L287.901 808.525L288.154 808.271Z" fill="#6C63FF"/>
<path id="Vector_4" d="M335.888 798.854C336.675 798.854 337.313 798.447 337.313 797.945C337.313 797.442 336.675 797.035 335.888 797.035C335.101 797.035 334.463 797.442 334.463 797.945C334.463 798.447 335.101 798.854 335.888 798.854Z" fill="#6C63FF"/>
<path id="Vector_5" d="M353.699 768.374C354.485 768.374 355.123 767.966 355.123 767.464C355.123 766.961 354.485 766.554 353.699 766.554C352.912 766.554 352.274 766.961 352.274 767.464C352.274 767.966 352.912 768.374 353.699 768.374Z" fill="white"/>
</g>
<g id="undraw_counting_stars_rrnl 8">
<path id="Vector_6" d="M245.91 423.932C244.001 469.77 339.688 516.562 459.127 516.562C578.565 516.562 768.773 426.195 678.437 423.932C504.37 419.572 444.72 373.538 462.174 340.906C493.432 282.464 249.67 333.677 245.91 423.932Z" fill="#3F3D56"/>
<path id="Vector_7" d="M337.815 446.769L336.359 446.177L337.286 445.248L336.888 445.086L335.962 446.016L334.506 445.425L334.253 445.678L335.709 446.27L334.782 447.2L335.18 447.361L336.106 446.431L337.562 447.023L337.815 446.769Z" fill="#6C63FF"/>
<path id="Vector_8" d="M347.077 473.611L345.62 473.019L346.547 472.089L346.15 471.928L345.224 472.858L343.767 472.266L343.515 472.519L344.971 473.111L344.044 474.041L344.441 474.202L345.368 473.273L346.824 473.864L347.077 473.611Z" fill="#6C63FF"/>
<path id="Vector_9" d="M317.154 396.271L315.698 395.679L316.625 394.75L316.227 394.589L315.301 395.518L313.845 394.927L313.592 395.18L315.048 395.772L314.121 396.702L314.519 396.863L315.445 395.933L316.901 396.525L317.154 396.271Z" fill="#6C63FF"/>
<path id="Vector_10" d="M365.6 423.704C366.78 423.704 367.737 423.093 367.737 422.339C367.737 421.586 366.78 420.975 365.6 420.975C364.42 420.975 363.463 421.586 363.463 422.339C363.463 423.093 364.42 423.704 365.6 423.704Z" fill="#6C63FF"/>
<path id="Vector_11" d="M282.245 423.704C283.425 423.704 284.382 423.093 284.382 422.339C284.382 421.586 283.425 420.975 282.245 420.975C281.064 420.975 280.107 421.586 280.107 422.339C280.107 423.093 281.064 423.704 282.245 423.704Z" fill="#6C63FF"/>
<path id="Vector_12" d="M334.253 418.245C335.04 418.245 335.678 417.838 335.678 417.335C335.678 416.833 335.04 416.425 334.253 416.425C333.466 416.425 332.828 416.833 332.828 417.335C332.828 417.838 333.466 418.245 334.253 418.245Z" fill="#FF6584"/>
<path id="Vector_13" d="M364.888 386.854C365.675 386.854 366.313 386.447 366.313 385.945C366.313 385.442 365.675 385.035 364.888 385.035C364.101 385.035 363.463 385.442 363.463 385.945C363.463 386.447 364.101 386.854 364.888 386.854Z" fill="#6C63FF"/>
<path id="Rectangle 1" d="M90 353H295V408H90V353Z" fill="#C4C4C4"/>
</g>
<g id="undraw_counting_stars_rrnl 15">
<path id="Vector_14" d="M251.91 628.932C250.001 674.77 345.688 721.562 465.127 721.562C584.565 721.562 774.773 631.195 684.437 628.932C510.37 624.572 450.72 578.538 468.174 545.906C499.432 487.464 255.67 538.677 251.91 628.932Z" fill="#3F3D56"/>
<path id="Vector_15" d="M343.815 651.769L342.359 651.177L343.286 650.248L342.888 650.086L341.962 651.016L340.506 650.425L340.253 650.678L341.709 651.27L340.782 652.2L341.18 652.361L342.106 651.431L343.562 652.023L343.815 651.769Z" fill="#6C63FF"/>
<path id="Vector_16" d="M353.077 678.611L351.62 678.019L352.547 677.089L352.15 676.928L351.224 677.858L349.767 677.266L349.515 677.519L350.971 678.111L350.044 679.041L350.441 679.202L351.368 678.273L352.824 678.864L353.077 678.611Z" fill="#6C63FF"/>
<path id="Vector_17" d="M323.154 601.271L321.698 600.679L322.625 599.75L322.227 599.589L321.301 600.518L319.845 599.927L319.592 600.18L321.048 600.772L320.121 601.702L320.519 601.863L321.445 600.933L322.901 601.525L323.154 601.271Z" fill="#6C63FF"/>
<path id="Vector_18" d="M371.6 628.704C372.78 628.704 373.737 628.093 373.737 627.339C373.737 626.586 372.78 625.975 371.6 625.975C370.42 625.975 369.463 626.586 369.463 627.339C369.463 628.093 370.42 628.704 371.6 628.704Z" fill="#6C63FF"/>
<path id="Vector_19" d="M288.245 628.704C289.425 628.704 290.382 628.093 290.382 627.339C290.382 626.586 289.425 625.975 288.245 625.975C287.064 625.975 286.107 626.586 286.107 627.339C286.107 628.093 287.064 628.704 288.245 628.704Z" fill="#6C63FF"/>
<path id="Vector_20" d="M340.253 623.245C341.04 623.245 341.678 622.838 341.678 622.335C341.678 621.833 341.04 621.425 340.253 621.425C339.466 621.425 338.828 621.833 338.828 622.335C338.828 622.838 339.466 623.245 340.253 623.245Z" fill="#FF6584"/>
<path id="Vector_21" d="M370.888 591.854C371.675 591.854 372.313 591.447 372.313 590.945C372.313 590.442 371.675 590.035 370.888 590.035C370.101 590.035 369.463 590.442 369.463 590.945C369.463 591.447 370.101 591.854 370.888 591.854Z" fill="#6C63FF"/>
</g>
<g id="undraw_counting_stars_rrnl 4">
<path id="Vector_22" d="M275.028 217.932C273.119 263.77 368.805 310.562 488.244 310.562C607.683 310.562 797.89 220.195 707.554 217.932C533.488 213.572 473.837 167.538 491.291 134.906C522.549 76.4639 278.787 127.677 275.028 217.932Z" fill="#3F3D56"/>
<path id="Vector_23" d="M373.815 240.769L372.359 240.177L373.286 239.248L372.888 239.086L371.962 240.016L370.506 239.425L370.253 239.678L371.709 240.27L370.782 241.2L371.18 241.361L372.106 240.431L373.562 241.023L373.815 240.769Z" fill="#6C63FF"/>
<path id="Vector_24" d="M353.154 190.271L351.698 189.679L352.625 188.75L352.227 188.589L351.301 189.518L349.845 188.927L349.592 189.18L351.048 189.772L350.121 190.702L350.519 190.863L351.445 189.933L352.901 190.525L353.154 190.271Z" fill="#6C63FF"/>
<path id="Vector_25" d="M318.245 217.704C319.425 217.704 320.382 217.093 320.382 216.339C320.382 215.586 319.425 214.975 318.245 214.975C317.064 214.975 316.107 215.586 316.107 216.339C316.107 217.093 317.064 217.704 318.245 217.704Z" fill="#6C63FF"/>
<path id="Vector_26" d="M370.253 212.245C371.04 212.245 371.678 211.838 371.678 211.335C371.678 210.833 371.04 210.425 370.253 210.425C369.466 210.425 368.828 210.833 368.828 211.335C368.828 211.838 369.466 212.245 370.253 212.245Z" fill="#FF6584"/>
</g>
<g id="undraw_counting_stars_rrnl 14">
<path id="Vector_27" d="M-156.09 753.932C-157.999 799.77 -62.3122 846.562 57.1266 846.562C176.565 846.562 366.773 756.195 276.437 753.932C102.37 749.572 42.7198 703.538 60.1735 670.906C91.4317 612.464 -152.33 663.677 -156.09 753.932Z" fill="#3F3D56"/>
<path id="Vector_28" d="M2.78409 717.628L1.32787 717.036L2.25474 716.106L1.85722 715.945L0.931063 716.875L-0.525155 716.283L-0.778076 716.536L0.678141 717.128L-0.24873 718.058L0.148795 718.219L1.07497 717.289L2.53117 717.881L2.78409 717.628Z" fill="#6C63FF"/>
<path id="Vector_29" d="M111.075 784.958L109.619 784.366L110.545 783.436L110.148 783.275L109.222 784.205L107.765 783.613L107.513 783.867L108.969 784.459L108.042 785.389L108.439 785.55L109.366 784.62L110.822 785.212L111.075 784.958Z" fill="#6C63FF"/>
<path id="Vector_30" d="M238.601 781.319L237.145 780.727L238.072 779.797L237.674 779.636L236.748 780.566L235.292 779.974L235.039 780.227L236.495 780.819L235.568 781.749L235.966 781.911L236.892 780.981L238.348 781.572L238.601 781.319Z" fill="#6C63FF"/>
<path id="Vector_31" d="M36.9812 736.498L34.9422 735.67L36.2395 734.368L35.6838 734.142L34.3865 735.444L32.3482 734.615L31.9941 734.971L34.0331 735.799L32.7358 737.101L33.2915 737.327L34.5888 736.025L36.6271 736.853L36.9812 736.498Z" fill="white"/>
<path id="Vector_32" d="M25.5821 703.661C26.7625 703.661 27.7195 703.05 27.7195 702.296C27.7195 701.543 26.7625 700.932 25.5821 700.932C24.4017 700.932 23.4448 701.543 23.4448 702.296C23.4448 703.05 24.4017 703.661 25.5821 703.661Z" fill="#6C63FF"/>
<path id="Vector_33" d="M5.63389 786.915C6.81429 786.915 7.77121 786.304 7.77121 785.55C7.77121 784.796 6.81429 784.185 5.63389 784.185C4.45349 784.185 3.49658 784.796 3.49658 785.55C3.49658 786.304 4.45349 786.915 5.63389 786.915Z" fill="#6C63FF"/>
<path id="Vector_34" d="M4.20906 757.799C4.996 757.799 5.63394 757.391 5.63394 756.889C5.63394 756.386 4.996 755.979 4.20906 755.979C3.42212 755.979 2.78418 756.386 2.78418 756.889C2.78418 757.391 3.42212 757.799 4.20906 757.799Z" fill="#6C63FF"/>
<path id="Vector_35" d="M150.259 797.833C151.046 797.833 151.684 797.426 151.684 796.923C151.684 796.421 151.046 796.013 150.259 796.013C149.472 796.013 148.834 796.421 148.834 796.923C148.834 797.426 149.472 797.833 150.259 797.833Z" fill="#FF6584"/>
<path id="Vector_36" d="M21.3076 674.545C22.0945 674.545 22.7324 674.138 22.7324 673.635C22.7324 673.133 22.0945 672.726 21.3076 672.726C20.5206 672.726 19.8827 673.133 19.8827 673.635C19.8827 674.138 20.5206 674.545 21.3076 674.545Z" fill="#FF6584"/>
<path id="Vector_37" d="M193.718 768.717C194.898 768.717 195.855 768.106 195.855 767.352C195.855 766.599 194.898 765.988 193.718 765.988C192.537 765.988 191.58 766.599 191.58 767.352C191.58 768.106 192.537 768.717 193.718 768.717Z" fill="#6C63FF"/>
<path id="Vector_38" d="M51.9424 773.722C53.1228 773.722 54.0797 773.11 54.0797 772.357C54.0797 771.603 53.1228 770.992 51.9424 770.992C50.762 770.992 49.8051 771.603 49.8051 772.357C49.8051 773.11 50.762 773.722 51.9424 773.722Z" fill="#6C63FF"/>
<path id="Vector_39" d="M15.608 809.207C19.5427 809.207 22.7324 807.17 22.7324 804.657C22.7324 802.145 19.5427 800.108 15.608 800.108C11.6733 800.108 8.48364 802.145 8.48364 804.657C8.48364 807.17 11.6733 809.207 15.608 809.207Z" fill="#6C63FF"/>
<path id="Vector_40" d="M101.813 756.434C102.994 756.434 103.95 755.823 103.95 755.069C103.95 754.315 102.994 753.704 101.813 753.704C100.633 753.704 99.6758 754.315 99.6758 755.069C99.6758 755.823 100.633 756.434 101.813 756.434Z" fill="white"/>
</g>
<g id="undraw_counting_stars_rrnl 7">
<path id="Vector_41" d="M-127.09 341.932C-128.999 387.77 -33.3122 434.562 86.1266 434.562C205.565 434.562 395.773 344.195 305.437 341.932C131.37 337.572 71.7198 291.538 89.1735 258.906C120.432 200.464 -123.33 251.677 -127.09 341.932Z" fill="#3F3D56"/>
<path id="Vector_42" d="M31.7841 305.628L30.3279 305.036L31.2547 304.106L30.8572 303.945L29.9311 304.875L28.4748 304.283L28.2219 304.536L29.6781 305.128L28.7513 306.058L29.1488 306.219L30.075 305.289L31.5312 305.881L31.7841 305.628Z" fill="#6C63FF"/>
<path id="Vector_43" d="M140.075 372.958L138.619 372.366L139.545 371.436L139.148 371.275L138.222 372.205L136.765 371.613L136.513 371.867L137.969 372.459L137.042 373.389L137.439 373.55L138.366 372.62L139.822 373.212L140.075 372.958Z" fill="#6C63FF"/>
<path id="Vector_44" d="M95.9036 408.443L94.4474 407.851L95.3743 406.921L94.9767 406.76L94.0506 407.69L92.5943 407.098L92.3414 407.352L93.7976 407.944L92.8708 408.874L93.2683 409.035L94.1945 408.105L95.6507 408.697L95.9036 408.443Z" fill="#6C63FF"/>
<path id="Vector_45" d="M267.601 369.319L266.145 368.727L267.072 367.797L266.674 367.636L265.748 368.566L264.292 367.974L264.039 368.227L265.495 368.819L264.568 369.749L264.966 369.911L265.892 368.981L267.348 369.572L267.601 369.319Z" fill="#6C63FF"/>
<path id="Vector_46" d="M65.9812 324.498L63.9422 323.67L65.2395 322.368L64.6838 322.142L63.3865 323.444L61.3482 322.615L60.9941 322.971L63.0331 323.799L61.7358 325.101L62.2915 325.327L63.5888 324.025L65.6271 324.853L65.9812 324.498Z" fill="white"/>
<path id="Vector_47" d="M54.5822 291.661C55.7626 291.661 56.7195 291.05 56.7195 290.296C56.7195 289.543 55.7626 288.932 54.5822 288.932C53.4018 288.932 52.4449 289.543 52.4449 290.296C52.4449 291.05 53.4018 291.661 54.5822 291.661Z" fill="#6C63FF"/>
<path id="Vector_48" d="M34.6339 374.915C35.8143 374.915 36.7712 374.304 36.7712 373.55C36.7712 372.796 35.8143 372.185 34.6339 372.185C33.4535 372.185 32.4966 372.796 32.4966 373.55C32.4966 374.304 33.4535 374.915 34.6339 374.915Z" fill="#6C63FF"/>
<path id="Vector_49" d="M33.2091 345.799C33.996 345.799 34.6339 345.391 34.6339 344.889C34.6339 344.386 33.996 343.979 33.2091 343.979C32.4221 343.979 31.7842 344.386 31.7842 344.889C31.7842 345.391 32.4221 345.799 33.2091 345.799Z" fill="#6C63FF"/>
<path id="Vector_50" d="M179.259 385.833C180.046 385.833 180.684 385.426 180.684 384.923C180.684 384.421 180.046 384.013 179.259 384.013C178.472 384.013 177.834 384.421 177.834 384.923C177.834 385.426 178.472 385.833 179.259 385.833Z" fill="#FF6584"/>
<path id="Vector_51" d="M50.3076 262.545C51.0945 262.545 51.7324 262.138 51.7324 261.635C51.7324 261.133 51.0945 260.726 50.3076 260.726C49.5206 260.726 48.8827 261.133 48.8827 261.635C48.8827 262.138 49.5206 262.545 50.3076 262.545Z" fill="#FF6584"/>
<path id="Vector_52" d="M9.69855 274.374C10.4855 274.374 11.1234 273.966 11.1234 273.464C11.1234 272.961 10.4855 272.554 9.69855 272.554C8.91162 272.554 8.27368 272.961 8.27368 273.464C8.27368 273.966 8.91162 274.374 9.69855 274.374Z" fill="white"/>
<path id="Vector_53" d="M222.718 356.717C223.898 356.717 224.855 356.106 224.855 355.352C224.855 354.599 223.898 353.988 222.718 353.988C221.537 353.988 220.58 354.599 220.58 355.352C220.58 356.106 221.537 356.717 222.718 356.717Z" fill="#6C63FF"/>
<path id="Vector_54" d="M80.9424 361.721C82.1228 361.721 83.0797 361.11 83.0797 360.357C83.0797 359.603 82.1228 358.992 80.9424 358.992C79.762 358.992 78.8051 359.603 78.8051 360.357C78.8051 361.11 79.762 361.721 80.9424 361.721Z" fill="#6C63FF"/>
<path id="Vector_55" d="M44.608 397.207C48.5427 397.207 51.7324 395.17 51.7324 392.657C51.7324 390.145 48.5427 388.108 44.608 388.108C40.6733 388.108 37.4836 390.145 37.4836 392.657C37.4836 395.17 40.6733 397.207 44.608 397.207Z" fill="#6C63FF"/>
<path id="Vector_56" d="M130.813 344.434C131.994 344.434 132.95 343.823 132.95 343.069C132.95 342.315 131.994 341.704 130.813 341.704C129.633 341.704 128.676 342.315 128.676 343.069C128.676 343.823 129.633 344.434 130.813 344.434Z" fill="white"/>
</g>
<g id="undraw_counting_stars_rrnl 13">
<path id="Vector_57" d="M-121.09 546.932C-122.999 592.77 -27.3122 639.562 92.1266 639.562C211.565 639.562 401.773 549.195 311.437 546.932C137.37 542.572 77.7198 496.538 95.1735 463.906C126.432 405.464 -117.33 456.677 -121.09 546.932Z" fill="#3F3D56"/>
<path id="Vector_58" d="M37.7841 510.628L36.3279 510.036L37.2547 509.106L36.8572 508.945L35.9311 509.875L34.4748 509.283L34.2219 509.536L35.6781 510.128L34.7513 511.058L35.1488 511.219L36.075 510.289L37.5312 510.881L37.7841 510.628Z" fill="#6C63FF"/>
<path id="Vector_59" d="M146.075 577.958L144.619 577.366L145.545 576.436L145.148 576.275L144.222 577.205L142.765 576.613L142.513 576.867L143.969 577.459L143.042 578.389L143.439 578.55L144.366 577.62L145.822 578.212L146.075 577.958Z" fill="#6C63FF"/>
<path id="Vector_60" d="M101.904 613.443L100.447 612.851L101.374 611.921L100.977 611.76L100.051 612.69L98.5943 612.098L98.3414 612.352L99.7976 612.944L98.8708 613.874L99.2683 614.035L100.194 613.105L101.651 613.697L101.904 613.443Z" fill="#6C63FF"/>
<path id="Vector_61" d="M273.601 574.319L272.145 573.727L273.072 572.797L272.674 572.636L271.748 573.566L270.292 572.974L270.039 573.227L271.495 573.819L270.568 574.749L270.966 574.911L271.892 573.981L273.348 574.572L273.601 574.319Z" fill="#6C63FF"/>
<path id="Vector_62" d="M71.9812 529.498L69.9422 528.67L71.2395 527.368L70.6838 527.142L69.3865 528.444L67.3482 527.615L66.9941 527.971L69.0331 528.799L67.7358 530.101L68.2915 530.327L69.5888 529.025L71.6271 529.853L71.9812 529.498Z" fill="white"/>
<path id="Vector_63" d="M-1.39992 546.704C-0.219512 546.704 0.737396 546.093 0.737396 545.339C0.737396 544.586 -0.219512 543.975 -1.39992 543.975C-2.58032 543.975 -3.53723 544.586 -3.53723 545.339C-3.53723 546.093 -2.58032 546.704 -1.39992 546.704Z" fill="#6C63FF"/>
<path id="Vector_64" d="M60.5822 496.661C61.7626 496.661 62.7195 496.05 62.7195 495.296C62.7195 494.543 61.7626 493.932 60.5822 493.932C59.4018 493.932 58.4449 494.543 58.4449 495.296C58.4449 496.05 59.4018 496.661 60.5822 496.661Z" fill="#6C63FF"/>
<path id="Vector_65" d="M40.6339 579.915C41.8143 579.915 42.7712 579.304 42.7712 578.55C42.7712 577.796 41.8143 577.185 40.6339 577.185C39.4535 577.185 38.4966 577.796 38.4966 578.55C38.4966 579.304 39.4535 579.915 40.6339 579.915Z" fill="#6C63FF"/>
<path id="Vector_66" d="M39.2091 550.799C39.996 550.799 40.6339 550.391 40.6339 549.889C40.6339 549.386 39.996 548.979 39.2091 548.979C38.4221 548.979 37.7842 549.386 37.7842 549.889C37.7842 550.391 38.4221 550.799 39.2091 550.799Z" fill="#6C63FF"/>
<path id="Vector_67" d="M185.259 590.833C186.046 590.833 186.684 590.426 186.684 589.923C186.684 589.421 186.046 589.013 185.259 589.013C184.472 589.013 183.834 589.421 183.834 589.923C183.834 590.426 184.472 590.833 185.259 590.833Z" fill="#FF6584"/>
<path id="Vector_68" d="M56.3076 467.545C57.0945 467.545 57.7324 467.138 57.7324 466.635C57.7324 466.133 57.0945 465.726 56.3076 465.726C55.5206 465.726 54.8827 466.133 54.8827 466.635C54.8827 467.138 55.5206 467.545 56.3076 467.545Z" fill="#FF6584"/>
<path id="Vector_69" d="M15.6985 479.374C16.4855 479.374 17.1234 478.966 17.1234 478.464C17.1234 477.961 16.4855 477.554 15.6985 477.554C14.9116 477.554 14.2737 477.961 14.2737 478.464C14.2737 478.966 14.9116 479.374 15.6985 479.374Z" fill="white"/>
<path id="Vector_70" d="M228.718 561.717C229.898 561.717 230.855 561.106 230.855 560.352C230.855 559.599 229.898 558.988 228.718 558.988C227.537 558.988 226.58 559.599 226.58 560.352C226.58 561.106 227.537 561.717 228.718 561.717Z" fill="#6C63FF"/>
<path id="Vector_71" d="M86.9424 566.721C88.1228 566.721 89.0797 566.11 89.0797 565.357C89.0797 564.603 88.1228 563.992 86.9424 563.992C85.762 563.992 84.8051 564.603 84.8051 565.357C84.8051 566.11 85.762 566.721 86.9424 566.721Z" fill="#6C63FF"/>
<path id="Vector_72" d="M50.608 602.207C54.5427 602.207 57.7324 600.17 57.7324 597.657C57.7324 595.145 54.5427 593.108 50.608 593.108C46.6733 593.108 43.4836 595.145 43.4836 597.657C43.4836 600.17 46.6733 602.207 50.608 602.207Z" fill="#6C63FF"/>
<path id="Vector_73" d="M136.813 549.434C137.994 549.434 138.95 548.823 138.95 548.069C138.95 547.315 137.994 546.704 136.813 546.704C135.633 546.704 134.676 547.315 134.676 548.069C134.676 548.823 135.633 549.434 136.813 549.434Z" fill="white"/>
</g>
<g id="undraw_counting_stars_rrnl 1">
<path id="Vector_74" d="M161.91 65.9318C160.001 111.77 255.688 158.562 375.127 158.562C494.565 158.562 684.773 68.1945 594.437 65.9318C420.37 61.5718 360.72 15.5382 378.174 -17.0942C409.432 -75.5361 165.67 -24.3229 161.91 65.9318Z" fill="#3F3D56"/>
<path id="Vector_75" d="M320.784 29.6275L319.328 29.0356L320.255 28.1058L319.857 27.9447L318.931 28.8746L317.475 28.2827L317.222 28.5361L318.678 29.128L317.751 30.0579L318.149 30.2194L319.075 29.2895L320.531 29.8809L320.784 29.6275Z" fill="#6C63FF"/>
<path id="Vector_76" d="M253.815 88.7693L252.359 88.1774L253.286 87.2475L252.888 87.0865L251.962 88.0164L250.506 87.4245L250.253 87.6779L251.709 88.2698L250.782 89.1997L251.18 89.3612L252.106 88.4313L253.562 89.0227L253.815 88.7693Z" fill="#6C63FF"/>
<path id="Vector_77" d="M263.077 115.611L261.62 115.019L262.547 114.089L262.15 113.928L261.224 114.858L259.767 114.266L259.515 114.519L260.971 115.111L260.044 116.041L260.441 116.202L261.368 115.273L262.824 115.864L263.077 115.611Z" fill="#6C63FF"/>
<path id="Vector_78" d="M233.154 38.2713L231.698 37.6794L232.625 36.7496L232.227 36.5885L231.301 37.5184L229.845 36.9265L229.592 37.1799L231.048 37.7718L230.121 38.7017L230.519 38.8632L231.445 37.9333L232.901 38.5247L233.154 38.2713Z" fill="#6C63FF"/>
<path id="Vector_79" d="M354.981 48.4978L352.942 47.6699L354.24 46.3678L353.684 46.1422L352.386 47.4438L350.348 46.6153L349.994 46.9706L352.033 47.7986L350.736 49.1006L351.291 49.3267L352.589 48.0247L354.627 48.8532L354.981 48.4978Z" fill="white"/>
<path id="Vector_80" d="M281.6 65.7042C282.78 65.7042 283.737 65.0932 283.737 64.3394C283.737 63.5857 282.78 62.9746 281.6 62.9746C280.42 62.9746 279.463 63.5857 279.463 64.3394C279.463 65.0932 280.42 65.7042 281.6 65.7042Z" fill="#6C63FF"/>
<path id="Vector_81" d="M198.245 65.7042C199.425 65.7042 200.382 65.0932 200.382 64.3394C200.382 63.5857 199.425 62.9746 198.245 62.9746C197.064 62.9746 196.107 63.5857 196.107 64.3394C196.107 65.0932 197.064 65.7042 198.245 65.7042Z" fill="#6C63FF"/>
<path id="Vector_82" d="M343.582 15.6612C344.763 15.6612 345.72 15.0502 345.72 14.2964C345.72 13.5427 344.763 12.9316 343.582 12.9316C342.402 12.9316 341.445 13.5427 341.445 14.2964C341.445 15.0502 342.402 15.6612 343.582 15.6612Z" fill="#6C63FF"/>
<path id="Vector_83" d="M323.634 98.9146C324.814 98.9146 325.771 98.3036 325.771 97.5498C325.771 96.7961 324.814 96.185 323.634 96.185C322.453 96.185 321.497 96.7961 321.497 97.5498C321.497 98.3036 322.453 98.9146 323.634 98.9146Z" fill="#6C63FF"/>
<path id="Vector_84" d="M322.209 69.7987C322.996 69.7987 323.634 69.3913 323.634 68.8888C323.634 68.3863 322.996 67.9789 322.209 67.9789C321.422 67.9789 320.784 68.3863 320.784 68.8888C320.784 69.3913 321.422 69.7987 322.209 69.7987Z" fill="#6C63FF"/>
<path id="Vector_85" d="M250.253 60.245C251.04 60.245 251.678 59.8377 251.678 59.3352C251.678 58.8326 251.04 58.4253 250.253 58.4253C249.466 58.4253 248.828 58.8326 248.828 59.3352C248.828 59.8377 249.466 60.245 250.253 60.245Z" fill="#FF6584"/>
<path id="Vector_86" d="M280.888 28.8544C281.675 28.8544 282.313 28.447 282.313 27.9445C282.313 27.442 281.675 27.0346 280.888 27.0346C280.101 27.0346 279.463 27.442 279.463 27.9445C279.463 28.447 280.101 28.8544 280.888 28.8544Z" fill="#6C63FF"/>
<path id="Vector_87" d="M369.942 85.7215C371.123 85.7215 372.08 85.1104 372.08 84.3567C372.08 83.6029 371.123 82.9919 369.942 82.9919C368.762 82.9919 367.805 83.6029 367.805 84.3567C367.805 85.1104 368.762 85.7215 369.942 85.7215Z" fill="#6C63FF"/>
<path id="Vector_88" d="M333.608 121.207C337.543 121.207 340.732 119.17 340.732 116.657C340.732 114.145 337.543 112.108 333.608 112.108C329.673 112.108 326.484 114.145 326.484 116.657C326.484 119.17 329.673 121.207 333.608 121.207Z" fill="#6C63FF"/>
</g>
<g id="undraw_counting_stars_rrnl 3" clip-path="url(#clip0)">
<path id="Vector_89" d="M-92.0896 134.932C-93.9988 180.77 1.68776 227.562 121.127 227.562C240.565 227.562 430.773 137.195 340.437 134.932C166.37 130.572 106.72 84.5382 124.174 51.9058C155.432 -6.53613 -88.3303 44.6771 -92.0896 134.932Z" fill="#3F3D56"/>
<path id="Vector_90" d="M66.7841 98.6275L65.3279 98.0356L66.2548 97.1058L65.8573 96.9447L64.9311 97.8746L63.4749 97.2827L63.222 97.5361L64.6782 98.128L63.7513 99.0579L64.1489 99.2194L65.075 98.2895L66.5312 98.8809L66.7841 98.6275Z" fill="#6C63FF"/>
<path id="Vector_91" d="M175.075 165.958L173.619 165.366L174.545 164.436L174.148 164.275L173.222 165.205L171.765 164.613L171.513 164.867L172.969 165.459L172.042 166.389L172.439 166.55L173.366 165.62L174.822 166.212L175.075 165.958Z" fill="#6C63FF"/>
<path id="Vector_92" d="M130.904 201.443L129.447 200.851L130.374 199.921L129.977 199.76L129.051 200.69L127.594 200.098L127.341 200.352L128.798 200.944L127.871 201.874L128.268 202.035L129.194 201.105L130.651 201.697L130.904 201.443Z" fill="#6C63FF"/>
<path id="Vector_93" d="M9.07669 184.611L7.62047 184.019L8.54734 183.089L8.14982 182.928L7.22367 183.858L5.76745 183.266L5.51453 183.519L6.97074 184.111L6.04387 185.041L6.4414 185.202L7.36757 184.273L8.82377 184.864L9.07669 184.611Z" fill="#6C63FF"/>
<path id="Vector_94" d="M302.601 162.319L301.145 161.727L302.072 160.797L301.674 160.636L300.748 161.566L299.292 160.974L299.039 161.227L300.495 161.819L299.568 162.749L299.966 162.911L300.892 161.981L302.348 162.572L302.601 162.319Z" fill="#6C63FF"/>
<path id="Vector_95" d="M100.981 117.498L98.9422 116.67L100.24 115.368L99.6838 115.142L98.3865 116.444L96.3482 115.615L95.9941 115.971L98.0331 116.799L96.7358 118.101L97.2915 118.327L98.5888 117.025L100.627 117.853L100.981 117.498Z" fill="white"/>
<path id="Vector_96" d="M27.6001 134.704C28.7805 134.704 29.7374 134.093 29.7374 133.339C29.7374 132.586 28.7805 131.975 27.6001 131.975C26.4197 131.975 25.4628 132.586 25.4628 133.339C25.4628 134.093 26.4197 134.704 27.6001 134.704Z" fill="#6C63FF"/>
<path id="Vector_97" d="M89.5822 84.6612C90.7626 84.6612 91.7195 84.0502 91.7195 83.2964C91.7195 82.5427 90.7626 81.9316 89.5822 81.9316C88.4018 81.9316 87.4449 82.5427 87.4449 83.2964C87.4449 84.0502 88.4018 84.6612 89.5822 84.6612Z" fill="#6C63FF"/>
<path id="Vector_98" d="M69.6339 167.915C70.8143 167.915 71.7712 167.304 71.7712 166.55C71.7712 165.796 70.8143 165.185 69.6339 165.185C68.4535 165.185 67.4966 165.796 67.4966 166.55C67.4966 167.304 68.4535 167.915 69.6339 167.915Z" fill="#6C63FF"/>
<path id="Vector_99" d="M68.2091 138.799C68.996 138.799 69.6339 138.391 69.6339 137.889C69.6339 137.386 68.996 136.979 68.2091 136.979C67.4221 136.979 66.7842 137.386 66.7842 137.889C66.7842 138.391 67.4221 138.799 68.2091 138.799Z" fill="#6C63FF"/>
<path id="Vector_100" d="M214.259 178.833C215.046 178.833 215.684 178.426 215.684 177.923C215.684 177.421 215.046 177.013 214.259 177.013C213.472 177.013 212.834 177.421 212.834 177.923C212.834 178.426 213.472 178.833 214.259 178.833Z" fill="#FF6584"/>
<path id="Vector_101" d="M85.3076 55.5453C86.0945 55.5453 86.7324 55.1379 86.7324 54.6354C86.7324 54.1329 86.0945 53.7255 85.3076 53.7255C84.5206 53.7255 83.8827 54.1329 83.8827 54.6354C83.8827 55.1379 84.5206 55.5453 85.3076 55.5453Z" fill="#FF6584"/>
<path id="Vector_102" d="M26.8876 97.8544C27.6746 97.8544 28.3125 97.447 28.3125 96.9445C28.3125 96.442 27.6746 96.0346 26.8876 96.0346C26.1007 96.0346 25.4628 96.442 25.4628 96.9445C25.4628 97.447 26.1007 97.8544 26.8876 97.8544Z" fill="#6C63FF"/>
<path id="Vector_103" d="M44.6985 67.3736C45.4855 67.3736 46.1234 66.9663 46.1234 66.4638C46.1234 65.9612 45.4855 65.5539 44.6985 65.5539C43.9116 65.5539 43.2737 65.9612 43.2737 66.4638C43.2737 66.9663 43.9116 67.3736 44.6985 67.3736Z" fill="white"/>
<path id="Vector_104" d="M257.718 149.717C258.898 149.717 259.855 149.106 259.855 148.352C259.855 147.599 258.898 146.988 257.718 146.988C256.537 146.988 255.58 147.599 255.58 148.352C255.58 149.106 256.537 149.717 257.718 149.717Z" fill="#6C63FF"/>
<path id="Vector_105" d="M115.942 154.721C117.123 154.721 118.08 154.11 118.08 153.357C118.08 152.603 117.123 151.992 115.942 151.992C114.762 151.992 113.805 152.603 113.805 153.357C113.805 154.11 114.762 154.721 115.942 154.721Z" fill="#6C63FF"/>
<path id="Vector_106" d="M79.608 190.207C83.5427 190.207 86.7324 188.17 86.7324 185.657C86.7324 183.145 83.5427 181.108 79.608 181.108C75.6733 181.108 72.4836 183.145 72.4836 185.657C72.4836 188.17 75.6733 190.207 79.608 190.207Z" fill="#6C63FF"/>
</g>
<g id="undraw_counting_stars_rrnl 6">
<path id="Vector_107" d="M-62.0896 236.932C-63.9988 282.77 31.6878 329.562 151.127 329.562C270.565 329.562 460.773 239.195 370.437 236.932C196.37 232.572 136.72 186.538 154.174 153.906C185.432 95.4639 -58.3303 146.677 -62.0896 236.932Z" fill="#3F3D56"/>
<path id="Vector_108" d="M96.7841 200.628L95.3279 200.036L96.2548 199.106L95.8573 198.945L94.9311 199.875L93.4749 199.283L93.222 199.536L94.6782 200.128L93.7513 201.058L94.1489 201.219L95.075 200.289L96.5312 200.881L96.7841 200.628Z" fill="#6C63FF"/>
<path id="Vector_109" d="M205.075 267.958L203.619 267.366L204.545 266.436L204.148 266.275L203.222 267.205L201.765 266.613L201.513 266.867L202.969 267.459L202.042 268.389L202.439 268.55L203.366 267.62L204.822 268.212L205.075 267.958Z" fill="#6C63FF"/>
<path id="Vector_110" d="M29.815 259.769L28.3588 259.177L29.2857 258.248L28.8881 258.086L27.962 259.016L26.5057 258.425L26.2528 258.678L27.709 259.27L26.7822 260.2L27.1797 260.361L28.1059 259.431L29.5621 260.023L29.815 259.769Z" fill="#6C63FF"/>
<path id="Vector_111" d="M160.904 303.443L159.447 302.851L160.374 301.921L159.977 301.76L159.051 302.69L157.594 302.098L157.341 302.352L158.798 302.944L157.871 303.874L158.268 304.035L159.194 303.105L160.651 303.697L160.904 303.443Z" fill="#6C63FF"/>
<path id="Vector_112" d="M39.0767 286.611L37.6205 286.019L38.5473 285.089L38.1498 284.928L37.2237 285.858L35.7674 285.266L35.5145 285.519L36.9707 286.111L36.0439 287.041L36.4414 287.202L37.3676 286.273L38.8238 286.864L39.0767 286.611Z" fill="#6C63FF"/>
<path id="Vector_113" d="M332.601 264.319L331.145 263.727L332.072 262.797L331.674 262.636L330.748 263.566L329.292 262.974L329.039 263.227L330.495 263.819L329.568 264.749L329.966 264.911L330.892 263.981L332.348 264.572L332.601 264.319Z" fill="#6C63FF"/>
<path id="Vector_114" d="M9.15424 209.271L7.69801 208.679L8.62489 207.75L8.22736 207.589L7.30119 208.518L5.84496 207.927L5.59204 208.18L7.04827 208.772L6.12139 209.702L6.51892 209.863L7.4451 208.933L8.90131 209.525L9.15424 209.271Z" fill="#6C63FF"/>
<path id="Vector_115" d="M130.981 219.498L128.942 218.67L130.24 217.368L129.684 217.142L128.386 218.444L126.348 217.615L125.994 217.971L128.033 218.799L126.736 220.101L127.291 220.327L128.589 219.025L130.627 219.853L130.981 219.498Z" fill="white"/>
<path id="Vector_116" d="M57.6001 236.704C58.7805 236.704 59.7374 236.093 59.7374 235.339C59.7374 234.586 58.7805 233.975 57.6001 233.975C56.4197 233.975 55.4628 234.586 55.4628 235.339C55.4628 236.093 56.4197 236.704 57.6001 236.704Z" fill="#6C63FF"/>
<path id="Vector_117" d="M119.582 186.661C120.763 186.661 121.72 186.05 121.72 185.296C121.72 184.543 120.763 183.932 119.582 183.932C118.402 183.932 117.445 184.543 117.445 185.296C117.445 186.05 118.402 186.661 119.582 186.661Z" fill="#6C63FF"/>
<path id="Vector_118" d="M99.6339 269.915C100.814 269.915 101.771 269.304 101.771 268.55C101.771 267.796 100.814 267.185 99.6339 267.185C98.4535 267.185 97.4966 267.796 97.4966 268.55C97.4966 269.304 98.4535 269.915 99.6339 269.915Z" fill="#6C63FF"/>
<path id="Vector_119" d="M98.2091 240.799C98.996 240.799 99.6339 240.391 99.6339 239.889C99.6339 239.386 98.996 238.979 98.2091 238.979C97.4221 238.979 96.7842 239.386 96.7842 239.889C96.7842 240.391 97.4221 240.799 98.2091 240.799Z" fill="#6C63FF"/>
<path id="Vector_120" d="M244.259 280.833C245.046 280.833 245.684 280.426 245.684 279.923C245.684 279.421 245.046 279.013 244.259 279.013C243.472 279.013 242.834 279.421 242.834 279.923C242.834 280.426 243.472 280.833 244.259 280.833Z" fill="#FF6584"/>
<path id="Vector_121" d="M26.2528 231.245C27.0397 231.245 27.6776 230.838 27.6776 230.335C27.6776 229.833 27.0397 229.425 26.2528 229.425C25.4658 229.425 24.8279 229.833 24.8279 230.335C24.8279 230.838 25.4658 231.245 26.2528 231.245Z" fill="#FF6584"/>
<path id="Vector_122" d="M115.308 157.545C116.094 157.545 116.732 157.138 116.732 156.635C116.732 156.133 116.094 155.726 115.308 155.726C114.521 155.726 113.883 156.133 113.883 156.635C113.883 157.138 114.521 157.545 115.308 157.545Z" fill="#FF6584"/>
<path id="Vector_123" d="M56.8876 199.854C57.6746 199.854 58.3125 199.447 58.3125 198.945C58.3125 198.442 57.6746 198.035 56.8876 198.035C56.1007 198.035 55.4628 198.442 55.4628 198.945C55.4628 199.447 56.1007 199.854 56.8876 199.854Z" fill="#6C63FF"/>
<path id="Vector_124" d="M74.6985 169.374C75.4855 169.374 76.1234 168.966 76.1234 168.464C76.1234 167.961 75.4855 167.554 74.6985 167.554C73.9116 167.554 73.2737 167.961 73.2737 168.464C73.2737 168.966 73.9116 169.374 74.6985 169.374Z" fill="white"/>
<path id="Vector_125" d="M287.718 251.717C288.898 251.717 289.855 251.106 289.855 250.352C289.855 249.599 288.898 248.988 287.718 248.988C286.537 248.988 285.58 249.599 285.58 250.352C285.58 251.106 286.537 251.717 287.718 251.717Z" fill="#6C63FF"/>
<path id="Vector_126" d="M145.942 256.721C147.123 256.721 148.08 256.11 148.08 255.357C148.08 254.603 147.123 253.992 145.942 253.992C144.762 253.992 143.805 254.603 143.805 255.357C143.805 256.11 144.762 256.721 145.942 256.721Z" fill="#6C63FF"/>
<path id="Vector_127" d="M109.608 292.207C113.543 292.207 116.732 290.17 116.732 287.657C116.732 285.145 113.543 283.108 109.608 283.108C105.673 283.108 102.484 285.145 102.484 287.657C102.484 290.17 105.673 292.207 109.608 292.207Z" fill="#6C63FF"/>
<path id="Vector_128" d="M195.813 239.434C196.994 239.434 197.95 238.823 197.95 238.069C197.95 237.315 196.994 236.704 195.813 236.704C194.633 236.704 193.676 237.315 193.676 238.069C193.676 238.823 194.633 239.434 195.813 239.434Z" fill="white"/>
</g>
<g id="undraw_counting_stars_rrnl 11">
<path id="Vector_129" d="M-56.0896 441.932C-57.9988 487.77 37.6878 534.562 157.127 534.562C276.565 534.562 466.773 444.195 376.437 441.932C202.37 437.572 142.72 391.538 160.174 358.906C191.432 300.464 -52.3303 351.677 -56.0896 441.932Z" fill="#3F3D56"/>
<path id="Vector_130" d="M102.784 405.628L101.328 405.036L102.255 404.106L101.857 403.945L100.931 404.875L99.4749 404.283L99.222 404.536L100.678 405.128L99.7513 406.058L100.149 406.219L101.075 405.289L102.531 405.881L102.784 405.628Z" fill="#6C63FF"/>
<path id="Vector_131" d="M211.075 472.958L209.619 472.366L210.545 471.436L210.148 471.275L209.222 472.205L207.765 471.613L207.513 471.867L208.969 472.459L208.042 473.389L208.439 473.55L209.366 472.62L210.822 473.212L211.075 472.958Z" fill="#6C63FF"/>
<path id="Vector_132" d="M35.815 464.769L34.3588 464.177L35.2857 463.248L34.8881 463.086L33.962 464.016L32.5057 463.425L32.2528 463.678L33.709 464.27L32.7822 465.2L33.1797 465.361L34.1059 464.431L35.5621 465.023L35.815 464.769Z" fill="#6C63FF"/>
<path id="Vector_133" d="M166.904 508.443L165.447 507.851L166.374 506.921L165.977 506.76L165.051 507.69L163.594 507.098L163.341 507.352L164.798 507.944L163.871 508.874L164.268 509.035L165.194 508.105L166.651 508.697L166.904 508.443Z" fill="#6C63FF"/>
<path id="Vector_134" d="M45.0767 491.611L43.6205 491.019L44.5473 490.089L44.1498 489.928L43.2237 490.858L41.7674 490.266L41.5145 490.519L42.9707 491.111L42.0439 492.041L42.4414 492.202L43.3676 491.273L44.8238 491.864L45.0767 491.611Z" fill="#6C63FF"/>
<path id="Vector_135" d="M338.601 469.319L337.145 468.727L338.072 467.797L337.674 467.636L336.748 468.566L335.292 467.974L335.039 468.227L336.495 468.819L335.568 469.749L335.966 469.911L336.892 468.981L338.348 469.572L338.601 469.319Z" fill="#6C63FF"/>
<path id="Vector_136" d="M15.1542 414.271L13.698 413.679L14.6249 412.75L14.2274 412.589L13.3012 413.518L11.845 412.927L11.592 413.18L13.0483 413.772L12.1214 414.702L12.5189 414.863L13.4451 413.933L14.9013 414.525L15.1542 414.271Z" fill="#6C63FF"/>
<path id="Vector_137" d="M136.981 424.498L134.942 423.67L136.24 422.368L135.684 422.142L134.386 423.444L132.348 422.615L131.994 422.971L134.033 423.799L132.736 425.101L133.291 425.327L134.589 424.025L136.627 424.853L136.981 424.498Z" fill="white"/>
<path id="Vector_138" d="M63.6001 441.704C64.7805 441.704 65.7374 441.093 65.7374 440.339C65.7374 439.586 64.7805 438.975 63.6001 438.975C62.4197 438.975 61.4628 439.586 61.4628 440.339C61.4628 441.093 62.4197 441.704 63.6001 441.704Z" fill="#6C63FF"/>
<path id="Vector_139" d="M125.582 391.661C126.763 391.661 127.72 391.05 127.72 390.296C127.72 389.543 126.763 388.932 125.582 388.932C124.402 388.932 123.445 389.543 123.445 390.296C123.445 391.05 124.402 391.661 125.582 391.661Z" fill="#6C63FF"/>
<path id="Vector_140" d="M105.634 474.915C106.814 474.915 107.771 474.304 107.771 473.55C107.771 472.796 106.814 472.185 105.634 472.185C104.453 472.185 103.497 472.796 103.497 473.55C103.497 474.304 104.453 474.915 105.634 474.915Z" fill="#6C63FF"/>
<path id="Vector_141" d="M104.209 445.799C104.996 445.799 105.634 445.391 105.634 444.889C105.634 444.386 104.996 443.979 104.209 443.979C103.422 443.979 102.784 444.386 102.784 444.889C102.784 445.391 103.422 445.799 104.209 445.799Z" fill="#6C63FF"/>
<path id="Vector_142" d="M250.259 485.833C251.046 485.833 251.684 485.426 251.684 484.923C251.684 484.421 251.046 484.013 250.259 484.013C249.472 484.013 248.834 484.421 248.834 484.923C248.834 485.426 249.472 485.833 250.259 485.833Z" fill="#FF6584"/>
<path id="Vector_143" d="M32.2528 436.245C33.0397 436.245 33.6776 435.838 33.6776 435.335C33.6776 434.833 33.0397 434.425 32.2528 434.425C31.4658 434.425 30.8279 434.833 30.8279 435.335C30.8279 435.838 31.4658 436.245 32.2528 436.245Z" fill="#FF6584"/>
<path id="Vector_144" d="M121.308 362.545C122.094 362.545 122.732 362.138 122.732 361.635C122.732 361.133 122.094 360.726 121.308 360.726C120.521 360.726 119.883 361.133 119.883 361.635C119.883 362.138 120.521 362.545 121.308 362.545Z" fill="#FF6584"/>
<path id="Vector_145" d="M62.8876 404.854C63.6746 404.854 64.3125 404.447 64.3125 403.945C64.3125 403.442 63.6746 403.035 62.8876 403.035C62.1007 403.035 61.4628 403.442 61.4628 403.945C61.4628 404.447 62.1007 404.854 62.8876 404.854Z" fill="#6C63FF"/>
<path id="Vector_146" d="M80.6985 374.374C81.4855 374.374 82.1234 373.966 82.1234 373.464C82.1234 372.961 81.4855 372.554 80.6985 372.554C79.9116 372.554 79.2737 372.961 79.2737 373.464C79.2737 373.966 79.9116 374.374 80.6985 374.374Z" fill="white"/>
<path id="Vector_147" d="M293.718 456.717C294.898 456.717 295.855 456.106 295.855 455.352C295.855 454.599 294.898 453.988 293.718 453.988C292.537 453.988 291.58 454.599 291.58 455.352C291.58 456.106 292.537 456.717 293.718 456.717Z" fill="#6C63FF"/>
<path id="Vector_148" d="M151.942 461.721C153.123 461.721 154.08 461.11 154.08 460.357C154.08 459.603 153.123 458.992 151.942 458.992C150.762 458.992 149.805 459.603 149.805 460.357C149.805 461.11 150.762 461.721 151.942 461.721Z" fill="#6C63FF"/>
<path id="Vector_149" d="M115.608 497.207C119.543 497.207 122.732 495.17 122.732 492.657C122.732 490.145 119.543 488.108 115.608 488.108C111.673 488.108 108.484 490.145 108.484 492.657C108.484 495.17 111.673 497.207 115.608 497.207Z" fill="#6C63FF"/>
<path id="Vector_150" d="M201.813 444.434C202.994 444.434 203.95 443.823 203.95 443.069C203.95 442.315 202.994 441.704 201.813 441.704C200.633 441.704 199.676 442.315 199.676 443.069C199.676 443.823 200.633 444.434 201.813 444.434Z" fill="white"/>
</g>
<g id="undraw_counting_stars_rrnl 2">
<path id="Vector_151" d="M-27.0896 29.9318C-28.9988 75.7695 66.6878 122.562 186.127 122.562C305.565 122.562 495.773 32.1945 405.437 29.9318C231.37 25.5718 171.72 -20.4618 189.174 -53.0942C220.432 -111.536 -23.3303 -60.3229 -27.0896 29.9318Z" fill="#3F3D56"/>
<path id="Vector_152" d="M240.075 60.9582L238.619 60.3663L239.545 59.4364L239.148 59.2753L238.222 60.2052L236.765 59.6134L236.513 59.8668L237.969 60.4586L237.042 61.3885L237.439 61.55L238.366 60.6201L239.822 61.2116L240.075 60.9582Z" fill="#6C63FF"/>
<path id="Vector_153" d="M64.815 52.7693L63.3588 52.1774L64.2857 51.2475L63.8881 51.0865L62.962 52.0164L61.5057 51.4245L61.2528 51.6779L62.709 52.2698L61.7822 53.1997L62.1797 53.3612L63.1059 52.4313L64.5621 53.0227L64.815 52.7693Z" fill="#6C63FF"/>
<path id="Vector_154" d="M195.904 96.4432L194.447 95.8514L195.374 94.9215L194.977 94.7604L194.051 95.6903L192.594 95.0984L192.341 95.3518L193.798 95.9437L192.871 96.8736L193.268 97.0351L194.194 96.1052L195.651 96.6966L195.904 96.4432Z" fill="#6C63FF"/>
<path id="Vector_155" d="M74.0767 79.6106L72.6205 79.0187L73.5473 78.0888L73.1498 77.9277L72.2237 78.8576L70.7674 78.2658L70.5145 78.5192L71.9707 79.111L71.0439 80.0409L71.4414 80.2024L72.3676 79.2725L73.8238 79.864L74.0767 79.6106Z" fill="#6C63FF"/>
<path id="Vector_156" d="M367.601 57.3187L366.145 56.7268L367.072 55.7969L366.674 55.6358L365.748 56.5657L364.292 55.9739L364.039 56.2273L365.495 56.8191L364.568 57.749L364.966 57.9105L365.892 56.9806L367.348 57.5721L367.601 57.3187Z" fill="#6C63FF"/>
<path id="Vector_157" d="M44.1542 2.27131L42.698 1.67944L43.6249 0.74955L43.2274 0.588501L42.3012 1.51839L40.845 0.926517L40.592 1.17992L42.0483 1.77179L41.1214 2.70168L41.5189 2.86318L42.4451 1.93329L43.9013 2.52471L44.1542 2.27131Z" fill="#6C63FF"/>
<path id="Vector_158" d="M165.981 12.4978L163.942 11.6699L165.24 10.3678L164.684 10.1422L163.386 11.4438L161.348 10.6153L160.994 10.9706L163.033 11.7986L161.736 13.1006L162.291 13.3267L163.589 12.0247L165.627 12.8532L165.981 12.4978Z" fill="white"/>
<path id="Vector_159" d="M92.6001 29.7042C93.7805 29.7042 94.7374 29.0932 94.7374 28.3394C94.7374 27.5857 93.7805 26.9746 92.6001 26.9746C91.4197 26.9746 90.4628 27.5857 90.4628 28.3394C90.4628 29.0932 91.4197 29.7042 92.6001 29.7042Z" fill="#6C63FF"/>
<path id="Vector_160" d="M9.24473 29.7042C10.4251 29.7042 11.382 29.0932 11.382 28.3394C11.382 27.5857 10.4251 26.9746 9.24473 26.9746C8.06433 26.9746 7.10742 27.5857 7.10742 28.3394C7.10742 29.0932 8.06433 29.7042 9.24473 29.7042Z" fill="#6C63FF"/>
<path id="Vector_161" d="M134.634 62.9146C135.814 62.9146 136.771 62.3036 136.771 61.5498C136.771 60.7961 135.814 60.185 134.634 60.185C133.453 60.185 132.497 60.7961 132.497 61.5498C132.497 62.3036 133.453 62.9146 134.634 62.9146Z" fill="#6C63FF"/>
<path id="Vector_162" d="M133.209 33.7987C133.996 33.7987 134.634 33.3913 134.634 32.8888C134.634 32.3863 133.996 31.9789 133.209 31.9789C132.422 31.9789 131.784 32.3863 131.784 32.8888C131.784 33.3913 132.422 33.7987 133.209 33.7987Z" fill="#6C63FF"/>
<path id="Vector_163" d="M279.259 73.8331C280.046 73.8331 280.684 73.4258 280.684 72.9233C280.684 72.4207 280.046 72.0134 279.259 72.0134C278.472 72.0134 277.834 72.4207 277.834 72.9233C277.834 73.4258 278.472 73.8331 279.259 73.8331Z" fill="#FF6584"/>
<path id="Vector_164" d="M61.2528 24.245C62.0397 24.245 62.6776 23.8377 62.6776 23.3352C62.6776 22.8326 62.0397 22.4253 61.2528 22.4253C60.4658 22.4253 59.8279 22.8326 59.8279 23.3352C59.8279 23.8377 60.4658 24.245 61.2528 24.245Z" fill="#FF6584"/>
<path id="Vector_165" d="M322.718 44.7172C323.898 44.7172 324.855 44.1061 324.855 43.3524C324.855 42.5986 323.898 41.9875 322.718 41.9875C321.537 41.9875 320.58 42.5986 320.58 43.3524C320.58 44.1061 321.537 44.7172 322.718 44.7172Z" fill="#6C63FF"/>
<path id="Vector_166" d="M180.942 49.7215C182.123 49.7215 183.08 49.1104 183.08 48.3567C183.08 47.6029 182.123 46.9919 180.942 46.9919C179.762 46.9919 178.805 47.6029 178.805 48.3567C178.805 49.1104 179.762 49.7215 180.942 49.7215Z" fill="#6C63FF"/>
<path id="Vector_167" d="M144.608 85.2066C148.543 85.2066 151.732 83.1697 151.732 80.6572C151.732 78.1446 148.543 76.1078 144.608 76.1078C140.673 76.1078 137.484 78.1446 137.484 80.6572C137.484 83.1697 140.673 85.2066 144.608 85.2066Z" fill="#6C63FF"/>
<path id="Vector_168" d="M230.813 32.4339C231.994 32.4339 232.95 31.8228 232.95 31.0691C232.95 30.3153 231.994 29.7043 230.813 29.7043C229.633 29.7043 228.676 30.3153 228.676 31.0691C228.676 31.8228 229.633 32.4339 230.813 32.4339Z" fill="white"/>
</g>
<g id="undraw_counting_stars_rrnl 10">
<path id="Vector_169" d="M97.9105 684.932C96.0012 730.77 191.688 777.562 311.127 777.562C430.565 777.562 620.773 687.195 530.437 684.932C356.37 680.572 296.72 634.538 314.174 601.906C345.432 543.464 101.67 594.677 97.9105 684.932Z" fill="#3F3D56"/>
<path id="Vector_170" d="M256.784 648.628L255.328 648.036L256.255 647.106L255.857 646.945L254.931 647.875L253.475 647.283L253.222 647.536L254.678 648.128L253.751 649.058L254.149 649.219L255.075 648.289L256.531 648.881L256.784 648.628Z" fill="#6C63FF"/>
<path id="Vector_171" d="M365.075 715.958L363.619 715.366L364.545 714.436L364.148 714.275L363.222 715.205L361.765 714.613L361.513 714.867L362.969 715.459L362.042 716.389L362.439 716.55L363.366 715.62L364.822 716.212L365.075 715.958Z" fill="#6C63FF"/>
<path id="Vector_172" d="M189.815 707.769L188.359 707.177L189.286 706.248L188.888 706.086L187.962 707.016L186.506 706.425L186.253 706.678L187.709 707.27L186.782 708.2L187.18 708.361L188.106 707.431L189.562 708.023L189.815 707.769Z" fill="#6C63FF"/>
<path id="Vector_173" d="M320.904 751.443L319.447 750.851L320.374 749.921L319.977 749.76L319.051 750.69L317.594 750.098L317.341 750.352L318.798 750.944L317.871 751.874L318.268 752.035L319.194 751.105L320.651 751.697L320.904 751.443Z" fill="#6C63FF"/>
<path id="Vector_174" d="M199.077 734.611L197.62 734.019L198.547 733.089L198.15 732.928L197.224 733.858L195.767 733.266L195.515 733.519L196.971 734.111L196.044 735.041L196.441 735.202L197.368 734.273L198.824 734.864L199.077 734.611Z" fill="#6C63FF"/>
<path id="Vector_175" d="M169.154 657.271L167.698 656.679L168.625 655.75L168.227 655.589L167.301 656.518L165.845 655.927L165.592 656.18L167.048 656.772L166.121 657.702L166.519 657.863L167.445 656.933L168.901 657.525L169.154 657.271Z" fill="#6C63FF"/>
<path id="Vector_176" d="M290.981 667.498L288.942 666.67L290.24 665.368L289.684 665.142L288.386 666.444L286.348 665.615L285.994 665.971L288.033 666.799L286.736 668.101L287.291 668.327L288.589 667.025L290.627 667.853L290.981 667.498Z" fill="white"/>
<path id="Vector_177" d="M217.6 684.704C218.78 684.704 219.737 684.093 219.737 683.339C219.737 682.586 218.78 681.975 217.6 681.975C216.42 681.975 215.463 682.586 215.463 683.339C215.463 684.093 216.42 684.704 217.6 684.704Z" fill="#6C63FF"/>
<path id="Vector_178" d="M134.245 684.704C135.425 684.704 136.382 684.093 136.382 683.339C136.382 682.586 135.425 681.975 134.245 681.975C133.064 681.975 132.107 682.586 132.107 683.339C132.107 684.093 133.064 684.704 134.245 684.704Z" fill="#6C63FF"/>
<path id="Vector_179" d="M279.582 634.661C280.763 634.661 281.72 634.05 281.72 633.296C281.72 632.543 280.763 631.932 279.582 631.932C278.402 631.932 277.445 632.543 277.445 633.296C277.445 634.05 278.402 634.661 279.582 634.661Z" fill="#6C63FF"/>
<path id="Vector_180" d="M259.634 717.915C260.814 717.915 261.771 717.304 261.771 716.55C261.771 715.796 260.814 715.185 259.634 715.185C258.453 715.185 257.497 715.796 257.497 716.55C257.497 717.304 258.453 717.915 259.634 717.915Z" fill="#6C63FF"/>
<path id="Vector_181" d="M258.209 688.799C258.996 688.799 259.634 688.391 259.634 687.889C259.634 687.386 258.996 686.979 258.209 686.979C257.422 686.979 256.784 687.386 256.784 687.889C256.784 688.391 257.422 688.799 258.209 688.799Z" fill="#6C63FF"/>
<path id="Vector_182" d="M186.253 679.245C187.04 679.245 187.678 678.838 187.678 678.335C187.678 677.833 187.04 677.425 186.253 677.425C185.466 677.425 184.828 677.833 184.828 678.335C184.828 678.838 185.466 679.245 186.253 679.245Z" fill="#FF6584"/>
<path id="Vector_183" d="M275.308 605.545C276.094 605.545 276.732 605.138 276.732 604.635C276.732 604.133 276.094 603.726 275.308 603.726C274.521 603.726 273.883 604.133 273.883 604.635C273.883 605.138 274.521 605.545 275.308 605.545Z" fill="#FF6584"/>
<path id="Vector_184" d="M216.888 647.854C217.675 647.854 218.313 647.447 218.313 646.945C218.313 646.442 217.675 646.035 216.888 646.035C216.101 646.035 215.463 646.442 215.463 646.945C215.463 647.447 216.101 647.854 216.888 647.854Z" fill="#6C63FF"/>
<path id="Vector_185" d="M234.699 617.374C235.485 617.374 236.123 616.966 236.123 616.464C236.123 615.961 235.485 615.554 234.699 615.554C233.912 615.554 233.274 615.961 233.274 616.464C233.274 616.966 233.912 617.374 234.699 617.374Z" fill="white"/>
<path id="Vector_186" d="M305.942 704.721C307.123 704.721 308.08 704.11 308.08 703.357C308.08 702.603 307.123 701.992 305.942 701.992C304.762 701.992 303.805 702.603 303.805 703.357C303.805 704.11 304.762 704.721 305.942 704.721Z" fill="#6C63FF"/>
<path id="Vector_187" d="M269.608 740.207C273.543 740.207 276.732 738.17 276.732 735.657C276.732 733.145 273.543 731.108 269.608 731.108C265.673 731.108 262.484 733.145 262.484 735.657C262.484 738.17 265.673 740.207 269.608 740.207Z" fill="#6C63FF"/>
<path id="Vector_188" d="M355.813 687.434C356.994 687.434 357.95 686.823 357.95 686.069C357.95 685.315 356.994 684.704 355.813 684.704C354.633 684.704 353.676 685.315 353.676 686.069C353.676 686.823 354.633 687.434 355.813 687.434Z" fill="white"/>
</g>
<g id="undraw_counting_stars_rrnl 5">
<path id="Vector_189" d="M126.91 272.932C125.001 318.77 220.688 365.562 340.127 365.562C459.565 365.562 649.773 275.195 559.437 272.932C385.37 268.572 325.72 222.538 343.174 189.906C374.432 131.464 130.67 182.677 126.91 272.932Z" fill="#3F3D56"/>
<path id="Vector_190" d="M285.784 236.628L284.328 236.036L285.255 235.106L284.857 234.945L283.931 235.875L282.475 235.283L282.222 235.536L283.678 236.128L282.751 237.058L283.149 237.219L284.075 236.289L285.531 236.881L285.784 236.628Z" fill="#6C63FF"/>
<path id="Vector_191" d="M218.815 295.769L217.359 295.177L218.286 294.248L217.888 294.086L216.962 295.016L215.506 294.425L215.253 294.678L216.709 295.27L215.782 296.2L216.18 296.361L217.106 295.431L218.562 296.023L218.815 295.769Z" fill="#6C63FF"/>
<path id="Vector_192" d="M349.904 339.443L348.447 338.851L349.374 337.921L348.977 337.76L348.051 338.69L346.594 338.098L346.341 338.352L347.798 338.944L346.871 339.874L347.268 340.035L348.194 339.105L349.651 339.697L349.904 339.443Z" fill="#6C63FF"/>
<path id="Vector_193" d="M228.077 322.611L226.62 322.019L227.547 321.089L227.15 320.928L226.224 321.858L224.767 321.266L224.515 321.519L225.971 322.111L225.044 323.041L225.441 323.202L226.368 322.273L227.824 322.864L228.077 322.611Z" fill="#6C63FF"/>
<path id="Vector_194" d="M198.154 245.271L196.698 244.679L197.625 243.75L197.227 243.589L196.301 244.518L194.845 243.927L194.592 244.18L196.048 244.772L195.121 245.702L195.519 245.863L196.445 244.933L197.901 245.525L198.154 245.271Z" fill="#6C63FF"/>
<path id="Vector_195" d="M319.981 255.498L317.942 254.67L319.24 253.368L318.684 253.142L317.386 254.444L315.348 253.615L314.994 253.971L317.033 254.799L315.736 256.101L316.291 256.327L317.589 255.025L319.627 255.853L319.981 255.498Z" fill="white"/>
<path id="Vector_196" d="M246.6 272.704C247.78 272.704 248.737 272.093 248.737 271.339C248.737 270.586 247.78 269.975 246.6 269.975C245.42 269.975 244.463 270.586 244.463 271.339C244.463 272.093 245.42 272.704 246.6 272.704Z" fill="#6C63FF"/>
<path id="Vector_197" d="M163.245 272.704C164.425 272.704 165.382 272.093 165.382 271.339C165.382 270.586 164.425 269.975 163.245 269.975C162.064 269.975 161.107 270.586 161.107 271.339C161.107 272.093 162.064 272.704 163.245 272.704Z" fill="#6C63FF"/>
<path id="Vector_198" d="M308.582 222.661C309.763 222.661 310.72 222.05 310.72 221.296C310.72 220.543 309.763 219.932 308.582 219.932C307.402 219.932 306.445 220.543 306.445 221.296C306.445 222.05 307.402 222.661 308.582 222.661Z" fill="#6C63FF"/>
<path id="Vector_199" d="M288.634 305.915C289.814 305.915 290.771 305.304 290.771 304.55C290.771 303.796 289.814 303.185 288.634 303.185C287.453 303.185 286.497 303.796 286.497 304.55C286.497 305.304 287.453 305.915 288.634 305.915Z" fill="#6C63FF"/>
<path id="Vector_200" d="M287.209 276.799C287.996 276.799 288.634 276.391 288.634 275.889C288.634 275.386 287.996 274.979 287.209 274.979C286.422 274.979 285.784 275.386 285.784 275.889C285.784 276.391 286.422 276.799 287.209 276.799Z" fill="#6C63FF"/>
<path id="Vector_201" d="M215.253 267.245C216.04 267.245 216.678 266.838 216.678 266.335C216.678 265.833 216.04 265.425 215.253 265.425C214.466 265.425 213.828 265.833 213.828 266.335C213.828 266.838 214.466 267.245 215.253 267.245Z" fill="#FF6584"/>
<path id="Vector_202" d="M304.308 193.545C305.094 193.545 305.732 193.138 305.732 192.635C305.732 192.133 305.094 191.726 304.308 191.726C303.521 191.726 302.883 192.133 302.883 192.635C302.883 193.138 303.521 193.545 304.308 193.545Z" fill="#FF6584"/>
<path id="Vector_203" d="M245.888 235.854C246.675 235.854 247.313 235.447 247.313 234.945C247.313 234.442 246.675 234.035 245.888 234.035C245.101 234.035 244.463 234.442 244.463 234.945C244.463 235.447 245.101 235.854 245.888 235.854Z" fill="#6C63FF"/>
<path id="Vector_204" d="M263.699 205.374C264.485 205.374 265.123 204.966 265.123 204.464C265.123 203.961 264.485 203.554 263.699 203.554C262.912 203.554 262.274 203.961 262.274 204.464C262.274 204.966 262.912 205.374 263.699 205.374Z" fill="white"/>
<path id="Vector_205" d="M334.942 292.721C336.123 292.721 337.08 292.11 337.08 291.357C337.08 290.603 336.123 289.992 334.942 289.992C333.762 289.992 332.805 290.603 332.805 291.357C332.805 292.11 333.762 292.721 334.942 292.721Z" fill="#6C63FF"/>
<path id="Vector_206" d="M298.608 328.207C302.543 328.207 305.732 326.17 305.732 323.657C305.732 321.145 302.543 319.108 298.608 319.108C294.673 319.108 291.484 321.145 291.484 323.657C291.484 326.17 294.673 328.207 298.608 328.207Z" fill="#6C63FF"/>
</g>
<g id="undraw_counting_stars_rrnl 9">
<path id="Vector_207" d="M132.91 477.932C131.001 523.77 226.688 570.562 346.127 570.562C465.565 570.562 655.773 480.195 565.437 477.932C391.37 473.572 331.72 427.538 349.174 394.906C380.432 336.464 136.67 387.677 132.91 477.932Z" fill="#3F3D56"/>
<path id="Vector_208" d="M291.784 441.628L290.328 441.036L291.255 440.106L290.857 439.945L289.931 440.875L288.475 440.283L288.222 440.536L289.678 441.128L288.751 442.058L289.149 442.219L290.075 441.289L291.531 441.881L291.784 441.628Z" fill="#6C63FF"/>
<path id="Vector_209" d="M224.815 500.769L223.359 500.177L224.286 499.248L223.888 499.086L222.962 500.016L221.506 499.425L221.253 499.678L222.709 500.27L221.782 501.2L222.18 501.361L223.106 500.431L224.562 501.023L224.815 500.769Z" fill="#6C63FF"/>
<path id="Vector_210" d="M355.904 544.443L354.447 543.851L355.374 542.921L354.977 542.76L354.051 543.69L352.594 543.098L352.341 543.352L353.798 543.944L352.871 544.874L353.268 545.035L354.194 544.105L355.651 544.697L355.904 544.443Z" fill="#6C63FF"/>
<path id="Vector_211" d="M234.077 527.611L232.62 527.019L233.547 526.089L233.15 525.928L232.224 526.858L230.767 526.266L230.515 526.519L231.971 527.111L231.044 528.041L231.441 528.202L232.368 527.273L233.824 527.864L234.077 527.611Z" fill="#6C63FF"/>
<path id="Vector_212" d="M204.154 450.271L202.698 449.679L203.625 448.75L203.227 448.589L202.301 449.518L200.845 448.927L200.592 449.18L202.048 449.772L201.121 450.702L201.519 450.863L202.445 449.933L203.901 450.525L204.154 450.271Z" fill="#6C63FF"/>
<path id="Vector_213" d="M325.981 460.498L323.942 459.67L325.24 458.368L324.684 458.142L323.386 459.444L321.348 458.615L320.994 458.971L323.033 459.799L321.736 461.101L322.291 461.327L323.589 460.025L325.627 460.853L325.981 460.498Z" fill="white"/>
<path id="Vector_214" d="M252.6 477.704C253.78 477.704 254.737 477.093 254.737 476.339C254.737 475.586 253.78 474.975 252.6 474.975C251.42 474.975 250.463 475.586 250.463 476.339C250.463 477.093 251.42 477.704 252.6 477.704Z" fill="#6C63FF"/>
<path id="Vector_215" d="M169.245 477.704C170.425 477.704 171.382 477.093 171.382 476.339C171.382 475.586 170.425 474.975 169.245 474.975C168.064 474.975 167.107 475.586 167.107 476.339C167.107 477.093 168.064 477.704 169.245 477.704Z" fill="#6C63FF"/>
<path id="Vector_216" d="M314.582 427.661C315.763 427.661 316.72 427.05 316.72 426.296C316.72 425.543 315.763 424.932 314.582 424.932C313.402 424.932 312.445 425.543 312.445 426.296C312.445 427.05 313.402 427.661 314.582 427.661Z" fill="#6C63FF"/>
<path id="Vector_217" d="M294.634 510.915C295.814 510.915 296.771 510.304 296.771 509.55C296.771 508.796 295.814 508.185 294.634 508.185C293.453 508.185 292.497 508.796 292.497 509.55C292.497 510.304 293.453 510.915 294.634 510.915Z" fill="#6C63FF"/>
<path id="Vector_218" d="M293.209 481.799C293.996 481.799 294.634 481.391 294.634 480.889C294.634 480.386 293.996 479.979 293.209 479.979C292.422 479.979 291.784 480.386 291.784 480.889C291.784 481.391 292.422 481.799 293.209 481.799Z" fill="#6C63FF"/>
<path id="Vector_219" d="M221.253 472.245C222.04 472.245 222.678 471.838 222.678 471.335C222.678 470.833 222.04 470.425 221.253 470.425C220.466 470.425 219.828 470.833 219.828 471.335C219.828 471.838 220.466 472.245 221.253 472.245Z" fill="#FF6584"/>
<path id="Vector_220" d="M310.308 398.545C311.094 398.545 311.732 398.138 311.732 397.635C311.732 397.133 311.094 396.726 310.308 396.726C309.521 396.726 308.883 397.133 308.883 397.635C308.883 398.138 309.521 398.545 310.308 398.545Z" fill="#FF6584"/>
<path id="Vector_221" d="M251.888 440.854C252.675 440.854 253.313 440.447 253.313 439.945C253.313 439.442 252.675 439.035 251.888 439.035C251.101 439.035 250.463 439.442 250.463 439.945C250.463 440.447 251.101 440.854 251.888 440.854Z" fill="#6C63FF"/>
<path id="Vector_222" d="M269.699 410.374C270.485 410.374 271.123 409.966 271.123 409.464C271.123 408.961 270.485 408.554 269.699 408.554C268.912 408.554 268.274 408.961 268.274 409.464C268.274 409.966 268.912 410.374 269.699 410.374Z" fill="white"/>
<path id="Vector_223" d="M340.942 497.721C342.123 497.721 343.08 497.11 343.08 496.357C343.08 495.603 342.123 494.992 340.942 494.992C339.762 494.992 338.805 495.603 338.805 496.357C338.805 497.11 339.762 497.721 340.942 497.721Z" fill="#6C63FF"/>
<path id="Vector_224" d="M304.608 533.207C308.543 533.207 311.732 531.17 311.732 528.657C311.732 526.145 308.543 524.108 304.608 524.108C300.673 524.108 297.484 526.145 297.484 528.657C297.484 531.17 300.673 533.207 304.608 533.207Z" fill="#6C63FF"/>
</g>
<g id="undraw_counting_stars_rrnl 17">
<path id="Vector_225" d="M-136.09 658.932C-137.999 704.77 -42.3122 751.562 77.1266 751.562C196.565 751.562 386.773 661.195 296.437 658.932C122.37 654.572 62.7198 608.538 80.1735 575.906C111.432 517.464 -132.33 568.677 -136.09 658.932Z" fill="#3F3D56"/>
<path id="Vector_226" d="M22.7841 622.628L21.3279 622.036L22.2547 621.106L21.8572 620.945L20.9311 621.875L19.4748 621.283L19.2219 621.536L20.6781 622.128L19.7513 623.058L20.1488 623.219L21.075 622.289L22.5312 622.881L22.7841 622.628Z" fill="#6C63FF"/>
<path id="Vector_227" d="M131.075 689.958L129.619 689.366L130.545 688.436L130.148 688.275L129.222 689.205L127.765 688.613L127.513 688.867L128.969 689.459L128.042 690.389L128.439 690.55L129.366 689.62L130.822 690.212L131.075 689.958Z" fill="#6C63FF"/>
<path id="Vector_228" d="M86.9036 725.443L85.4474 724.851L86.3743 723.921L85.9767 723.76L85.0506 724.69L83.5943 724.098L83.3414 724.352L84.7976 724.944L83.8708 725.874L84.2683 726.035L85.1945 725.105L86.6507 725.697L86.9036 725.443Z" fill="#6C63FF"/>
<path id="Vector_229" d="M258.601 686.319L257.145 685.727L258.072 684.797L257.674 684.636L256.748 685.566L255.292 684.974L255.039 685.227L256.495 685.819L255.568 686.749L255.966 686.911L256.892 685.981L258.348 686.572L258.601 686.319Z" fill="#6C63FF"/>
<path id="Vector_230" d="M56.9812 641.498L54.9422 640.67L56.2395 639.368L55.6838 639.142L54.3865 640.444L52.3482 639.615L51.9941 639.971L54.0331 640.799L52.7358 642.101L53.2915 642.327L54.5888 641.025L56.6271 641.853L56.9812 641.498Z" fill="white"/>
<path id="Vector_231" d="M45.5822 608.661C46.7626 608.661 47.7195 608.05 47.7195 607.296C47.7195 606.543 46.7626 605.932 45.5822 605.932C44.4018 605.932 43.4449 606.543 43.4449 607.296C43.4449 608.05 44.4018 608.661 45.5822 608.661Z" fill="#6C63FF"/>
<path id="Vector_232" d="M25.6339 691.915C26.8143 691.915 27.7712 691.304 27.7712 690.55C27.7712 689.796 26.8143 689.185 25.6339 689.185C24.4535 689.185 23.4966 689.796 23.4966 690.55C23.4966 691.304 24.4535 691.915 25.6339 691.915Z" fill="#6C63FF"/>
<path id="Vector_233" d="M24.2091 662.799C24.996 662.799 25.6339 662.391 25.6339 661.889C25.6339 661.386 24.996 660.979 24.2091 660.979C23.4221 660.979 22.7842 661.386 22.7842 661.889C22.7842 662.391 23.4221 662.799 24.2091 662.799Z" fill="#6C63FF"/>
<path id="Vector_234" d="M170.259 702.833C171.046 702.833 171.684 702.426 171.684 701.923C171.684 701.421 171.046 701.013 170.259 701.013C169.472 701.013 168.834 701.421 168.834 701.923C168.834 702.426 169.472 702.833 170.259 702.833Z" fill="#FF6584"/>
<path id="Vector_235" d="M41.3076 579.545C42.0945 579.545 42.7324 579.138 42.7324 578.635C42.7324 578.133 42.0945 577.726 41.3076 577.726C40.5206 577.726 39.8827 578.133 39.8827 578.635C39.8827 579.138 40.5206 579.545 41.3076 579.545Z" fill="#FF6584"/>
<path id="Vector_236" d="M0.698547 591.374C1.48548 591.374 2.12341 590.966 2.12341 590.464C2.12341 589.961 1.48548 589.554 0.698547 589.554C-0.0883843 589.554 -0.726318 589.961 -0.726318 590.464C-0.726318 590.966 -0.0883843 591.374 0.698547 591.374Z" fill="white"/>
<path id="Vector_237" d="M213.718 673.717C214.898 673.717 215.855 673.106 215.855 672.352C215.855 671.599 214.898 670.988 213.718 670.988C212.537 670.988 211.58 671.599 211.58 672.352C211.58 673.106 212.537 673.717 213.718 673.717Z" fill="#6C63FF"/>
<path id="Vector_238" d="M71.9424 678.721C73.1228 678.721 74.0797 678.11 74.0797 677.357C74.0797 676.603 73.1228 675.992 71.9424 675.992C70.762 675.992 69.8051 676.603 69.8051 677.357C69.8051 678.11 70.762 678.721 71.9424 678.721Z" fill="#6C63FF"/>
<path id="Vector_239" d="M35.608 714.207C39.5427 714.207 42.7324 712.17 42.7324 709.657C42.7324 707.145 39.5427 705.108 35.608 705.108C31.6733 705.108 28.4836 707.145 28.4836 709.657C28.4836 712.17 31.6733 714.207 35.608 714.207Z" fill="#6C63FF"/>
<path id="Vector_240" d="M121.813 661.434C122.994 661.434 123.95 660.823 123.95 660.069C123.95 659.315 122.994 658.704 121.813 658.704C120.633 658.704 119.676 659.315 119.676 660.069C119.676 660.823 120.633 661.434 121.813 661.434Z" fill="white"/>
</g>
</g>
<g id="Land with People">
<g id="undraw_air_support_wy1q 1" clip-path="url(#clip1)">
<g id="Group" opacity="0.5">
<path id="Vector_241" opacity="0.5" d="M364.013 803.851C361.96 803.851 314.745 822.882 260.006 772.769C230.279 745.56 201.162 742.662 180.756 745.698C168.216 747.561 156.766 753.238 147.696 761.46C140.401 768.1 122.747 777.147 81.3825 774.676C17.7478 770.871 0.983276 813.053 0.983276 813.053H376.983C376.983 813.053 366.052 803.851 364.013 803.851Z" fill="url(#paint0_linear)"/>
</g>
<path id="Vector_242" d="M1 814C1 814 17.7646 771.818 81.3993 775.623C122.764 778.106 140.422 769.047 147.695 762.411C156.748 754.173 168.194 748.513 180.722 746.649C201.127 743.614 230.249 746.511 259.972 773.721C314.711 823.833 361.926 804.803 363.978 804.803C366.031 804.803 376.979 814 376.979 814H1Z" fill="#086972"/>
<path id="Vector_243" opacity="0.02" d="M1 814C1 814 17.7646 771.818 81.3993 775.623C122.764 778.106 140.422 769.047 147.695 762.411C156.748 754.173 168.194 748.513 180.722 746.649C201.127 743.614 230.249 746.511 259.972 773.721C314.711 823.833 361.926 804.803 363.978 804.803C366.031 804.803 376.979 814 376.979 814H1Z" fill="#086972"/>
<path id="Vector_244" d="M96.3329 766.146H69.5487V784.592H96.3329V766.146Z" fill="black"/>
<path id="Vector_245" d="M67.2152 765.396L82.1828 751.52C82.2912 751.42 82.4199 751.34 82.5617 751.285C82.7034 751.231 82.8554 751.203 83.0089 751.203C83.1623 751.203 83.3143 751.231 83.4561 751.285C83.5978 751.34 83.7266 751.42 83.835 751.52L98.6833 765.285C98.8467 765.436 98.9581 765.629 99.0034 765.838C99.0487 766.048 99.026 766.266 98.938 766.463C98.8501 766.661 98.7009 766.83 98.5093 766.949C98.3176 767.068 98.0922 767.132 97.8615 767.132L68.054 767.243C67.8219 767.246 67.5941 767.184 67.3998 767.066C67.2056 766.948 67.0537 766.78 66.9636 766.581C66.8736 766.383 66.8494 766.164 66.8942 765.953C66.939 765.742 67.0508 765.548 67.2152 765.396V765.396Z" fill="black"/>
<path id="Vector_246" opacity="0.05" d="M67.2152 765.396L82.1828 751.52C82.2912 751.42 82.4199 751.34 82.5617 751.285C82.7034 751.231 82.8554 751.203 83.0089 751.203C83.1623 751.203 83.3143 751.231 83.4561 751.285C83.5978 751.34 83.7266 751.42 83.835 751.52L98.6833 765.285C98.8467 765.436 98.9581 765.629 99.0034 765.838C99.0487 766.048 99.026 766.266 98.938 766.463C98.8501 766.661 98.7009 766.83 98.5093 766.949C98.3176 767.068 98.0922 767.132 97.8615 767.132L68.054 767.243C67.8219 767.246 67.5941 767.184 67.3998 767.066C67.2056 766.948 67.0537 766.78 66.9636 766.581C66.8736 766.383 66.8494 766.164 66.8942 765.953C66.939 765.742 67.0508 765.548 67.2152 765.396Z" fill="black"/>
<path id="Vector_247" d="M82.5958 776.271H83.1324C83.9342 776.271 84.7032 776.566 85.2702 777.092C85.8372 777.617 86.1557 778.33 86.1557 779.073V784.6H79.5725V779.073C79.5725 778.33 79.891 777.617 80.458 777.092C81.025 776.566 81.794 776.271 82.5958 776.271V776.271Z" fill="white"/>
<path id="Vector_248" d="M83.0132 756.439C83.9233 756.439 84.6611 755.755 84.6611 754.911C84.6611 754.068 83.9233 753.384 83.0132 753.384C82.103 753.384 81.3652 754.068 81.3652 754.911C81.3652 755.755 82.103 756.439 83.0132 756.439Z" fill="white"/>
<path id="Vector_249" d="M77.9289 768.502H71.6437V772.939H77.9289V768.502Z" fill="white"/>
<path id="Vector_250" d="M75.0844 768.502H74.4839V772.939H75.0844V768.502Z" fill="black"/>
<path id="Vector_251" d="M94.6849 768.502H88.3998V772.939H94.6849V768.502Z" fill="white"/>
<path id="Vector_252" d="M91.8447 768.502H91.2443V772.939H91.8447V768.502Z" fill="black"/>
<g id="Group_2" opacity="0.2">
<path id="Vector_253" opacity="0.2" d="M193.683 746.615C193.63 746.6 193.683 746.615 193.683 746.615V746.615Z" fill="url(#paint1_linear)"/>
</g>
<g id="Group_3" opacity="0.2">
<path id="Vector_254" opacity="0.2" d="M194.302 758.077H194.353C194.363 758.073 194.372 758.067 194.379 758.059C194.386 758.05 194.39 758.04 194.391 758.03C194.394 758.014 194.394 757.998 194.391 757.982V757.943C194.348 757.848 194.25 757.722 194.195 757.611L194.169 757.552C194.167 757.526 194.167 757.499 194.169 757.473C194.169 757.473 194.169 757.449 194.169 757.438L195.089 754.639L195.111 754.572C195.111 754.572 196.282 755.038 196.584 755.969C196.758 756.421 196.767 756.913 196.609 757.37L196.588 757.418H196.609V757.931H197.887C197.976 757.892 197.857 757.789 197.738 757.686L197.708 757.659L197.631 757.584C197.61 757.561 197.591 757.536 197.576 757.509L197.555 757.461V757.434H197.516V757.39C197.676 756.704 197.64 755.992 197.411 755.323C197.183 754.654 196.77 754.053 196.213 753.577V753.577C196.521 752.725 196.521 751.804 196.213 750.952C196.333 750.873 198.653 749.318 198.636 747.305C198.643 747.197 198.643 747.089 198.636 746.981C198.636 746.981 198.836 746.827 198.636 746.547V746.523H198.615H198.475C198.383 746.531 198.294 746.558 198.215 746.602C198.215 746.602 198.083 746.997 198.215 747.099H198.181C198.181 747.099 196.805 749.863 195.886 750.257L195.822 750.222V749.863C195.823 749.847 195.823 749.831 195.822 749.815V749.815C195.822 749.801 195.822 749.786 195.822 749.772C195.925 749.722 196.018 749.657 196.098 749.578V749.578C196.129 749.548 196.157 749.517 196.184 749.484V749.484L196.218 749.436L196.252 749.381L196.277 749.33C196.296 749.292 196.311 749.254 196.324 749.215V749.168V749.109C196.324 749.109 196.324 749.077 196.324 749.061C196.324 749.041 196.324 749.022 196.324 748.998C196.324 748.885 196.302 748.773 196.26 748.666C196.26 748.638 196.248 748.609 196.222 748.58L196.201 748.536L196.171 748.489C196.194 748.463 196.221 748.44 196.252 748.422C196.311 748.391 196.376 748.372 196.443 748.366H196.609H196.644C196.668 748.357 196.691 748.346 196.712 748.331C196.744 748.306 196.782 748.287 196.822 748.276H196.571H196.533H196.499H196.46H196.426H196.392H196.358H196.324H196.29L196.222 748.248C196.257 748.261 196.295 748.269 196.333 748.272H196.477H196.503L196.529 748.252V748.22H196.482H196.452C196.394 748.228 196.335 748.228 196.277 748.22H196.154H196.098L196.047 748.201C196.117 748.224 196.195 748.221 196.262 748.192C196.33 748.163 196.382 748.11 196.407 748.045C196.433 747.98 196.429 747.908 196.398 747.846C196.366 747.783 196.309 747.735 196.239 747.711L196.286 747.684C196.335 747.645 196.365 747.589 196.371 747.53C196.377 747.505 196.377 747.479 196.371 747.455L196.341 747.478H196.316C196.235 747.531 196.137 747.556 196.039 747.549H196.005C195.918 747.529 195.834 747.5 195.754 747.463L195.681 747.439H195.66H195.6H195.566H195.519H195.294C194.976 747.449 194.672 747.567 194.442 747.77C194.389 747.819 194.34 747.872 194.297 747.928C194.266 747.639 194.324 747.348 194.463 747.087H194.438H194.361L194.323 747.155C194.343 747.059 194.382 746.968 194.438 746.886H194.412C194.469 746.828 194.5 746.752 194.5 746.673C194.5 746.594 194.469 746.518 194.412 746.46C194.212 746.18 193.842 746.397 193.842 746.397C193.812 746.488 193.792 746.582 193.782 746.677L193.722 746.653C193.654 746.866 192.896 749.314 194.148 750.877C194.146 750.91 194.146 750.943 194.148 750.976V753.613L193.297 757.228L193.13 757.911L194.327 758.093L194.302 758.077ZM194.514 749.531C194.582 749.583 194.656 749.627 194.736 749.661C194.733 749.686 194.733 749.711 194.736 749.736V750.08L194.663 750.111C194.608 749.941 194.561 749.744 194.51 749.531H194.514Z" fill="url(#paint2_linear)"/>
</g>
<path id="Vector_255" d="M198.649 747.289C198.649 747.289 198.87 747.115 198.649 746.807C198.428 746.499 198.019 746.74 198.019 746.74C198.019 746.74 197.87 747.186 198.019 747.289C198.168 747.392 198.649 747.289 198.649 747.289Z" fill="#CA7070"/>
<path id="&#60;Path&#62;" d="M196.358 758.799H197.38C197.376 758.844 197.383 758.89 197.4 758.932C197.417 758.974 197.444 759.012 197.478 759.044C197.614 759.19 197.904 759.368 197.763 759.439H196.358V758.799Z" fill="#00695C"/>
<path id="Vector_256" opacity="0.2" d="M197.401 759.044C197.367 759.012 197.34 758.974 197.323 758.932C197.307 758.89 197.3 758.844 197.303 758.799H197.376C197.372 758.844 197.379 758.89 197.396 758.932C197.413 758.974 197.439 759.012 197.474 759.044C197.61 759.19 197.9 759.368 197.759 759.439H197.687C197.814 759.368 197.538 759.19 197.401 759.044Z" fill="white"/>
<path id="&#60;Path&#62;_2" d="M192.713 758.606L193.684 758.764C193.658 758.869 193.673 758.98 193.727 759.076C193.833 759.277 194.067 759.538 193.927 759.593L192.543 759.384L192.713 758.606Z" fill="#00695C"/>
<path id="Vector_257" d="M193.182 746.87C193.182 746.87 192.087 750.072 193.922 751.844L194.455 751.449C194.455 751.449 193.369 747.956 193.978 747.135C192.905 746.823 193.182 746.87 193.182 746.87Z" fill="#00695C"/>
<path id="Vector_258" d="M193.94 747.151C193.94 747.151 194.161 746.977 193.94 746.669C193.718 746.361 193.309 746.602 193.309 746.602C193.309 746.602 193.16 747.048 193.309 747.151C193.458 747.253 193.94 747.151 193.94 747.151Z" fill="#CA7070"/>
<path id="Vector_259" opacity="0.2" d="M193.641 759.06C193.588 758.964 193.573 758.854 193.599 758.748L192.713 758.614L193.684 758.764C193.658 758.869 193.673 758.98 193.727 759.076C193.833 759.277 194.067 759.538 193.927 759.593H193.867C193.961 759.498 193.744 759.253 193.641 759.06Z" fill="white"/>
<path id="Vector_260" d="M194.808 751.28H194.893C195.157 751.28 195.37 751.082 195.37 750.838V750.293C195.37 750.049 195.157 749.851 194.893 749.851H194.808C194.545 749.851 194.331 750.049 194.331 750.293V750.838C194.331 751.082 194.545 751.28 194.808 751.28Z" fill="#CA7070"/>
<path id="Vector_261" opacity="0.2" d="M194.378 751.659C194.378 751.659 193.305 748.209 193.888 747.36H193.974H193.999C193.39 748.181 194.476 751.674 194.476 751.674L193.944 752.069L193.897 752.022L194.378 751.659Z" fill="white"/>
<path id="Vector_262" d="M194.829 750.352C195.464 750.352 195.979 749.875 195.979 749.286C195.979 748.698 195.464 748.22 194.829 748.22C194.195 748.22 193.68 748.698 193.68 749.286C193.68 749.875 194.195 750.352 194.829 750.352Z" fill="#CA7070"/>
<path id="Vector_263" opacity="0.2" d="M195.238 750.798V750.332C195.242 750.298 195.242 750.264 195.238 750.23C195.463 750.123 195.644 749.951 195.753 749.739C195.862 749.528 195.892 749.289 195.84 749.06C195.787 748.831 195.655 748.624 195.463 748.471C195.271 748.319 195.031 748.229 194.778 748.216H194.842C195.1 748.216 195.351 748.296 195.554 748.444C195.756 748.592 195.9 748.798 195.961 749.03C196.022 749.263 195.997 749.507 195.889 749.725C195.782 749.942 195.6 750.12 195.37 750.23C195.374 750.264 195.374 750.298 195.37 750.332V750.798C195.37 750.926 195.316 751.048 195.218 751.139C195.121 751.229 194.989 751.28 194.851 751.28H194.787C194.913 751.264 195.028 751.207 195.111 751.118C195.194 751.029 195.239 750.916 195.238 750.798V750.798Z" fill="white"/>
<path id="Vector_264" d="M193.663 754.599C193.663 754.599 195.881 754.832 195.962 754.599C196.31 753.651 196.31 752.623 195.962 751.674C195.962 751.534 195.932 751.396 195.875 751.267C195.817 751.137 195.732 751.02 195.625 750.921C195.519 750.822 195.392 750.743 195.252 750.69C195.113 750.636 194.963 750.609 194.812 750.609V750.609C194.508 750.609 194.215 750.721 193.999 750.921C193.784 751.121 193.663 751.392 193.663 751.674V754.599Z" fill="#00695C"/>
<path id="Vector_265" d="M193.663 754.599L192.662 758.863H193.663L194.702 755.705C194.702 755.705 195.979 756.222 196.333 757.252C196.547 757.772 196.547 758.347 196.333 758.867H197.41V758.819C197.588 758.059 197.547 757.269 197.291 756.529C197.036 755.788 196.574 755.123 195.954 754.599" fill="#263238"/>
<path id="Vector_266" opacity="0.2" d="M195.813 754.599C196.161 753.651 196.161 752.623 195.813 751.674C195.813 751.404 195.701 751.143 195.501 750.946C195.301 750.749 195.027 750.63 194.736 750.613H194.808C195.113 750.613 195.406 750.725 195.621 750.925C195.837 751.125 195.958 751.396 195.958 751.678C196.305 752.627 196.305 753.655 195.958 754.603C195.928 754.686 195.626 754.71 195.247 754.706C195.575 754.698 195.813 754.67 195.813 754.599Z" fill="white"/>
<path id="Vector_267" d="M195.979 751.659C195.979 751.659 198.96 749.732 198.649 747.293H197.985C197.985 747.293 196.388 750.49 195.37 750.802C194.353 751.114 195.979 751.659 195.979 751.659Z" fill="#00695C"/>
<g id="Group_4" opacity="0.2">
<path id="Vector_268" opacity="0.2" d="M194.68 755.772L193.663 758.878H193.514L194.553 755.72L194.68 755.772Z" fill="white"/>
<path id="Vector_269" opacity="0.2" d="M195.813 754.615H195.962C196.583 755.138 197.044 755.804 197.3 756.544C197.555 757.285 197.596 758.075 197.418 758.835V758.882H197.269V758.835C197.447 758.075 197.406 757.285 197.151 756.544C196.895 755.804 196.434 755.138 195.813 754.615Z" fill="white"/>
</g>
<path id="Vector_270" opacity="0.2" d="M198.538 747.316H198.649C198.947 749.76 195.979 751.682 195.979 751.682L195.907 751.655C196.239 751.43 198.815 749.602 198.538 747.316Z" fill="white"/>
<path id="Vector_271" d="M195.745 748.809C195.681 748.946 195.637 749.091 195.613 749.239C195.583 749.39 195.521 749.535 195.431 749.663C195.34 749.792 195.223 749.903 195.085 749.989C194.926 750.069 194.75 750.113 194.57 750.119C194.434 750.135 194.296 750.124 194.164 750.087C194.033 750.051 193.912 749.989 193.808 749.906C193.687 749.785 193.606 749.634 193.573 749.472C193.516 749.23 193.525 748.98 193.599 748.742C193.674 748.505 193.811 748.289 193.999 748.114C194.19 747.943 194.429 747.825 194.689 747.774C194.949 747.723 195.219 747.741 195.468 747.826C195.558 747.866 195.652 747.898 195.749 747.92C195.826 747.934 195.905 747.93 195.98 747.908C196.054 747.886 196.121 747.847 196.175 747.794C196.187 747.83 196.19 747.868 196.183 747.905C196.177 747.942 196.16 747.976 196.136 748.007C196.112 748.037 196.081 748.061 196.045 748.077C196.008 748.094 195.968 748.103 195.928 748.102C196.013 748.14 196.106 748.162 196.2 748.167C196.294 748.171 196.388 748.159 196.477 748.13C196.427 748.228 196.339 748.305 196.23 748.345C196.121 748.386 195.999 748.386 195.89 748.347C196.099 748.433 196.325 748.476 196.554 748.473C196.507 748.473 196.414 748.556 196.354 748.572C196.28 748.578 196.206 748.578 196.132 748.572C196.05 748.572 195.97 748.595 195.901 748.637C195.832 748.679 195.778 748.739 195.745 748.809Z" fill="#263238"/>
<g id="Group_5" opacity="0.2">
<path id="Vector_272" opacity="0.2" d="M195.898 748.105C195.984 748.143 196.076 748.164 196.171 748.168C196.048 748.176 195.924 748.155 195.813 748.105C195.849 748.105 195.885 748.099 195.918 748.085C195.951 748.072 195.98 748.052 196.005 748.028C196.029 748.003 196.048 747.974 196.06 747.943C196.071 747.911 196.076 747.878 196.073 747.845L196.132 747.797C196.144 747.832 196.147 747.869 196.141 747.905C196.135 747.941 196.12 747.975 196.098 748.005C196.075 748.035 196.045 748.059 196.011 748.077C195.976 748.094 195.938 748.104 195.898 748.105V748.105Z" fill="white"/>
<path id="Vector_273" opacity="0.2" d="M195.668 747.92C195.571 747.898 195.477 747.866 195.387 747.826C195.252 747.776 195.108 747.748 194.961 747.743C195.138 747.737 195.313 747.765 195.477 747.826C195.567 747.866 195.661 747.898 195.758 747.92H195.796C195.754 747.926 195.711 747.926 195.668 747.92V747.92Z" fill="white"/>
<path id="Vector_274" opacity="0.2" d="M196.239 748.572C196.299 748.572 196.392 748.473 196.439 748.473C196.21 748.476 195.984 748.433 195.775 748.347C195.822 748.364 195.873 748.374 195.924 748.374C196.113 748.441 196.314 748.473 196.516 748.469C196.469 748.469 196.375 748.552 196.316 748.568C196.265 748.575 196.213 748.575 196.162 748.568L196.239 748.572Z" fill="white"/>
<path id="Vector_275" opacity="0.2" d="M194.493 750.119C194.673 750.113 194.85 750.069 195.008 749.989C195.146 749.903 195.263 749.792 195.354 749.663C195.445 749.535 195.507 749.39 195.536 749.239C195.56 749.091 195.605 748.946 195.668 748.809C195.702 748.745 195.753 748.691 195.817 748.652C195.88 748.613 195.954 748.591 196.03 748.588H196.103C196.027 748.591 195.953 748.613 195.889 748.652C195.825 748.691 195.774 748.745 195.741 748.809C195.677 748.946 195.633 749.091 195.609 749.239C195.579 749.39 195.517 749.535 195.427 749.663C195.336 749.792 195.218 749.903 195.081 749.989C194.922 750.069 194.746 750.113 194.565 750.119H194.493Z" fill="white"/>
<path id="Vector_276" opacity="0.2" d="M195.988 748.378C196.066 748.373 196.142 748.35 196.208 748.311C196.274 748.271 196.329 748.217 196.367 748.153L196.452 748.13C196.411 748.21 196.345 748.277 196.262 748.322C196.179 748.366 196.083 748.386 195.988 748.378V748.378Z" fill="white"/>
</g>
<path id="Vector_277" opacity="0.2" d="M198.577 747.289C198.577 747.289 198.798 747.115 198.577 746.807C198.548 746.762 198.507 746.725 198.459 746.697C198.411 746.67 198.356 746.653 198.3 746.649C198.368 746.642 198.437 746.653 198.499 746.681C198.561 746.709 198.613 746.753 198.649 746.807C198.871 747.115 198.649 747.289 198.649 747.289C198.509 747.317 198.366 747.332 198.223 747.332C198.342 747.327 198.46 747.312 198.577 747.289Z" fill="white"/>
<path id="Vector_278" d="M203.652 743.456C203.652 743.456 202.558 746.657 204.393 748.43L204.926 748.035C204.926 748.035 203.84 744.541 204.449 743.72C203.376 743.409 203.652 743.456 203.652 743.456Z" fill="#FF5252"/>
<path id="Vector_279" d="M204.411 743.74C204.411 743.74 204.632 743.566 204.411 743.259C204.189 742.951 203.78 743.191 203.78 743.191C203.78 743.191 203.631 743.638 203.78 743.74C203.929 743.843 204.411 743.74 204.411 743.74Z" fill="#F6B9AD"/>
<path id="Vector_280" d="M205.279 747.869H205.364C205.628 747.869 205.841 747.671 205.841 747.427V746.882C205.841 746.638 205.628 746.44 205.364 746.44H205.279C205.016 746.44 204.802 746.638 204.802 746.882V747.427C204.802 747.671 205.016 747.869 205.279 747.869Z" fill="#F6B9AD"/>
<path id="Vector_281" opacity="0.2" d="M204.849 748.26C204.849 748.26 203.776 744.81 204.359 743.961H204.445H204.47C203.861 744.782 204.947 748.276 204.947 748.276L204.415 748.67L204.368 748.623L204.849 748.26Z" fill="white"/>
<path id="Vector_282" d="M205.3 746.938C205.935 746.938 206.45 746.46 206.45 745.872C206.45 745.283 205.935 744.806 205.3 744.806C204.665 744.806 204.151 745.283 204.151 745.872C204.151 746.46 204.665 746.938 205.3 746.938Z" fill="#F6B9AD"/>
<path id="Vector_283" opacity="0.2" d="M205.709 747.384V746.922C205.713 746.888 205.713 746.853 205.709 746.819C205.934 746.712 206.115 746.54 206.224 746.329C206.332 746.117 206.363 745.878 206.311 745.649C206.258 745.42 206.126 745.213 205.934 745.061C205.742 744.908 205.502 744.819 205.249 744.806H205.313C205.571 744.806 205.822 744.886 206.024 745.033C206.227 745.181 206.371 745.388 206.432 745.62C206.493 745.852 206.467 746.097 206.36 746.314C206.253 746.532 206.07 746.71 205.841 746.819C205.845 746.853 205.845 746.888 205.841 746.922V747.388C205.841 747.515 205.786 747.638 205.689 747.728C205.592 747.818 205.459 747.869 205.322 747.869H205.258C205.384 747.854 205.5 747.796 205.583 747.706C205.667 747.617 205.711 747.502 205.709 747.384V747.384Z" fill="white"/>
<path id="Vector_284" d="M204.134 751.185C204.134 751.185 206.352 751.418 206.433 751.185C206.697 750.435 206.007 749.606 206.344 749.211C206.448 749.072 206.511 748.91 206.526 748.741C206.542 748.572 206.51 748.402 206.433 748.248C206.433 748.108 206.403 747.97 206.346 747.84C206.288 747.711 206.203 747.593 206.096 747.494C205.99 747.395 205.863 747.317 205.723 747.263C205.584 747.21 205.434 747.182 205.283 747.182V747.182C204.978 747.182 204.686 747.295 204.47 747.494C204.255 747.694 204.134 747.965 204.134 748.248V751.185Z" fill="#FF5252"/>
<path id="Vector_285" opacity="0.2" d="M206.348 749.227C206.452 749.088 206.515 748.925 206.531 748.756C206.546 748.588 206.514 748.418 206.437 748.264C206.437 747.981 206.316 747.71 206.101 747.51C205.885 747.31 205.593 747.198 205.288 747.198H205.215C205.507 747.215 205.78 747.334 205.98 747.532C206.18 747.729 206.292 747.989 206.293 748.26C206.369 748.414 206.401 748.584 206.386 748.752C206.37 748.921 206.307 749.084 206.203 749.223C205.845 749.618 206.557 750.431 206.293 751.197C206.267 751.268 206.037 751.295 205.735 751.299C206.109 751.299 206.412 751.28 206.442 751.197C206.701 750.435 205.99 749.622 206.348 749.227Z" fill="white"/>
<path id="Vector_286" d="M205.96 751.118C206.816 752.372 207.149 753.872 206.897 755.338V755.385H206.207C206.346 754.854 206.346 754.301 206.207 753.77C206.076 753.152 205.703 752.601 205.16 752.223L204.491 755.381H203.848L204.491 751.118H205.96Z" fill="#F6B9AD"/>
<path id="Vector_287" d="M209.865 744.984C209.865 744.984 210.133 744.881 210.019 744.522C209.904 744.162 209.439 744.285 209.439 744.285C209.439 744.285 209.154 744.68 209.265 744.81C209.376 744.94 209.865 744.984 209.865 744.984Z" fill="#F6B9AD"/>
<path id="Vector_288" d="M205.926 748.434C205.926 748.434 209.371 747.399 209.861 744.984L209.222 744.802C209.222 744.802 206.667 747.427 205.611 747.447C204.555 747.466 205.926 748.434 205.926 748.434Z" fill="#FF5252"/>
<path id="Vector_289" opacity="0.2" d="M209.742 744.987L209.848 745.019C209.359 747.435 205.914 748.469 205.914 748.469L205.854 748.426C206.259 748.291 209.286 747.241 209.742 744.987Z" fill="white"/>
<g id="Group_6" opacity="0.2">
<path id="Vector_290" opacity="0.2" d="M205.002 752.219L204.334 755.377H204.483L205.13 752.306C205.089 752.275 205.047 752.246 205.002 752.219V752.219Z" fill="white"/>
<path id="Vector_291" opacity="0.2" d="M205.96 751.118H205.811C206.667 752.372 207 753.872 206.748 755.338V755.385H206.884V755.338C207.14 753.874 206.811 752.374 205.96 751.118V751.118Z" fill="white"/>
</g>
<path id="Vector_292" opacity="0.2" d="M209.789 744.948C209.789 744.948 210.057 744.845 209.942 744.486C209.928 744.436 209.902 744.389 209.865 744.35C209.828 744.311 209.781 744.28 209.729 744.261C209.797 744.273 209.86 744.302 209.91 744.345C209.961 744.388 209.997 744.444 210.014 744.506C210.129 744.861 209.861 744.968 209.861 744.968C209.717 744.957 209.574 744.932 209.435 744.893C209.551 744.92 209.669 744.939 209.789 744.948V744.948Z" fill="white"/>
<path id="Vector_293" d="M204.134 751.07L202.737 753.802C203.553 753.839 204.366 753.93 205.168 754.074C206.714 754.347 207.451 753.68 207.451 753.68L206.459 751.07H204.134Z" fill="#263238"/>
<path id="Vector_294" d="M204.504 755.369C204.504 755.369 205.241 755.507 205.092 755.764H203.767L203.84 755.369H204.504Z" fill="#FF5252"/>
<path id="Vector_295" d="M206.859 755.369C206.859 755.369 207.596 755.507 207.447 755.764H206.122L206.195 755.369H206.859Z" fill="#FF5252"/>
<path id="Vector_296" d="M206.344 744.995C206.344 744.995 204.577 747.316 205.386 748.272L202.222 748.205C202.222 748.205 203.103 742.947 206.344 744.995Z" fill="#FCCC63"/>
<path id="Vector_297" opacity="0.2" d="M206.344 744.995C205.981 744.746 205.556 744.586 205.109 744.53C205.413 744.62 205.7 744.753 205.96 744.924C205.96 744.924 204.193 747.245 205.002 748.201L202.218 748.141V748.201L205.381 748.268C204.577 747.316 206.344 744.995 206.344 744.995Z" fill="white"/>
<path id="Vector_298" opacity="0.2" d="M206.459 751.07H206.237L207.234 753.664C206.821 753.978 206.302 754.146 205.769 754.138C206.382 754.193 206.994 754.023 207.472 753.664L206.459 751.07Z" fill="white"/>
<path id="Vector_299" opacity="0.2" d="M204.504 755.369H204.355C204.355 755.369 205.092 755.507 204.943 755.764H205.092C205.241 755.503 204.504 755.369 204.504 755.369Z" fill="white"/>
<path id="Vector_300" opacity="0.2" d="M206.859 755.369H206.71C206.71 755.369 207.447 755.507 207.298 755.764H207.447C207.596 755.503 206.859 755.369 206.859 755.369Z" fill="white"/>
</g>
</g>
<g id="Hot Air Balloon">
<path id="Vector_301" d="M351.33 650.756C351.33 678.247 328.112 700.529 303.387 700.529C278.661 700.529 253.324 678.247 253.324 650.756C253.324 623.266 278.67 601 303.391 601C328.112 601 351.33 623.261 351.33 650.756Z" fill="#F85959"/>
<path id="Vector_302" d="M354.137 651.218C354.137 680.057 329.777 703.435 303.841 703.435C277.905 703.435 251.324 680.057 251.324 651.218C251.324 622.379 277.905 599 303.845 599C329.785 599 354.137 622.379 354.137 651.218Z" fill="url(#paint3_linear)"/>
<path id="Vector_303" opacity="0.2" d="M253.443 648.756C253.443 621.66 278.075 599.613 302.444 599C302.091 599 301.739 599 301.386 599C276.665 599 251.324 621.282 251.324 648.773C251.324 676.264 276.661 698.546 301.382 698.546C301.735 698.546 302.087 698.546 302.44 698.546C278.063 697.891 253.443 675.865 253.443 648.756Z" fill="white"/>
<path id="Vector_304" opacity="0.2" d="M318.861 603.793C318.861 603.793 356.824 647.367 318.861 696.745L306.324 696.703C306.324 696.703 340.932 655.54 307.913 601L314.092 602.222L318.861 603.793Z" fill="white"/>
<path id="Vector_305" d="M294.248 722L290.324 701.566L302.75 701V722H311.252L315.824 701" stroke="#B3B3B3" stroke-miterlimit="10"/>
<path id="Vector_306" opacity="0.2" d="M285.197 605.091C285.197 605.091 247.234 648.01 285.197 697.388L297.733 697.346C297.733 697.346 263.126 656.553 296.145 602L289.974 603.39L285.197 605.091Z" fill="white"/>
<path id="Vector_307" opacity="0.2" d="M307.091 603C306.501 603 305.915 603 305.324 603.042C329.374 604.071 351.501 625.938 351.501 652.773C351.501 679.609 329.374 701.475 305.341 702.504C305.932 702.529 306.522 702.546 307.108 702.546C331.829 702.546 355.051 680.264 355.051 652.773C355.051 625.282 331.812 603 307.091 603Z" fill="black"/>
<path id="Vector_308" opacity="0.05" d="M308.185 601H297.95C294.605 601.01 291.399 602.329 289.033 604.668C286.668 607.008 285.334 610.179 285.324 613.487V613.487C285.324 613.773 285.324 614.05 285.358 614.327C285.583 611.173 287.007 608.22 289.342 606.06C291.678 603.9 294.753 602.694 297.95 602.684H308.185C311.383 602.694 314.458 603.9 316.793 606.06C319.129 608.22 320.552 611.173 320.777 614.327C320.777 614.05 320.811 613.769 320.811 613.487C320.801 610.179 319.468 607.008 317.102 604.668C314.736 602.329 311.531 601.01 308.185 601V601Z" fill="black"/>
<path id="Vector_309" d="M319.286 696H287.324V706.303H319.286V696Z" fill="#F85959"/>
<path id="Vector_310" d="M309.217 717H296.918C290.515 717 285.324 722.134 285.324 728.467V730.508C285.324 736.841 290.515 741.975 296.918 741.975H309.217C315.62 741.975 320.811 736.841 320.811 730.508V728.467C320.811 722.134 315.62 717 309.217 717Z" fill="#F85959"/>
<path id="Vector_311" d="M308.447 706H297.324V709.843H308.447V706Z" fill="#F85959"/>
</g>
</g>
<defs>
<linearGradient id="paint0_linear" x1="189" y1="813.049" x2="189" y2="744.735" gradientUnits="userSpaceOnUse">
<stop stop-color="#808080" stop-opacity="0.25"/>
<stop offset="0.54" stop-color="#808080" stop-opacity="0.12"/>
<stop offset="1" stop-color="#808080" stop-opacity="0.1"/>
</linearGradient>
<linearGradient id="paint1_linear" x1="1054.09" y1="750.728" x2="1054.09" y2="750.728" gradientUnits="userSpaceOnUse">
<stop stop-color="#808080" stop-opacity="0.25"/>
<stop offset="0.54" stop-color="#808080" stop-opacity="0.12"/>
<stop offset="1" stop-color="#808080" stop-opacity="0.1"/>
</linearGradient>
<linearGradient id="paint2_linear" x1="-14794.2" y1="8569.08" x2="-14794.2" y2="8217.32" gradientUnits="userSpaceOnUse">
<stop stop-color="#808080" stop-opacity="0.25"/>
<stop offset="0.54" stop-color="#808080" stop-opacity="0.12"/>
<stop offset="1" stop-color="#808080" stop-opacity="0.1"/>
</linearGradient>
<linearGradient id="paint3_linear" x1="93875.8" y1="47885.2" x2="93875.8" y2="21918.4" gradientUnits="userSpaceOnUse">
<stop stop-color="#808080" stop-opacity="0.25"/>
<stop offset="0.54" stop-color="#808080" stop-opacity="0.12"/>
<stop offset="1" stop-color="#808080" stop-opacity="0.1"/>
</linearGradient>
<clipPath id="clip0">
<rect width="657" height="340" fill="white" transform="translate(-293 27)"/>
</clipPath>
<clipPath id="clip1">
<rect width="376" height="281" fill="white" transform="translate(1 533)"/>
</clipPath>
</defs>
</svg>
