<svg width="374" height="279" viewBox="0 0 374 279" fill="none" xmlns="http://www.w3.org/2000/svg">
<g clip-path="url(#clip0)">
<g opacity="0.5">
<path opacity="0.5" d="M363.013 270.851C360.96 270.851 313.745 289.882 259.006 239.769C229.279 212.56 200.162 209.662 179.756 212.698C167.216 214.561 155.766 220.238 146.696 228.46C139.401 235.1 121.747 244.147 80.3825 241.676C16.7478 237.871 -0.0167847 280.053 -0.0167847 280.053H375.983C375.983 280.053 365.052 270.851 363.013 270.851Z" fill="url(#paint0_linear)"/>
</g>
<path d="M0 281C0 281 16.7646 238.818 80.3993 242.623C121.764 245.106 139.422 236.047 146.695 229.411C155.748 221.173 167.194 215.513 179.722 213.649C200.127 210.614 229.249 213.511 258.972 240.721C313.711 290.833 360.926 271.803 362.978 271.803C365.031 271.803 375.979 281 375.979 281H0Z" fill="#086972"/>
<path opacity="0.02" d="M0 281C0 281 16.7646 238.818 80.3993 242.623C121.764 245.106 139.422 236.047 146.695 229.411C155.748 221.173 167.194 215.513 179.722 213.649C200.127 210.614 229.249 213.511 258.972 240.721C313.711 290.833 360.926 271.803 362.978 271.803C365.031 271.803 375.979 281 375.979 281H0Z" fill="#086972"/>
<path d="M95.3329 233.146H68.5487V251.592H95.3329V233.146Z" fill="black"/>
<path d="M66.2152 232.396L81.1828 218.52C81.2912 218.42 81.4199 218.34 81.5617 218.285C81.7034 218.231 81.8554 218.203 82.0089 218.203C82.1623 218.203 82.3143 218.231 82.4561 218.285C82.5978 218.34 82.7266 218.42 82.835 218.52L97.6833 232.285C97.8467 232.436 97.9581 232.629 98.0034 232.838C98.0487 233.048 98.026 233.266 97.938 233.463C97.8501 233.661 97.7009 233.83 97.5093 233.949C97.3176 234.068 97.0922 234.132 96.8615 234.132L67.054 234.243C66.8219 234.246 66.5941 234.184 66.3998 234.066C66.2056 233.948 66.0537 233.78 65.9636 233.581C65.8736 233.383 65.8494 233.164 65.8942 232.953C65.939 232.742 66.0508 232.548 66.2152 232.396Z" fill="black"/>
<path opacity="0.05" d="M66.2152 232.396L81.1828 218.52C81.2912 218.42 81.4199 218.34 81.5617 218.285C81.7034 218.231 81.8554 218.203 82.0089 218.203C82.1623 218.203 82.3143 218.231 82.4561 218.285C82.5978 218.34 82.7266 218.42 82.835 218.52L97.6833 232.285C97.8467 232.436 97.9581 232.629 98.0034 232.838C98.0487 233.048 98.026 233.266 97.938 233.463C97.8501 233.661 97.7009 233.83 97.5093 233.949C97.3176 234.068 97.0922 234.132 96.8615 234.132L67.054 234.243C66.8219 234.246 66.5941 234.184 66.3998 234.066C66.2056 233.948 66.0537 233.78 65.9636 233.581C65.8736 233.383 65.8494 233.164 65.8942 232.953C65.939 232.742 66.0508 232.548 66.2152 232.396Z" fill="black"/>
<path d="M81.5958 243.271H82.1323C82.9342 243.271 83.7032 243.566 84.2702 244.092C84.8371 244.617 85.1557 245.33 85.1557 246.073V251.6H78.5725V246.073C78.5725 245.33 78.891 244.617 79.458 244.092C80.025 243.566 80.794 243.271 81.5958 243.271Z" fill="white"/>
<path d="M82.0131 223.439C82.9232 223.439 83.661 222.755 83.661 221.911C83.661 221.068 82.9232 220.384 82.0131 220.384C81.103 220.384 80.3652 221.068 80.3652 221.911C80.3652 222.755 81.103 223.439 82.0131 223.439Z" fill="white"/>
<path d="M76.9288 235.502H70.6437V239.939H76.9288V235.502Z" fill="white"/>
<path d="M74.0844 235.502H73.4839V239.939H74.0844V235.502Z" fill="black"/>
<path d="M93.6849 235.502H87.3997V239.939H93.6849V235.502Z" fill="white"/>
<path d="M90.8446 235.502H90.2442V239.939H90.8446V235.502Z" fill="black"/>
<g opacity="0.2">
<path opacity="0.2" d="M192.683 213.615C192.63 213.6 192.683 213.615 192.683 213.615V213.615Z" fill="url(#paint1_linear)"/>
</g>
<g opacity="0.2">
<path opacity="0.2" d="M193.301 225.077H193.353C193.363 225.073 193.372 225.067 193.379 225.059C193.386 225.05 193.39 225.04 193.391 225.03C193.394 225.014 193.394 224.998 193.391 224.982V224.943C193.348 224.848 193.25 224.722 193.195 224.611L193.169 224.552C193.167 224.526 193.167 224.499 193.169 224.473C193.169 224.473 193.169 224.449 193.169 224.438L194.089 221.639L194.111 221.572C194.111 221.572 195.282 222.038 195.584 222.969C195.758 223.421 195.767 223.913 195.609 224.37L195.588 224.418H195.609V224.931H196.887C196.976 224.892 196.857 224.789 196.738 224.686L196.708 224.659L196.631 224.584C196.61 224.561 196.591 224.536 196.576 224.509L196.555 224.461V224.434H196.516V224.39C196.676 223.704 196.64 222.992 196.411 222.323C196.183 221.654 195.77 221.053 195.213 220.577C195.521 219.725 195.521 218.804 195.213 217.952C195.333 217.873 197.653 216.318 197.636 214.305C197.643 214.197 197.643 214.089 197.636 213.981C197.636 213.981 197.836 213.827 197.636 213.547V213.523H197.615H197.475C197.383 213.531 197.294 213.558 197.215 213.602C197.215 213.602 197.083 213.997 197.215 214.099H197.181C197.181 214.099 195.805 216.863 194.886 217.257L194.822 217.222V216.863C194.823 216.847 194.823 216.831 194.822 216.815C194.822 216.801 194.822 216.786 194.822 216.772C194.925 216.722 195.018 216.657 195.098 216.578C195.129 216.548 195.157 216.517 195.184 216.484L195.218 216.436L195.252 216.381L195.277 216.33C195.296 216.292 195.311 216.254 195.324 216.215V216.168V216.109C195.324 216.109 195.324 216.077 195.324 216.061C195.324 216.041 195.324 216.022 195.324 215.998C195.324 215.885 195.302 215.773 195.26 215.666C195.26 215.638 195.247 215.609 195.222 215.58L195.201 215.536L195.171 215.489C195.194 215.463 195.221 215.44 195.252 215.422C195.311 215.391 195.376 215.372 195.443 215.366H195.609H195.643C195.668 215.357 195.691 215.346 195.712 215.331C195.744 215.306 195.782 215.287 195.822 215.276H195.571H195.533H195.499H195.46H195.426H195.392H195.358H195.324H195.29L195.222 215.248C195.257 215.261 195.295 215.269 195.333 215.272H195.477H195.503L195.529 215.252V215.22H195.482H195.452C195.394 215.228 195.335 215.228 195.277 215.22H195.154H195.098L195.047 215.201C195.117 215.224 195.195 215.221 195.262 215.192C195.33 215.163 195.382 215.11 195.407 215.045C195.433 214.98 195.429 214.908 195.398 214.846C195.366 214.783 195.309 214.735 195.239 214.711L195.286 214.684C195.335 214.645 195.365 214.589 195.371 214.53C195.377 214.505 195.377 214.479 195.371 214.455L195.341 214.478H195.316C195.235 214.531 195.137 214.556 195.039 214.549H195.005C194.918 214.529 194.834 214.5 194.754 214.463L194.681 214.439H194.66H194.6H194.566H194.519H194.294C193.976 214.449 193.672 214.567 193.442 214.77C193.389 214.819 193.34 214.872 193.297 214.928C193.266 214.639 193.324 214.348 193.463 214.087H193.438H193.361L193.323 214.155C193.343 214.059 193.382 213.968 193.438 213.886H193.412C193.469 213.828 193.5 213.752 193.5 213.673C193.5 213.594 193.469 213.518 193.412 213.46C193.212 213.18 192.842 213.397 192.842 213.397C192.812 213.488 192.792 213.582 192.782 213.677L192.722 213.653C192.654 213.866 191.896 216.314 193.148 217.877C193.146 217.91 193.146 217.943 193.148 217.976V220.613L192.297 224.228L192.13 224.911L193.327 225.093L193.301 225.077ZM193.514 216.531C193.582 216.583 193.656 216.627 193.736 216.661C193.733 216.686 193.733 216.711 193.736 216.736V217.08L193.663 217.111C193.608 216.941 193.561 216.744 193.51 216.531H193.514Z" fill="url(#paint2_linear)"/>
</g>
<path d="M197.649 214.289C197.649 214.289 197.87 214.115 197.649 213.807C197.428 213.499 197.019 213.74 197.019 213.74C197.019 213.74 196.87 214.186 197.019 214.289C197.168 214.392 197.649 214.289 197.649 214.289Z" fill="#CA7070"/>
<path d="M195.358 225.799H196.38C196.376 225.844 196.383 225.89 196.4 225.932C196.417 225.974 196.444 226.012 196.478 226.044C196.614 226.19 196.904 226.368 196.763 226.439H195.358V225.799Z" fill="#00695C"/>
<path opacity="0.2" d="M196.401 226.044C196.367 226.012 196.34 225.974 196.323 225.932C196.307 225.89 196.3 225.844 196.303 225.799H196.376C196.372 225.844 196.379 225.89 196.396 225.932C196.413 225.974 196.439 226.012 196.474 226.044C196.61 226.19 196.9 226.368 196.759 226.439H196.687C196.814 226.368 196.538 226.19 196.401 226.044Z" fill="white"/>
<path d="M191.713 225.606L192.684 225.764C192.658 225.869 192.673 225.98 192.727 226.076C192.833 226.277 193.067 226.538 192.927 226.593L191.543 226.384L191.713 225.606Z" fill="#00695C"/>
<path d="M192.182 213.87C192.182 213.87 191.087 217.072 192.922 218.844L193.455 218.449C193.455 218.449 192.369 214.956 192.978 214.135C191.905 213.823 192.182 213.87 192.182 213.87Z" fill="#00695C"/>
<path d="M192.94 214.151C192.94 214.151 193.161 213.977 192.94 213.669C192.718 213.361 192.309 213.602 192.309 213.602C192.309 213.602 192.16 214.048 192.309 214.151C192.458 214.253 192.94 214.151 192.94 214.151Z" fill="#CA7070"/>
<path opacity="0.2" d="M192.641 226.06C192.588 225.964 192.573 225.854 192.599 225.748L191.713 225.614L192.684 225.764C192.658 225.869 192.673 225.98 192.727 226.076C192.833 226.277 193.067 226.538 192.927 226.593H192.867C192.961 226.498 192.744 226.253 192.641 226.06Z" fill="white"/>
<path d="M193.808 218.28H193.893C194.157 218.28 194.37 218.082 194.37 217.838V217.293C194.37 217.049 194.157 216.851 193.893 216.851H193.808C193.545 216.851 193.331 217.049 193.331 217.293V217.838C193.331 218.082 193.545 218.28 193.808 218.28Z" fill="#CA7070"/>
<path opacity="0.2" d="M193.378 218.659C193.378 218.659 192.305 215.209 192.888 214.36H192.974H192.999C192.39 215.181 193.476 218.674 193.476 218.674L192.944 219.069L192.897 219.022L193.378 218.659Z" fill="white"/>
<path d="M193.829 217.352C194.464 217.352 194.979 216.875 194.979 216.286C194.979 215.698 194.464 215.22 193.829 215.22C193.195 215.22 192.68 215.698 192.68 216.286C192.68 216.875 193.195 217.352 193.829 217.352Z" fill="#CA7070"/>
<path opacity="0.2" d="M194.238 217.798V217.332C194.242 217.298 194.242 217.264 194.238 217.23C194.463 217.123 194.644 216.951 194.753 216.739C194.862 216.528 194.892 216.289 194.84 216.06C194.787 215.831 194.655 215.624 194.463 215.471C194.271 215.319 194.031 215.229 193.778 215.216H193.842C194.1 215.216 194.351 215.296 194.554 215.444C194.756 215.592 194.9 215.798 194.961 216.03C195.022 216.263 194.997 216.507 194.889 216.725C194.782 216.942 194.6 217.12 194.37 217.23C194.374 217.264 194.374 217.298 194.37 217.332V217.798C194.37 217.926 194.316 218.048 194.218 218.139C194.121 218.229 193.989 218.28 193.851 218.28H193.787C193.913 218.264 194.028 218.207 194.111 218.118C194.194 218.029 194.239 217.916 194.238 217.798Z" fill="white"/>
<path d="M192.663 221.599C192.663 221.599 194.881 221.832 194.962 221.599C195.31 220.651 195.31 219.623 194.962 218.674C194.962 218.534 194.932 218.396 194.875 218.267C194.817 218.137 194.732 218.02 194.625 217.921C194.519 217.822 194.392 217.743 194.252 217.69C194.113 217.636 193.963 217.609 193.812 217.609C193.508 217.609 193.215 217.721 192.999 217.921C192.784 218.121 192.663 218.392 192.663 218.674V221.599Z" fill="#00695C"/>
<path d="M192.663 221.599L191.662 225.863H192.663L193.702 222.705C193.702 222.705 194.979 223.222 195.333 224.252C195.547 224.772 195.547 225.347 195.333 225.867H196.41V225.819C196.588 225.059 196.547 224.269 196.291 223.529C196.036 222.788 195.574 222.123 194.954 221.599" fill="#263238"/>
<path opacity="0.2" d="M194.813 221.599C195.161 220.651 195.161 219.623 194.813 218.674C194.813 218.404 194.701 218.143 194.501 217.946C194.301 217.749 194.027 217.63 193.736 217.613H193.808C194.113 217.613 194.406 217.725 194.621 217.925C194.837 218.125 194.958 218.396 194.958 218.678C195.305 219.627 195.305 220.655 194.958 221.603C194.928 221.686 194.626 221.71 194.247 221.706C194.575 221.698 194.813 221.67 194.813 221.599Z" fill="white"/>
<path d="M194.979 218.659C194.979 218.659 197.96 216.732 197.649 214.293H196.985C196.985 214.293 195.388 217.49 194.37 217.802C193.353 218.114 194.979 218.659 194.979 218.659Z" fill="#00695C"/>
<g opacity="0.2">
<path opacity="0.2" d="M193.68 222.772L192.663 225.878H192.514L193.553 222.72L193.68 222.772Z" fill="white"/>
<path opacity="0.2" d="M194.813 221.615H194.962C195.583 222.138 196.044 222.804 196.3 223.544C196.555 224.285 196.596 225.075 196.418 225.835V225.882H196.269V225.835C196.447 225.075 196.406 224.285 196.151 223.544C195.895 222.804 195.434 222.138 194.813 221.615Z" fill="white"/>
</g>
<path opacity="0.2" d="M197.538 214.316H197.649C197.947 216.76 194.979 218.682 194.979 218.682L194.907 218.655C195.239 218.43 197.815 216.602 197.538 214.316Z" fill="white"/>
<path d="M194.745 215.809C194.681 215.946 194.637 216.091 194.613 216.239C194.583 216.39 194.521 216.535 194.431 216.663C194.34 216.792 194.223 216.903 194.085 216.989C193.926 217.069 193.75 217.113 193.57 217.119C193.434 217.135 193.296 217.124 193.164 217.087C193.033 217.051 192.912 216.989 192.808 216.906C192.687 216.785 192.606 216.634 192.573 216.472C192.516 216.23 192.525 215.98 192.599 215.742C192.674 215.505 192.811 215.289 192.999 215.114C193.19 214.943 193.429 214.825 193.689 214.774C193.949 214.723 194.219 214.741 194.468 214.826C194.558 214.866 194.652 214.898 194.749 214.92C194.826 214.934 194.905 214.93 194.98 214.908C195.054 214.886 195.121 214.847 195.175 214.794C195.187 214.83 195.19 214.868 195.183 214.905C195.177 214.942 195.16 214.976 195.136 215.007C195.112 215.037 195.081 215.061 195.045 215.077C195.008 215.094 194.968 215.103 194.928 215.102C195.013 215.14 195.106 215.162 195.2 215.167C195.294 215.171 195.388 215.159 195.477 215.13C195.427 215.228 195.339 215.305 195.23 215.345C195.121 215.386 194.999 215.386 194.89 215.347C195.099 215.433 195.325 215.476 195.554 215.473C195.507 215.473 195.414 215.556 195.354 215.572C195.28 215.578 195.206 215.578 195.132 215.572C195.05 215.572 194.97 215.595 194.901 215.637C194.832 215.679 194.778 215.739 194.745 215.809Z" fill="#263238"/>
<g opacity="0.2">
<path opacity="0.2" d="M194.898 215.105C194.984 215.143 195.076 215.164 195.171 215.168C195.048 215.176 194.924 215.155 194.813 215.105C194.849 215.105 194.885 215.099 194.918 215.085C194.951 215.072 194.98 215.052 195.005 215.028C195.029 215.003 195.048 214.974 195.06 214.943C195.071 214.911 195.076 214.878 195.073 214.845L195.132 214.797C195.144 214.832 195.147 214.869 195.141 214.905C195.135 214.941 195.12 214.975 195.098 215.005C195.075 215.035 195.045 215.059 195.011 215.077C194.976 215.094 194.938 215.104 194.898 215.105Z" fill="white"/>
<path opacity="0.2" d="M194.668 214.92C194.571 214.898 194.477 214.866 194.387 214.826C194.252 214.776 194.108 214.748 193.961 214.743C194.138 214.737 194.313 214.765 194.477 214.826C194.567 214.866 194.661 214.898 194.758 214.92H194.796C194.754 214.926 194.711 214.926 194.668 214.92Z" fill="white"/>
<path opacity="0.2" d="M195.239 215.572C195.299 215.572 195.392 215.473 195.439 215.473C195.21 215.476 194.984 215.433 194.775 215.347C194.822 215.364 194.873 215.374 194.924 215.374C195.113 215.441 195.314 215.473 195.516 215.469C195.469 215.469 195.375 215.552 195.316 215.568C195.265 215.575 195.213 215.575 195.162 215.568L195.239 215.572Z" fill="white"/>
<path opacity="0.2" d="M193.493 217.119C193.673 217.113 193.85 217.069 194.008 216.989C194.146 216.903 194.263 216.792 194.354 216.663C194.445 216.535 194.507 216.39 194.536 216.239C194.56 216.091 194.605 215.946 194.668 215.809C194.702 215.745 194.753 215.691 194.817 215.652C194.88 215.613 194.954 215.591 195.03 215.588H195.103C195.027 215.591 194.953 215.613 194.889 215.652C194.825 215.691 194.774 215.745 194.741 215.809C194.677 215.946 194.633 216.091 194.609 216.239C194.579 216.39 194.517 216.535 194.427 216.663C194.336 216.792 194.218 216.903 194.081 216.989C193.922 217.069 193.746 217.113 193.565 217.119H193.493Z" fill="white"/>
<path opacity="0.2" d="M194.988 215.378C195.066 215.373 195.142 215.35 195.208 215.311C195.274 215.271 195.329 215.217 195.367 215.153L195.452 215.13C195.411 215.21 195.345 215.277 195.262 215.322C195.179 215.366 195.083 215.386 194.988 215.378Z" fill="white"/>
</g>
<path opacity="0.2" d="M197.577 214.289C197.577 214.289 197.798 214.115 197.577 213.807C197.548 213.762 197.507 213.725 197.459 213.697C197.411 213.67 197.356 213.653 197.3 213.649C197.368 213.642 197.437 213.653 197.499 213.681C197.561 213.709 197.613 213.753 197.649 213.807C197.871 214.115 197.649 214.289 197.649 214.289C197.509 214.317 197.366 214.332 197.223 214.332C197.342 214.327 197.46 214.312 197.577 214.289Z" fill="white"/>
<path d="M202.652 210.456C202.652 210.456 201.558 213.657 203.393 215.43L203.926 215.035C203.926 215.035 202.84 211.541 203.449 210.72C202.376 210.409 202.652 210.456 202.652 210.456Z" fill="#FF5252"/>
<path d="M203.411 210.74C203.411 210.74 203.632 210.566 203.411 210.259C203.189 209.951 202.78 210.191 202.78 210.191C202.78 210.191 202.631 210.638 202.78 210.74C202.929 210.843 203.411 210.74 203.411 210.74Z" fill="#F6B9AD"/>
<path d="M204.279 214.869H204.364C204.628 214.869 204.841 214.671 204.841 214.427V213.882C204.841 213.638 204.628 213.44 204.364 213.44H204.279C204.016 213.44 203.802 213.638 203.802 213.882V214.427C203.802 214.671 204.016 214.869 204.279 214.869Z" fill="#F6B9AD"/>
<path opacity="0.2" d="M203.849 215.26C203.849 215.26 202.776 211.81 203.359 210.961H203.445H203.47C202.861 211.782 203.947 215.276 203.947 215.276L203.415 215.67L203.368 215.623L203.849 215.26Z" fill="white"/>
<path d="M204.3 213.938C204.935 213.938 205.45 213.46 205.45 212.872C205.45 212.283 204.935 211.806 204.3 211.806C203.665 211.806 203.151 212.283 203.151 212.872C203.151 213.46 203.665 213.938 204.3 213.938Z" fill="#F6B9AD"/>
<path opacity="0.2" d="M204.709 214.384V213.922C204.713 213.888 204.713 213.853 204.709 213.819C204.934 213.712 205.115 213.54 205.224 213.329C205.332 213.117 205.363 212.878 205.311 212.649C205.258 212.42 205.126 212.213 204.934 212.061C204.742 211.908 204.502 211.819 204.249 211.806H204.313C204.571 211.806 204.822 211.886 205.024 212.033C205.227 212.181 205.371 212.388 205.432 212.62C205.493 212.852 205.467 213.097 205.36 213.314C205.253 213.532 205.07 213.71 204.841 213.819C204.845 213.853 204.845 213.888 204.841 213.922V214.388C204.841 214.515 204.786 214.638 204.689 214.728C204.592 214.818 204.459 214.869 204.322 214.869H204.258C204.384 214.854 204.5 214.796 204.583 214.706C204.667 214.617 204.711 214.502 204.709 214.384Z" fill="white"/>
<path d="M203.134 218.185C203.134 218.185 205.352 218.418 205.433 218.185C205.697 217.435 205.007 216.606 205.344 216.211C205.448 216.072 205.511 215.91 205.526 215.741C205.542 215.572 205.51 215.402 205.433 215.248C205.433 215.108 205.403 214.97 205.346 214.84C205.288 214.711 205.203 214.593 205.096 214.494C204.99 214.395 204.863 214.317 204.723 214.263C204.584 214.21 204.434 214.182 204.283 214.182C203.978 214.182 203.686 214.295 203.47 214.494C203.255 214.694 203.134 214.965 203.134 215.248V218.185Z" fill="#FF5252"/>
<path opacity="0.2" d="M205.348 216.227C205.452 216.088 205.515 215.925 205.531 215.756C205.546 215.588 205.514 215.418 205.437 215.264C205.437 214.981 205.316 214.71 205.101 214.51C204.885 214.31 204.593 214.198 204.288 214.198H204.215C204.507 214.215 204.78 214.334 204.98 214.532C205.18 214.729 205.292 214.989 205.293 215.26C205.369 215.414 205.401 215.584 205.386 215.752C205.37 215.921 205.307 216.084 205.203 216.223C204.845 216.618 205.557 217.431 205.293 218.197C205.267 218.268 205.037 218.295 204.735 218.299C205.109 218.299 205.412 218.28 205.442 218.197C205.701 217.435 204.99 216.622 205.348 216.227Z" fill="white"/>
<path d="M204.96 218.118C205.816 219.372 206.149 220.872 205.897 222.338V222.385H205.207C205.346 221.854 205.346 221.301 205.207 220.77C205.076 220.152 204.703 219.601 204.16 219.223L203.491 222.381H202.848L203.491 218.118H204.96Z" fill="#F6B9AD"/>
<path d="M208.865 211.984C208.865 211.984 209.133 211.881 209.019 211.522C208.904 211.162 208.439 211.285 208.439 211.285C208.439 211.285 208.154 211.68 208.265 211.81C208.376 211.94 208.865 211.984 208.865 211.984Z" fill="#F6B9AD"/>
<path d="M204.926 215.434C204.926 215.434 208.371 214.399 208.861 211.984L208.222 211.802C208.222 211.802 205.667 214.427 204.611 214.447C203.555 214.466 204.926 215.434 204.926 215.434Z" fill="#FF5252"/>
<path opacity="0.2" d="M208.742 211.987L208.848 212.019C208.359 214.435 204.914 215.469 204.914 215.469L204.854 215.426C205.259 215.291 208.286 214.241 208.742 211.987Z" fill="white"/>
<g opacity="0.2">
<path opacity="0.2" d="M204.002 219.219L203.334 222.377H203.483L204.13 219.306C204.089 219.275 204.047 219.246 204.002 219.219Z" fill="white"/>
<path opacity="0.2" d="M204.96 218.118H204.811C205.667 219.372 206 220.872 205.748 222.338V222.385H205.884V222.338C206.14 220.874 205.811 219.374 204.96 218.118Z" fill="white"/>
</g>
<path opacity="0.2" d="M208.789 211.948C208.789 211.948 209.057 211.845 208.942 211.486C208.928 211.436 208.902 211.389 208.865 211.35C208.828 211.311 208.781 211.28 208.729 211.261C208.797 211.273 208.86 211.302 208.91 211.345C208.961 211.388 208.997 211.444 209.014 211.506C209.129 211.861 208.861 211.968 208.861 211.968C208.717 211.957 208.574 211.932 208.435 211.893C208.551 211.92 208.669 211.939 208.789 211.948Z" fill="white"/>
<path d="M203.134 218.07L201.737 220.802C202.553 220.839 203.366 220.93 204.168 221.074C205.714 221.347 206.451 220.68 206.451 220.68L205.459 218.07H203.134Z" fill="#263238"/>
<path d="M203.504 222.369C203.504 222.369 204.241 222.507 204.092 222.764H202.767L202.84 222.369H203.504Z" fill="#FF5252"/>
<path d="M205.859 222.369C205.859 222.369 206.596 222.507 206.447 222.764H205.122L205.195 222.369H205.859Z" fill="#FF5252"/>
<path d="M205.344 211.995C205.344 211.995 203.577 214.316 204.386 215.272L201.222 215.205C201.222 215.205 202.103 209.947 205.344 211.995Z" fill="#FCCC63"/>
<path opacity="0.2" d="M205.344 211.995C204.981 211.746 204.556 211.586 204.109 211.53C204.413 211.62 204.7 211.753 204.96 211.924C204.96 211.924 203.193 214.245 204.002 215.201L201.217 215.141V215.201L204.381 215.268C203.577 214.316 205.344 211.995 205.344 211.995Z" fill="white"/>
<path opacity="0.2" d="M205.459 218.07H205.237L206.234 220.664C205.821 220.978 205.302 221.146 204.769 221.138C205.382 221.193 205.994 221.023 206.472 220.664L205.459 218.07Z" fill="white"/>
<path opacity="0.2" d="M203.504 222.369H203.355C203.355 222.369 204.092 222.507 203.943 222.764H204.092C204.241 222.503 203.504 222.369 203.504 222.369Z" fill="white"/>
<path opacity="0.2" d="M205.859 222.369H205.71C205.71 222.369 206.447 222.507 206.298 222.764H206.447C206.596 222.503 205.859 222.369 205.859 222.369Z" fill="white"/>
</g>
<defs>
<linearGradient id="paint0_linear" x1="188" y1="280.049" x2="188" y2="211.735" gradientUnits="userSpaceOnUse">
<stop stop-color="#808080" stop-opacity="0.25"/>
<stop offset="0.54" stop-color="#808080" stop-opacity="0.12"/>
<stop offset="1" stop-color="#808080" stop-opacity="0.1"/>
</linearGradient>
<linearGradient id="paint1_linear" x1="1053.09" y1="217.728" x2="1053.09" y2="217.728" gradientUnits="userSpaceOnUse">
<stop stop-color="#808080" stop-opacity="0.25"/>
<stop offset="0.54" stop-color="#808080" stop-opacity="0.12"/>
<stop offset="1" stop-color="#808080" stop-opacity="0.1"/>
</linearGradient>
<linearGradient id="paint2_linear" x1="-14795.2" y1="8036.08" x2="-14795.2" y2="7684.32" gradientUnits="userSpaceOnUse">
<stop stop-color="#808080" stop-opacity="0.25"/>
<stop offset="0.54" stop-color="#808080" stop-opacity="0.12"/>
<stop offset="1" stop-color="#808080" stop-opacity="0.1"/>
</linearGradient>
<clipPath id="clip0">
<rect width="376" height="281" fill="white"/>
</clipPath>
</defs>
</svg>
