<svg width="1355" height="330" viewBox="0 0 1355 330" fill="none" xmlns="http://www.w3.org/2000/svg">
<g clip-path="url(#clip0)">
<g opacity="0.5">
<path opacity="0.5" d="M502.811 270.851C500.758 270.851 453.543 289.882 398.804 239.769C369.078 212.56 339.96 209.662 319.555 212.698C307.014 214.561 295.564 220.238 286.494 228.46C279.2 235.1 261.545 244.147 220.181 241.676C156.546 237.871 139.781 280.053 139.781 280.053H515.781C515.781 280.053 504.851 270.851 502.811 270.851Z" fill="url(#paint0_linear)"/>
</g>
<path d="M139.798 281C139.798 281 156.563 238.818 220.198 242.623C261.562 245.106 279.221 236.047 286.494 229.411C295.547 221.173 306.993 215.513 319.52 213.649C339.926 210.614 369.048 213.511 398.77 240.721C453.509 290.833 500.724 271.803 502.777 271.803C504.829 271.803 515.777 281 515.777 281H139.798Z" fill="#086972"/>
<path opacity="0.02" d="M139.798 281C139.798 281 156.563 238.818 220.198 242.623C261.562 245.106 279.221 236.047 286.494 229.411C295.547 221.173 306.993 215.513 319.52 213.649C339.926 210.614 369.048 213.511 398.77 240.721C453.509 290.833 500.724 271.803 502.777 271.803C504.829 271.803 515.777 281 515.777 281H139.798Z" fill="#086972"/>
<path d="M235.131 233.146H208.347V251.592H235.131V233.146Z" fill="black"/>
<path d="M206.013 232.396L220.981 218.52C221.089 218.42 221.218 218.34 221.36 218.285C221.502 218.231 221.654 218.203 221.807 218.203C221.961 218.203 222.112 218.231 222.254 218.285C222.396 218.34 222.525 218.42 222.633 218.52L237.482 232.285C237.645 232.436 237.756 232.629 237.802 232.838C237.847 233.048 237.824 233.266 237.736 233.463C237.648 233.661 237.499 233.83 237.307 233.949C237.116 234.068 236.89 234.132 236.66 234.132L206.852 234.243C206.62 234.246 206.392 234.184 206.198 234.066C206.004 233.948 205.852 233.78 205.762 233.581C205.672 233.383 205.648 233.164 205.692 232.953C205.737 232.742 205.849 232.548 206.013 232.396V232.396Z" fill="black"/>
<path opacity="0.05" d="M206.013 232.396L220.981 218.52C221.089 218.42 221.218 218.34 221.36 218.285C221.502 218.231 221.654 218.203 221.807 218.203C221.961 218.203 222.112 218.231 222.254 218.285C222.396 218.34 222.525 218.42 222.633 218.52L237.482 232.285C237.645 232.436 237.756 232.629 237.802 232.838C237.847 233.048 237.824 233.266 237.736 233.463C237.648 233.661 237.499 233.83 237.307 233.949C237.116 234.068 236.89 234.132 236.66 234.132L206.852 234.243C206.62 234.246 206.392 234.184 206.198 234.066C206.004 233.948 205.852 233.78 205.762 233.581C205.672 233.383 205.648 233.164 205.692 232.953C205.737 232.742 205.849 232.548 206.013 232.396Z" fill="black"/>
<path d="M221.394 243.271H221.931C222.732 243.271 223.501 243.566 224.068 244.092C224.635 244.617 224.954 245.33 224.954 246.073V251.6H218.371V246.073C218.371 245.33 218.689 244.617 219.256 244.092C219.823 243.566 220.592 243.271 221.394 243.271V243.271Z" fill="white"/>
<path d="M221.811 223.439C222.721 223.439 223.459 222.755 223.459 221.911C223.459 221.068 222.721 220.384 221.811 220.384C220.901 220.384 220.163 221.068 220.163 221.911C220.163 222.755 220.901 223.439 221.811 223.439Z" fill="white"/>
<path d="M216.727 235.502H210.442V239.939H216.727V235.502Z" fill="white"/>
<path d="M213.883 235.502H213.282V239.939H213.883V235.502Z" fill="black"/>
<path d="M233.483 235.502H227.198V239.939H233.483V235.502Z" fill="white"/>
<path d="M230.643 235.502H230.042V239.939H230.643V235.502Z" fill="black"/>
<g opacity="0.2">
<path opacity="0.2" d="M332.482 213.615C332.428 213.6 332.482 213.615 332.482 213.615V213.615Z" fill="url(#paint1_linear)"/>
</g>
<g opacity="0.2">
<path opacity="0.2" d="M333.1 225.077H333.151C333.161 225.073 333.171 225.067 333.177 225.059C333.184 225.05 333.188 225.04 333.189 225.03C333.192 225.014 333.192 224.998 333.189 224.982V224.943C333.147 224.848 333.049 224.722 332.993 224.611L332.968 224.552C332.965 224.526 332.965 224.499 332.968 224.473C332.968 224.473 332.968 224.449 332.968 224.438L333.887 221.639L333.909 221.572C333.909 221.572 335.08 222.038 335.382 222.969C335.556 223.421 335.565 223.913 335.408 224.37L335.386 224.418H335.408V224.931H336.685C336.775 224.892 336.655 224.789 336.536 224.686L336.506 224.659L336.43 224.584C336.408 224.561 336.389 224.536 336.374 224.509L336.353 224.461V224.434H336.315V224.39C336.474 223.704 336.438 222.992 336.209 222.323C335.981 221.654 335.568 221.053 335.012 220.577V220.577C335.32 219.725 335.32 218.804 335.012 217.952C335.131 217.873 337.452 216.318 337.435 214.305C337.441 214.197 337.441 214.089 337.435 213.981C337.435 213.981 337.635 213.827 337.435 213.547V213.523H337.413H337.273C337.181 213.531 337.092 213.558 337.013 213.602C337.013 213.602 336.881 213.997 337.013 214.099H336.979C336.979 214.099 335.604 216.863 334.684 217.257L334.62 217.222V216.863C334.621 216.847 334.621 216.831 334.62 216.815V216.815C334.621 216.801 334.621 216.786 334.62 216.772C334.723 216.722 334.817 216.657 334.897 216.578V216.578C334.927 216.548 334.956 216.517 334.982 216.484V216.484L335.016 216.436L335.05 216.381L335.076 216.33C335.094 216.292 335.109 216.254 335.122 216.215V216.168V216.109C335.122 216.109 335.122 216.077 335.122 216.061C335.122 216.041 335.122 216.022 335.122 215.998C335.122 215.885 335.101 215.773 335.058 215.666C335.058 215.638 335.046 215.609 335.02 215.58L334.999 215.536L334.969 215.489C334.992 215.463 335.019 215.44 335.05 215.422C335.109 215.391 335.174 215.372 335.242 215.366H335.408H335.442C335.466 215.357 335.489 215.346 335.51 215.331C335.542 215.306 335.58 215.287 335.621 215.276H335.369H335.331H335.297H335.259H335.225H335.19H335.156H335.122H335.088L335.02 215.248C335.056 215.261 335.093 215.269 335.131 215.272H335.276H335.301L335.327 215.252V215.22H335.28H335.25C335.192 215.228 335.133 215.228 335.076 215.22H334.952H334.897L334.846 215.201C334.916 215.224 334.993 215.221 335.06 215.192C335.128 215.163 335.18 215.11 335.205 215.045C335.231 214.98 335.227 214.908 335.196 214.846C335.164 214.783 335.107 214.735 335.037 214.711L335.084 214.684C335.133 214.645 335.164 214.589 335.169 214.53C335.175 214.505 335.175 214.479 335.169 214.455L335.139 214.478H335.114C335.033 214.531 334.935 214.556 334.837 214.549H334.803C334.716 214.529 334.632 214.5 334.552 214.463L334.479 214.439H334.458H334.398H334.364H334.318H334.092C333.774 214.449 333.471 214.567 333.24 214.77C333.187 214.819 333.139 214.872 333.095 214.928C333.065 214.639 333.122 214.348 333.262 214.087H333.236H333.159L333.121 214.155C333.141 214.059 333.18 213.968 333.236 213.886H333.21C333.267 213.828 333.298 213.752 333.298 213.673C333.298 213.594 333.267 213.518 333.21 213.46C333.01 213.18 332.64 213.397 332.64 213.397C332.61 213.488 332.59 213.582 332.58 213.677L332.521 213.653C332.452 213.866 331.695 216.314 332.946 217.877C332.945 217.91 332.945 217.943 332.946 217.976V220.613L332.095 224.228L331.929 224.911L333.125 225.093L333.1 225.077ZM333.313 216.531C333.38 216.583 333.455 216.627 333.534 216.661C333.532 216.686 333.532 216.711 333.534 216.736V217.08L333.462 217.111C333.406 216.941 333.359 216.744 333.308 216.531H333.313Z" fill="url(#paint2_linear)"/>
</g>
<path d="M337.447 214.289C337.447 214.289 337.669 214.115 337.447 213.807C337.226 213.499 336.817 213.74 336.817 213.74C336.817 213.74 336.668 214.186 336.817 214.289C336.966 214.392 337.447 214.289 337.447 214.289Z" fill="#CA7070"/>
<path d="M335.156 225.799H336.178C336.175 225.844 336.181 225.89 336.198 225.932C336.215 225.974 336.242 226.012 336.276 226.044C336.413 226.19 336.702 226.368 336.562 226.439H335.156V225.799Z" fill="#00695C"/>
<path opacity="0.2" d="M336.2 226.044C336.165 226.012 336.139 225.974 336.122 225.932C336.105 225.89 336.098 225.844 336.102 225.799H336.174C336.17 225.844 336.177 225.89 336.194 225.932C336.211 225.974 336.238 226.012 336.272 226.044C336.408 226.19 336.698 226.368 336.557 226.439H336.485C336.613 226.368 336.336 226.19 336.2 226.044Z" fill="white"/>
<path d="M331.511 225.606L332.482 225.764C332.456 225.869 332.471 225.98 332.525 226.076C332.631 226.277 332.865 226.538 332.725 226.593L331.341 226.384L331.511 225.606Z" fill="#00695C"/>
<path d="M331.98 213.87C331.98 213.87 330.885 217.072 332.721 218.844L333.253 218.449C333.253 218.449 332.167 214.956 332.776 214.135C331.703 213.823 331.98 213.87 331.98 213.87Z" fill="#00695C"/>
<path d="M332.738 214.151C332.738 214.151 332.959 213.977 332.738 213.669C332.516 213.361 332.107 213.602 332.107 213.602C332.107 213.602 331.958 214.048 332.107 214.151C332.257 214.253 332.738 214.151 332.738 214.151Z" fill="#CA7070"/>
<path opacity="0.2" d="M332.44 226.06C332.386 225.964 332.371 225.854 332.397 225.748L331.511 225.614L332.482 225.764C332.456 225.869 332.471 225.98 332.525 226.076C332.631 226.277 332.865 226.538 332.725 226.593H332.665C332.759 226.498 332.542 226.253 332.44 226.06Z" fill="white"/>
<path d="M333.606 218.28H333.692C333.955 218.28 334.168 218.082 334.168 217.838V217.293C334.168 217.049 333.955 216.851 333.692 216.851H333.606C333.343 216.851 333.129 217.049 333.129 217.293V217.838C333.129 218.082 333.343 218.28 333.606 218.28Z" fill="#CA7070"/>
<path opacity="0.2" d="M333.176 218.659C333.176 218.659 332.103 215.209 332.687 214.36H332.772H332.797C332.188 215.181 333.274 218.674 333.274 218.674L332.742 219.069L332.695 219.022L333.176 218.659Z" fill="white"/>
<path d="M333.628 217.352C334.263 217.352 334.777 216.875 334.777 216.286C334.777 215.698 334.263 215.22 333.628 215.22C332.993 215.22 332.478 215.698 332.478 216.286C332.478 216.875 332.993 217.352 333.628 217.352Z" fill="#CA7070"/>
<path opacity="0.2" d="M334.037 217.798V217.332C334.041 217.298 334.041 217.264 334.037 217.23C334.262 217.123 334.442 216.951 334.551 216.739C334.66 216.528 334.69 216.289 334.638 216.06C334.586 215.831 334.453 215.624 334.261 215.471C334.07 215.319 333.829 215.229 333.577 215.216H333.641C333.898 215.216 334.149 215.296 334.352 215.444C334.555 215.592 334.698 215.798 334.759 216.03C334.82 216.263 334.795 216.507 334.688 216.725C334.581 216.942 334.398 217.12 334.169 217.23C334.173 217.264 334.173 217.298 334.169 217.332V217.798C334.169 217.926 334.114 218.048 334.016 218.139C333.919 218.229 333.787 218.28 333.649 218.28H333.585C333.711 218.264 333.826 218.207 333.909 218.118C333.992 218.029 334.038 217.916 334.037 217.798V217.798Z" fill="white"/>
<path d="M332.461 221.599C332.461 221.599 334.679 221.832 334.76 221.599C335.108 220.651 335.108 219.623 334.76 218.674C334.76 218.534 334.731 218.396 334.673 218.267C334.615 218.137 334.53 218.02 334.424 217.921C334.317 217.822 334.19 217.743 334.051 217.69C333.911 217.636 333.762 217.609 333.611 217.609V217.609C333.306 217.609 333.013 217.721 332.798 217.921C332.582 218.121 332.461 218.392 332.461 218.674V221.599Z" fill="#00695C"/>
<path d="M332.461 221.599L331.46 225.863H332.461L333.5 222.705C333.5 222.705 334.777 223.222 335.131 224.252C335.345 224.772 335.345 225.347 335.131 225.867H336.208V225.819C336.386 225.059 336.345 224.269 336.089 223.529C335.834 222.788 335.373 222.123 334.752 221.599" fill="#263238"/>
<path opacity="0.2" d="M334.611 221.599C334.959 220.651 334.959 219.623 334.611 218.674C334.611 218.404 334.499 218.143 334.299 217.946C334.099 217.749 333.826 217.63 333.534 217.613H333.606C333.911 217.613 334.204 217.725 334.419 217.925C334.635 218.125 334.756 218.396 334.756 218.678C335.104 219.627 335.104 220.655 334.756 221.603C334.726 221.686 334.424 221.71 334.045 221.706C334.373 221.698 334.611 221.67 334.611 221.599Z" fill="white"/>
<path d="M334.777 218.659C334.777 218.659 337.758 216.732 337.447 214.293H336.783C336.783 214.293 335.186 217.49 334.168 217.802C333.151 218.114 334.777 218.659 334.777 218.659Z" fill="#00695C"/>
<g opacity="0.2">
<path opacity="0.2" d="M333.479 222.772L332.461 225.878H332.312L333.351 222.72L333.479 222.772Z" fill="white"/>
<path opacity="0.2" d="M334.611 221.615H334.76C335.381 222.138 335.842 222.804 336.098 223.544C336.354 224.285 336.395 225.075 336.217 225.835V225.882H336.068V225.835C336.246 225.075 336.205 224.285 335.949 223.544C335.693 222.804 335.232 222.138 334.611 221.615Z" fill="white"/>
</g>
<path opacity="0.2" d="M337.337 214.317H337.447C337.745 216.76 334.777 218.682 334.777 218.682L334.705 218.655C335.037 218.43 337.613 216.602 337.337 214.317Z" fill="white"/>
<path d="M334.543 215.809C334.48 215.946 334.435 216.091 334.411 216.239C334.382 216.39 334.32 216.535 334.229 216.663C334.138 216.792 334.021 216.903 333.883 216.989C333.725 217.069 333.548 217.113 333.368 217.119C333.232 217.135 333.094 217.124 332.963 217.087C332.831 217.05 332.71 216.989 332.606 216.906C332.485 216.785 332.404 216.634 332.372 216.472C332.314 216.23 332.323 215.98 332.398 215.742C332.472 215.505 332.609 215.289 332.797 215.114C332.988 214.943 333.227 214.825 333.487 214.774C333.747 214.723 334.017 214.741 334.266 214.826C334.356 214.866 334.45 214.898 334.547 214.92C334.624 214.934 334.703 214.93 334.778 214.908C334.852 214.886 334.92 214.847 334.973 214.794C334.985 214.83 334.988 214.868 334.981 214.905C334.975 214.942 334.959 214.976 334.935 215.006C334.911 215.037 334.879 215.061 334.843 215.077C334.807 215.094 334.767 215.102 334.726 215.102C334.811 215.14 334.904 215.162 334.998 215.167C335.092 215.171 335.187 215.159 335.276 215.13C335.225 215.228 335.137 215.305 335.028 215.345C334.919 215.386 334.797 215.386 334.688 215.347C334.897 215.433 335.124 215.476 335.352 215.473C335.305 215.473 335.212 215.556 335.152 215.572C335.078 215.578 335.004 215.578 334.931 215.572C334.848 215.572 334.768 215.595 334.699 215.637C334.63 215.679 334.576 215.739 334.543 215.809Z" fill="#263238"/>
<g opacity="0.2">
<path opacity="0.2" d="M334.696 215.105C334.782 215.143 334.875 215.164 334.969 215.168C334.846 215.176 334.723 215.155 334.611 215.105C334.647 215.105 334.683 215.099 334.716 215.085C334.749 215.072 334.779 215.052 334.803 215.028C334.827 215.003 334.846 214.974 334.858 214.943C334.869 214.911 334.874 214.878 334.871 214.845L334.931 214.797C334.943 214.832 334.946 214.869 334.939 214.905C334.933 214.941 334.918 214.975 334.896 215.005C334.873 215.035 334.843 215.059 334.809 215.077C334.774 215.094 334.736 215.104 334.696 215.105V215.105Z" fill="white"/>
<path opacity="0.2" d="M334.467 214.92C334.369 214.898 334.275 214.866 334.185 214.826C334.05 214.776 333.906 214.748 333.76 214.743C333.936 214.737 334.111 214.765 334.275 214.826C334.365 214.866 334.459 214.898 334.556 214.92H334.594C334.552 214.926 334.509 214.926 334.467 214.92V214.92Z" fill="white"/>
<path opacity="0.2" d="M335.037 215.572C335.097 215.572 335.19 215.473 335.237 215.473C335.009 215.476 334.782 215.433 334.573 215.347C334.62 215.364 334.671 215.374 334.722 215.374C334.911 215.441 335.112 215.473 335.314 215.469C335.267 215.469 335.173 215.552 335.114 215.568C335.063 215.575 335.011 215.575 334.961 215.568L335.037 215.572Z" fill="white"/>
<path opacity="0.2" d="M333.291 217.119C333.472 217.113 333.648 217.069 333.806 216.989C333.944 216.903 334.062 216.792 334.152 216.663C334.243 216.535 334.305 216.39 334.334 216.239C334.359 216.091 334.403 215.946 334.467 215.809C334.5 215.745 334.551 215.691 334.615 215.652C334.679 215.613 334.752 215.591 334.828 215.588H334.901C334.825 215.591 334.751 215.613 334.687 215.652C334.624 215.691 334.572 215.745 334.539 215.809C334.475 215.946 334.431 216.091 334.407 216.239C334.377 216.39 334.315 216.535 334.225 216.663C334.134 216.792 334.016 216.903 333.879 216.989C333.72 217.069 333.544 217.113 333.364 217.119H333.291Z" fill="white"/>
<path opacity="0.2" d="M334.786 215.378C334.864 215.373 334.94 215.35 335.006 215.311C335.073 215.271 335.127 215.217 335.165 215.153L335.25 215.13C335.209 215.21 335.143 215.277 335.06 215.322C334.977 215.366 334.881 215.386 334.786 215.378V215.378Z" fill="white"/>
</g>
<path opacity="0.2" d="M337.375 214.289C337.375 214.289 337.596 214.115 337.375 213.807C337.346 213.762 337.305 213.725 337.257 213.697C337.209 213.67 337.155 213.653 337.098 213.649C337.167 213.642 337.236 213.653 337.298 213.681C337.359 213.709 337.411 213.753 337.447 213.807C337.669 214.115 337.447 214.289 337.447 214.289C337.307 214.317 337.165 214.332 337.021 214.332C337.14 214.327 337.259 214.312 337.375 214.289Z" fill="white"/>
<path d="M342.451 210.456C342.451 210.456 341.356 213.657 343.192 215.43L343.724 215.035C343.724 215.035 342.638 211.541 343.247 210.72C342.174 210.409 342.451 210.456 342.451 210.456Z" fill="#FF5252"/>
<path d="M343.209 210.74C343.209 210.74 343.43 210.566 343.209 210.259C342.987 209.951 342.578 210.191 342.578 210.191C342.578 210.191 342.429 210.637 342.578 210.74C342.727 210.843 343.209 210.74 343.209 210.74Z" fill="#F6B9AD"/>
<path d="M344.077 214.869H344.162C344.426 214.869 344.639 214.671 344.639 214.427V213.882C344.639 213.638 344.426 213.44 344.162 213.44H344.077C343.814 213.44 343.6 213.638 343.6 213.882V214.427C343.6 214.671 343.814 214.869 344.077 214.869Z" fill="#F6B9AD"/>
<path opacity="0.2" d="M343.647 215.26C343.647 215.26 342.574 211.81 343.158 210.961H343.243H343.268C342.659 211.782 343.745 215.276 343.745 215.276L343.213 215.67L343.166 215.623L343.647 215.26Z" fill="white"/>
<path d="M344.099 213.937C344.734 213.937 345.248 213.46 345.248 212.872C345.248 212.283 344.734 211.806 344.099 211.806C343.464 211.806 342.949 212.283 342.949 212.872C342.949 213.46 343.464 213.937 344.099 213.937Z" fill="#F6B9AD"/>
<path opacity="0.2" d="M344.507 214.384V213.922C344.511 213.888 344.511 213.853 344.507 213.819C344.732 213.712 344.913 213.54 345.022 213.329C345.131 213.117 345.161 212.878 345.109 212.649C345.057 212.42 344.924 212.213 344.732 212.061C344.54 211.908 344.3 211.819 344.047 211.806H344.111C344.369 211.806 344.62 211.886 344.823 212.033C345.026 212.181 345.169 212.388 345.23 212.62C345.291 212.852 345.266 213.097 345.159 213.314C345.052 213.532 344.869 213.71 344.639 213.819C344.643 213.853 344.643 213.888 344.639 213.922V214.387C344.639 214.515 344.585 214.638 344.487 214.728C344.39 214.818 344.258 214.869 344.12 214.869H344.056C344.182 214.854 344.298 214.796 344.381 214.706C344.465 214.617 344.51 214.502 344.507 214.384V214.384Z" fill="white"/>
<path d="M342.932 218.185C342.932 218.185 345.15 218.418 345.231 218.185C345.495 217.435 344.806 216.606 345.142 216.211C345.246 216.072 345.309 215.91 345.324 215.741C345.34 215.572 345.308 215.402 345.231 215.248C345.231 215.108 345.202 214.97 345.144 214.84C345.086 214.711 345.001 214.593 344.895 214.494C344.788 214.395 344.661 214.317 344.522 214.263C344.382 214.21 344.233 214.182 344.082 214.182V214.182C343.777 214.182 343.484 214.295 343.269 214.494C343.053 214.694 342.932 214.965 342.932 215.248V218.185Z" fill="#FF5252"/>
<path opacity="0.2" d="M345.146 216.227C345.25 216.088 345.313 215.925 345.329 215.756C345.344 215.588 345.312 215.418 345.236 215.264C345.236 214.981 345.114 214.71 344.899 214.51C344.683 214.31 344.391 214.198 344.086 214.198H344.013C344.305 214.215 344.578 214.334 344.779 214.532C344.979 214.729 345.09 214.989 345.091 215.26C345.167 215.414 345.2 215.584 345.184 215.752C345.168 215.921 345.105 216.084 345.001 216.223C344.644 216.618 345.355 217.431 345.091 218.197C345.065 218.268 344.835 218.295 344.533 218.299C344.908 218.299 345.21 218.28 345.24 218.197C345.5 217.435 344.788 216.622 345.146 216.227Z" fill="white"/>
<path d="M344.759 218.118C345.614 219.372 345.947 220.872 345.696 222.338V222.385H345.006C345.144 221.854 345.144 221.301 345.006 220.77C344.875 220.152 344.501 219.601 343.958 219.223L343.29 222.381H342.647L343.29 218.118H344.759Z" fill="#F6B9AD"/>
<path d="M348.664 211.984C348.664 211.984 348.932 211.881 348.817 211.522C348.702 211.162 348.238 211.285 348.238 211.285C348.238 211.285 347.952 211.68 348.063 211.81C348.174 211.94 348.664 211.984 348.664 211.984Z" fill="#F6B9AD"/>
<path d="M344.725 215.434C344.725 215.434 348.17 214.399 348.659 211.984L348.02 211.802C348.02 211.802 345.466 214.427 344.409 214.447C343.353 214.466 344.725 215.434 344.725 215.434Z" fill="#FF5252"/>
<path opacity="0.2" d="M348.54 211.987L348.646 212.019C348.157 214.435 344.712 215.469 344.712 215.469L344.652 215.426C345.057 215.291 348.084 214.241 348.54 211.987Z" fill="white"/>
<g opacity="0.2">
<path opacity="0.2" d="M343.801 219.219L343.132 222.377H343.281L343.928 219.306C343.887 219.275 343.845 219.246 343.801 219.219V219.219Z" fill="white"/>
<path opacity="0.2" d="M344.759 218.118H344.61C345.465 219.372 345.798 220.872 345.546 222.338V222.385H345.683V222.338C345.938 220.874 345.61 219.374 344.759 218.118V218.118Z" fill="white"/>
</g>
<path opacity="0.2" d="M348.587 211.948C348.587 211.948 348.855 211.845 348.74 211.486C348.726 211.436 348.7 211.389 348.663 211.35C348.626 211.311 348.579 211.28 348.527 211.261C348.595 211.273 348.658 211.302 348.708 211.345C348.759 211.388 348.795 211.444 348.812 211.506C348.927 211.861 348.659 211.968 348.659 211.968C348.515 211.957 348.372 211.932 348.233 211.893C348.349 211.92 348.468 211.939 348.587 211.948V211.948Z" fill="white"/>
<path d="M342.932 218.07L341.535 220.802C342.352 220.839 343.164 220.93 343.967 221.074C345.512 221.347 346.249 220.68 346.249 220.68L345.257 218.07H342.932Z" fill="#263238"/>
<path d="M343.302 222.369C343.302 222.369 344.039 222.507 343.89 222.764H342.566L342.638 222.369H343.302Z" fill="#FF5252"/>
<path d="M345.657 222.369C345.657 222.369 346.394 222.507 346.245 222.764H344.92L344.993 222.369H345.657Z" fill="#FF5252"/>
<path d="M345.142 211.995C345.142 211.995 343.375 214.317 344.184 215.272L341.02 215.205C341.02 215.205 341.901 209.947 345.142 211.995Z" fill="#FCCC63"/>
<path opacity="0.2" d="M345.142 211.995C344.779 211.746 344.354 211.586 343.907 211.53C344.211 211.62 344.498 211.753 344.759 211.924C344.759 211.924 342.992 214.245 343.801 215.201L341.016 215.142V215.201L344.18 215.268C343.375 214.317 345.142 211.995 345.142 211.995Z" fill="white"/>
<path opacity="0.2" d="M345.257 218.07H345.036L346.032 220.664C345.62 220.978 345.101 221.146 344.567 221.138C345.18 221.193 345.792 221.023 346.27 220.664L345.257 218.07Z" fill="white"/>
<path opacity="0.2" d="M343.302 222.369H343.153C343.153 222.369 343.89 222.507 343.741 222.764H343.89C344.039 222.503 343.302 222.369 343.302 222.369Z" fill="white"/>
<path opacity="0.2" d="M345.657 222.369H345.508C345.508 222.369 346.245 222.507 346.096 222.764H346.245C346.394 222.503 345.657 222.369 345.657 222.369Z" fill="white"/>
</g>
<path d="M891.798 281C891.798 281 875.033 211.225 811.394 217.52C785.298 193.5 763.072 212.976 755.798 202C746.745 188.373 724.594 172.674 712.066 169.593C691.659 164.571 662.536 169.364 632.812 214.372C578.069 297.265 565.851 255.5 563.798 255.5C561.746 255.5 515.798 281 515.798 281H891.798Z" fill="#086972"/>
<path d="M1066.8 279C1066.8 279 1050.03 209.225 986.394 215.52C960.298 191.5 938.072 210.976 930.798 200C921.745 186.373 899.594 170.674 887.066 167.593C866.659 162.571 837.536 167.364 807.812 212.372C753.07 295.265 740.851 253.5 738.798 253.5C736.746 253.5 690.798 279 690.798 279H1066.8Z" fill="#086972"/>
<path d="M1323.8 281C1323.8 281 1311.3 261 1242.3 245.981C1216.2 221.961 1187.07 256.957 1179.8 245.98C1170.74 232.353 1148.83 220.602 1136.3 217.52C1115.89 212.498 1106.28 188.628 1061.3 208C1006.56 290.893 905.298 198.48 984.298 245.981C982.245 245.981 947.798 281 947.798 281H1323.8Z" fill="#086972"/>
<g clip-path="url(#clip1)">
<g opacity="0.5">
<path opacity="0.5" d="M487.811 290.149C485.758 290.149 438.543 271.119 383.804 321.231C354.078 348.44 324.96 351.338 304.555 348.302C292.014 346.439 280.564 340.763 271.494 332.54C264.199 325.901 246.545 316.853 205.181 319.324C141.546 323.129 124.781 280.948 124.781 280.948H500.781C500.781 280.948 489.851 290.149 487.811 290.149Z" fill="url(#paint3_linear)"/>
</g>
<path d="M124.798 280C124.798 280 141.563 322.182 205.198 318.377C246.562 315.894 264.221 324.953 271.494 331.589C280.547 339.827 291.993 345.488 304.52 347.351C324.926 350.386 354.048 347.489 383.77 320.279C438.509 270.167 485.724 289.198 487.777 289.198C489.829 289.198 500.777 280 500.777 280H124.798Z" fill="#086972"/>
<path opacity="0.02" d="M124.798 280C124.798 280 141.563 322.182 205.198 318.377C246.562 315.894 264.221 324.953 271.494 331.589C280.547 339.827 291.993 345.488 304.52 347.351C324.926 350.386 354.048 347.489 383.77 320.279C438.509 270.167 485.724 289.198 487.777 289.198C489.829 289.198 500.777 280 500.777 280H124.798Z" fill="#086972"/>
<path d="M220.131 327.854H193.347V309.408H220.131V327.854Z" fill="black"/>
<path d="M191.013 328.605L205.981 342.48C206.089 342.58 206.218 342.66 206.36 342.715C206.502 342.769 206.654 342.797 206.807 342.797C206.961 342.797 207.112 342.769 207.254 342.715C207.396 342.66 207.525 342.58 207.633 342.48L222.482 328.715C222.645 328.564 222.756 328.371 222.802 328.162C222.847 327.952 222.824 327.735 222.736 327.537C222.648 327.339 222.499 327.17 222.307 327.051C222.116 326.932 221.89 326.868 221.66 326.868L191.852 326.757C191.62 326.754 191.392 326.816 191.198 326.934C191.004 327.052 190.852 327.221 190.762 327.419C190.672 327.617 190.648 327.836 190.692 328.047C190.737 328.259 190.849 328.453 191.013 328.605V328.605Z" fill="black"/>
<path opacity="0.05" d="M191.013 328.605L205.981 342.48C206.089 342.58 206.218 342.66 206.36 342.715C206.502 342.769 206.654 342.797 206.807 342.797C206.961 342.797 207.112 342.769 207.254 342.715C207.396 342.66 207.525 342.58 207.633 342.48L222.482 328.715C222.645 328.564 222.756 328.371 222.802 328.162C222.847 327.952 222.824 327.735 222.736 327.537C222.648 327.339 222.499 327.17 222.307 327.051C222.116 326.932 221.89 326.868 221.66 326.868L191.852 326.757C191.62 326.754 191.392 326.816 191.198 326.934C191.004 327.052 190.852 327.221 190.762 327.419C190.672 327.617 190.648 327.836 190.692 328.047C190.737 328.259 190.849 328.453 191.013 328.605Z" fill="black"/>
<path d="M206.394 317.729H206.931C207.732 317.729 208.501 317.434 209.068 316.909C209.635 316.383 209.954 315.67 209.954 314.927V309.4H203.371V314.927C203.371 315.67 203.689 316.383 204.256 316.909C204.823 317.434 205.592 317.729 206.394 317.729V317.729Z" fill="white"/>
<path d="M201.727 325.498H195.442V321.061H201.727V325.498Z" fill="white"/>
<path d="M198.883 325.498H198.282V321.061H198.883V325.498Z" fill="black"/>
<path d="M218.483 325.498H212.198V321.061H218.483V325.498Z" fill="white"/>
<path d="M215.643 325.498H215.042V321.061H215.643V325.498Z" fill="black"/>
</g>
<path d="M876.798 280C876.798 280 860.033 349.775 796.394 343.481C770.298 367.5 748.072 348.024 740.798 359C731.745 372.627 709.594 388.326 697.066 391.408C676.659 396.429 647.536 391.636 617.812 346.628C563.069 263.735 550.851 305.5 548.798 305.5C546.746 305.5 500.798 280 500.798 280H876.798Z" fill="#086972"/>
<path d="M1051.8 282C1051.8 282 1035.03 351.775 971.394 345.481C945.298 369.5 923.072 350.024 915.798 361C906.745 374.627 884.594 390.326 872.066 393.408C851.659 398.429 822.536 393.636 792.812 348.628C738.07 265.735 725.851 307.5 723.798 307.5C721.746 307.5 675.798 282 675.798 282H1051.8Z" fill="#086972"/>
<path d="M1056.8 260C1056.8 260 1040.03 329.775 976.395 323.48C950.298 347.5 928.072 328.024 920.798 339C911.745 352.627 889.595 368.326 877.066 371.407C856.66 376.429 827.536 371.636 797.812 326.628C743.07 243.735 730.851 285.5 728.798 285.5C726.746 285.5 680.798 260 680.798 260H1056.8Z" fill="#086972"/>
<path d="M687.798 280C687.798 280 671.033 349.775 607.394 343.48C581.298 367.5 559.072 348.024 551.798 359C542.745 372.627 520.594 388.326 508.066 391.407C487.659 396.429 458.536 391.636 428.812 346.628C374.069 263.735 361.851 305.5 359.798 305.5C357.746 305.5 311.798 280 311.798 280H687.798Z" fill="#086972"/>
<path d="M501.798 290C501.798 290 485.211 361.627 422.25 355.166C396.431 379.823 374.441 359.83 367.245 371.097C358.288 385.086 336.373 401.201 323.978 404.365C303.789 409.52 225.706 488.203 196.298 442C142.138 356.906 -59.7018 386.5 17.2982 315C13.2982 325.397 101.298 303.5 124.798 280C148.298 256.5 501.798 290 501.798 290Z" fill="#086972"/>
<path d="M1323.8 281C1323.8 281 1366.8 298.48 1297.8 313.5C1271.7 337.52 1172.57 304.045 1165.3 315.021C1156.24 328.648 1134.33 340.4 1121.8 343.482C1101.39 348.503 1091.78 372.374 1046.8 353.001C992.056 270.109 890.798 362.521 969.798 315.021C967.746 315.021 933.298 280.001 933.298 280.001L1323.8 281Z" fill="#086972"/>
<path d="M1325.5 277.999C1325.5 277.999 1392 339.98 1323 355C1296.9 379.02 1173.27 365.024 1166 376C1156.95 389.627 1135.03 372.918 1122.5 376C1102.09 381.021 1093.49 369.372 1048.5 350C993.758 267.107 892.5 359.52 971.5 312.02C969.447 312.02 935 277 935 277L1325.5 277.999Z" fill="#086972"/>
<path d="M903.399 108.377C903.266 126.382 888.077 140.865 872.017 140.747C855.957 140.628 839.607 125.913 839.74 107.908C839.872 89.9025 856.443 75.4408 872.5 75.5592C888.558 75.6776 903.532 90.369 903.399 108.377Z" fill="#F85959"/>
<path d="M905.22 108.693C905.081 127.581 889.145 142.777 872.298 142.652C855.452 142.528 838.299 127.089 838.438 108.2C838.577 89.3121 855.956 74.1273 872.805 74.2515C889.655 74.3757 905.359 89.8044 905.22 108.693Z" fill="url(#paint4_linear)"/>
<path opacity="0.2" d="M839.827 106.598C839.957 88.8518 856.064 74.5297 871.895 74.2448C871.666 74.2431 871.437 74.2414 871.208 74.2397C855.151 74.1213 838.583 88.5941 838.45 106.599C838.317 124.605 854.667 139.32 870.725 139.438C870.954 139.44 871.183 139.442 871.412 139.443C855.581 138.898 839.696 124.353 839.827 106.598Z" fill="white"/>
<path opacity="0.2" d="M882.536 77.4627C882.536 77.4627 906.984 106.183 882.087 138.342L873.944 138.255C873.944 138.255 896.622 111.461 875.438 75.5808L879.445 76.411L882.536 77.4627Z" fill="white"/>
<path d="M865.977 154.765L863.528 141.363L871.601 141.052L871.5 154.806L877.022 154.847L880.094 141.115" stroke="#B3B3B3" stroke-miterlimit="10"/>
<path opacity="0.2" d="M860.663 78.1518C860.663 78.1518 835.797 106.08 860.217 138.602L868.36 138.635C868.36 138.635 846.078 111.751 867.789 76.1795L863.774 77.0605L860.663 78.1518Z" fill="white"/>
<path opacity="0.2" d="M874.894 76.8868C874.511 76.884 874.13 76.8812 873.746 76.9059C889.363 77.695 903.63 92.1227 903.5 109.699C903.37 127.275 888.893 141.491 873.277 142.05C873.661 142.069 874.044 142.083 874.425 142.086C890.482 142.204 905.673 127.721 905.806 109.716C905.939 91.7105 890.952 77.0052 874.894 76.8868Z" fill="black"/>
<path opacity="0.05" d="M875.615 75.5821L868.966 75.5331C866.793 75.5236 864.705 76.3721 863.157 77.8931C861.609 79.4142 860.727 81.4843 860.705 83.6514V83.6514C860.704 83.8384 860.702 84.02 860.723 84.2017C860.884 82.1368 861.823 80.2093 863.351 78.806C864.878 77.4027 866.881 76.6276 868.958 76.6363L875.606 76.6853C877.683 76.7073 879.675 77.5118 881.181 78.9374C882.688 80.3631 883.598 82.3043 883.729 84.3713C883.731 84.1898 883.754 84.0056 883.755 83.8213C883.765 81.6541 882.914 79.5712 881.389 78.0275C879.863 76.4838 877.788 75.6047 875.615 75.5821V75.5821Z" fill="black"/>
<path d="M882.367 137.856L861.606 137.703L861.556 144.452L882.317 144.605L882.367 137.856Z" fill="#F85959"/>
<path d="M875.725 151.562L867.736 151.503C863.577 151.473 860.18 154.81 860.15 158.958L860.14 160.295C860.109 164.443 863.456 167.83 867.615 167.861L875.604 167.92C879.763 167.95 883.16 164.613 883.191 160.465L883.2 159.128C883.231 154.98 879.884 151.593 875.725 151.562Z" fill="#F85959"/>
<path d="M875.278 144.354L868.053 144.301L868.034 146.818L875.259 146.871L875.278 144.354Z" fill="#F85959"/>
<path d="M605.128 206.888C605.31 224.893 590.377 239.639 574.317 239.802C558.257 239.964 541.653 225.537 541.471 207.532C541.288 189.527 557.604 174.778 573.661 174.616C589.718 174.453 604.946 188.881 605.128 206.888Z" fill="#F85959"/>
<path d="M606.955 207.172C607.146 226.06 591.478 241.532 574.632 241.702C557.786 241.873 540.366 226.736 540.175 207.848C539.984 188.96 557.094 173.473 573.943 173.303C590.792 173.132 606.764 188.284 606.955 207.172Z" fill="url(#paint5_linear)"/>
<path opacity="0.2" d="M541.535 206.222C541.355 188.475 557.208 173.874 573.033 173.312C572.804 173.314 572.575 173.317 572.346 173.319C556.289 173.481 539.976 188.242 540.158 206.247C540.341 224.251 556.945 238.679 573.003 238.516C573.231 238.514 573.46 238.512 573.689 238.509C557.851 238.24 541.714 223.976 541.535 206.222Z" fill="white"/>
<path opacity="0.2" d="M583.728 176.343C583.728 176.343 608.675 204.632 584.344 237.222L576.2 237.277C576.2 237.277 598.406 210.09 576.598 174.586L580.62 175.346L583.728 176.343Z" fill="white"/>
<path d="M568.524 253.924L565.84 240.566L573.907 240.114L574.046 253.868L579.568 253.812L582.399 240.028" stroke="#B3B3B3" stroke-miterlimit="10"/>
<path opacity="0.2" d="M561.87 177.415C561.87 177.415 537.496 205.773 562.482 237.864L570.624 237.754C570.624 237.754 547.875 211.264 568.961 175.318L564.962 176.269L561.87 177.415Z" fill="white"/>
<path opacity="0.2" d="M576.077 175.901C575.694 175.905 575.313 175.909 574.93 175.94C590.558 176.456 605.075 190.632 605.253 208.208C605.431 225.784 591.204 240.251 575.6 241.082C575.984 241.095 576.367 241.102 576.748 241.098C592.805 240.936 607.741 226.19 607.559 208.185C607.377 190.18 592.135 175.739 576.077 175.901Z" fill="black"/>
<path opacity="0.05" d="M576.775 174.584L570.127 174.651C567.954 174.68 565.881 175.565 564.36 177.113C562.839 178.661 561.993 180.746 562.009 182.913V182.913C562.011 183.1 562.012 183.282 562.036 183.463C562.162 181.395 563.067 179.452 564.569 178.022C566.072 176.592 568.061 175.782 570.138 175.755L576.786 175.687C578.863 175.673 580.868 176.443 582.4 177.842C583.931 179.241 584.875 181.166 585.042 183.23C585.04 183.049 585.061 182.864 585.059 182.68C585.03 180.513 584.143 178.445 582.591 176.928C581.039 175.411 578.948 174.569 576.775 174.584V174.584Z" fill="black"/>
<path d="M584.615 236.731L563.854 236.941L563.923 243.689L584.683 243.479L584.615 236.731Z" fill="#F85959"/>
<path d="M578.214 250.551L570.225 250.632C566.066 250.674 562.729 254.07 562.771 258.218L562.784 259.555C562.826 263.703 566.232 267.031 570.391 266.989L578.379 266.908C582.538 266.866 585.876 263.469 585.834 259.322L585.821 257.985C585.779 253.837 582.373 250.509 578.214 250.551Z" fill="#F85959"/>
<path d="M577.641 243.352L570.416 243.425L570.441 245.942L577.666 245.869L577.641 243.352Z" fill="#F85959"/>
<defs>
<linearGradient id="paint0_linear" x1="327.798" y1="280.049" x2="327.798" y2="211.735" gradientUnits="userSpaceOnUse">
<stop stop-color="#808080" stop-opacity="0.25"/>
<stop offset="0.54" stop-color="#808080" stop-opacity="0.12"/>
<stop offset="1" stop-color="#808080" stop-opacity="0.1"/>
</linearGradient>
<linearGradient id="paint1_linear" x1="1192.89" y1="217.728" x2="1192.89" y2="217.728" gradientUnits="userSpaceOnUse">
<stop stop-color="#808080" stop-opacity="0.25"/>
<stop offset="0.54" stop-color="#808080" stop-opacity="0.12"/>
<stop offset="1" stop-color="#808080" stop-opacity="0.1"/>
</linearGradient>
<linearGradient id="paint2_linear" x1="-14655.4" y1="8036.08" x2="-14655.4" y2="7684.32" gradientUnits="userSpaceOnUse">
<stop stop-color="#808080" stop-opacity="0.25"/>
<stop offset="0.54" stop-color="#808080" stop-opacity="0.12"/>
<stop offset="1" stop-color="#808080" stop-opacity="0.1"/>
</linearGradient>
<linearGradient id="paint3_linear" x1="312.798" y1="280.951" x2="312.798" y2="349.265" gradientUnits="userSpaceOnUse">
<stop stop-color="#808080" stop-opacity="0.25"/>
<stop offset="0.54" stop-color="#808080" stop-opacity="0.12"/>
<stop offset="1" stop-color="#808080" stop-opacity="0.1"/>
</linearGradient>
<linearGradient id="paint4_linear" x1="61424" y1="31492.8" x2="61549.4" y2="14485.6" gradientUnits="userSpaceOnUse">
<stop stop-color="#808080" stop-opacity="0.25"/>
<stop offset="0.54" stop-color="#808080" stop-opacity="0.12"/>
<stop offset="1" stop-color="#808080" stop-opacity="0.1"/>
</linearGradient>
<linearGradient id="paint5_linear" x1="61665.3" y1="30528.3" x2="61493.2" y2="13521.5" gradientUnits="userSpaceOnUse">
<stop stop-color="#808080" stop-opacity="0.25"/>
<stop offset="0.54" stop-color="#808080" stop-opacity="0.12"/>
<stop offset="1" stop-color="#808080" stop-opacity="0.1"/>
</linearGradient>
<clipPath id="clip0">
<rect width="376" height="281" fill="white" transform="translate(139.798)"/>
</clipPath>
<clipPath id="clip1">
<rect width="376" height="281" fill="white" transform="matrix(1 0 0 -1 124.798 561)"/>
</clipPath>
</defs>
</svg>
