<svg width="768" height="1024" viewBox="0 0 768 1024" fill="none" xmlns="http://www.w3.org/2000/svg">
<g clip-path="url(#clip0)">
<rect width="768" height="1024" fill="white"/>
<g clip-path="url(#clip1)">
<path d="M443.074 1081.62C438.656 1142.2 660.139 1204.03 936.601 1204.03C1213.06 1204.03 1653.33 1084.61 1444.23 1081.62C1041.32 1075.86 903.253 1015.03 943.653 971.911C1016.01 894.685 451.777 962.359 443.074 1081.62Z" fill="#3F3D56"/>
<path d="M759.695 992.351C761.517 992.351 762.991 991.812 762.991 991.149C762.991 990.484 761.517 989.946 759.695 989.946C757.874 989.946 756.397 990.484 756.397 991.149C756.397 991.812 757.874 992.351 759.695 992.351Z" fill="white"/>
<path d="M510.2 537.196C505.781 597.768 727.264 659.6 1003.73 659.6C1280.19 659.6 1720.45 540.186 1511.36 537.196C1108.45 531.434 970.379 470.604 1010.78 427.483C1083.13 350.256 518.903 417.93 510.2 537.196Z" fill="#3F3D56"/>
<path d="M722.929 567.373L719.559 566.591L721.705 565.363L720.783 565.149L718.64 566.378L715.27 565.597L714.684 565.932L718.054 566.714L715.909 567.943L716.83 568.156L718.973 566.927L722.343 567.709L722.929 567.373Z" fill="#6C63FF"/>
<path d="M744.368 602.843L740.995 602.061L743.141 600.832L742.222 600.619L740.079 601.848L736.706 601.066L736.12 601.4L739.493 602.182L737.347 603.411L738.266 603.624L740.412 602.396L743.782 603.177L744.368 602.843Z" fill="#6C63FF"/>
<path d="M675.106 500.644L671.736 499.862L673.881 498.634L672.96 498.421L670.817 499.649L667.447 498.868L666.861 499.202L670.231 499.984L668.085 501.213L669.007 501.426L671.15 500.197L674.52 500.979L675.106 500.644Z" fill="#6C63FF"/>
<path d="M594.303 536.895C597.034 536.895 599.25 536.087 599.25 535.091C599.25 534.096 597.034 533.288 594.303 533.288C591.569 533.288 589.354 534.096 589.354 535.091C589.354 536.087 591.569 536.895 594.303 536.895Z" fill="#6C63FF"/>
<path d="M714.684 529.681C716.506 529.681 717.983 529.143 717.983 528.478C717.983 527.815 716.506 527.276 714.684 527.276C712.863 527.276 711.386 527.815 711.386 528.478C711.386 529.143 712.863 529.681 714.684 529.681Z" fill="#FF6584"/>
<path d="M149.32 443.464H623.827V516.143H149.32V443.464Z" fill="#C4C4C4"/>
<path d="M524.088 808.089C519.669 868.66 741.153 930.493 1017.61 930.493C1294.07 930.493 1734.34 811.079 1525.24 808.089C1122.34 802.327 984.267 741.497 1024.67 698.376C1097.02 621.149 532.791 688.823 524.088 808.089Z" fill="#3F3D56"/>
<path d="M736.817 838.266L733.447 837.484L735.593 836.256L734.671 836.042L732.528 837.271L729.158 836.49L728.572 836.824L731.942 837.607L729.797 838.836L730.718 839.049L732.861 837.82L736.232 838.602L736.817 838.266Z" fill="#6C63FF"/>
<path d="M758.256 873.736L754.883 872.954L757.029 871.725L756.11 871.512L753.966 872.741L750.594 871.959L750.008 872.293L753.381 873.075L751.235 874.304L752.154 874.517L754.3 873.289L757.67 874.07L758.256 873.736Z" fill="#6C63FF"/>
<path d="M688.994 771.537L685.624 770.754L687.769 769.527L686.848 769.314L684.705 770.542L681.335 769.761L680.749 770.095L684.119 770.877L681.973 772.106L682.895 772.319L685.038 771.09L688.408 771.872L688.994 771.537Z" fill="#6C63FF"/>
<path d="M608.191 807.787C610.922 807.787 613.138 806.98 613.138 805.984C613.138 804.989 610.922 804.181 608.191 804.181C605.457 804.181 603.242 804.989 603.242 805.984C603.242 806.98 605.457 807.787 608.191 807.787Z" fill="#6C63FF"/>
<path d="M728.572 800.574C730.394 800.574 731.871 800.036 731.871 799.371C731.871 798.708 730.394 798.169 728.572 798.169C726.751 798.169 725.274 798.708 725.274 799.371C725.274 800.036 726.751 800.574 728.572 800.574Z" fill="#FF6584"/>
<path d="M577.598 264.982C573.179 325.553 794.661 387.385 1071.12 387.385C1347.58 387.385 1787.85 267.972 1578.75 264.982C1175.85 259.22 1037.77 198.39 1078.17 155.269C1150.53 78.0416 586.299 145.716 577.598 264.982Z" fill="#3F3D56"/>
<path d="M758.434 228.43L755.064 227.647L757.209 226.42L756.288 226.207L754.145 227.435L750.775 226.654L750.189 226.988L753.559 227.77L751.413 228.999L752.335 229.212L754.478 227.983L757.848 228.765L758.434 228.43Z" fill="#6C63FF"/>
<path d="M677.631 264.68C680.362 264.68 682.578 263.873 682.578 262.877C682.578 261.881 680.362 261.074 677.631 261.074C674.898 261.074 672.682 261.881 672.682 262.877C672.682 263.873 674.898 264.68 677.631 264.68Z" fill="#6C63FF"/>
<path d="M-420.296 973.267C-424.715 1033.84 -203.232 1095.67 73.229 1095.67C349.689 1095.67 789.957 976.258 580.859 973.267C177.952 967.506 39.882 906.675 80.2818 863.554C152.634 786.328 -411.593 854.002 -420.296 973.267Z" fill="#3F3D56"/>
<path d="M198.102 1014.27L194.731 1013.48L196.875 1012.25L195.956 1012.04L193.813 1013.27L190.442 1012.49L189.857 1012.82L193.227 1013.61L191.081 1014.84L192 1015.05L194.146 1013.82L197.516 1014.6L198.102 1014.27Z" fill="#6C63FF"/>
<path d="M493.282 1009.46L489.912 1008.67L492.057 1007.45L491.136 1007.23L488.993 1008.46L485.623 1007.68L485.037 1008.01L488.407 1008.8L486.261 1010.03L487.183 1010.24L489.326 1009.01L492.696 1009.79L493.282 1009.46Z" fill="#6C63FF"/>
<path d="M26.5992 950.229L21.8796 949.135L24.8826 947.415L23.5963 947.116L20.5933 948.837L15.8753 947.741L15.0559 948.212L19.7755 949.306L16.7725 951.026L18.0587 951.325L21.0615 949.605L25.7795 950.699L26.5992 950.229Z" fill="white"/>
<path d="M0.214264 906.838C2.9465 906.838 5.1614 906.03 5.1614 905.034C5.1614 904.039 2.9465 903.232 0.214264 903.232C-2.51797 903.232 -4.73287 904.039 -4.73287 905.034C-4.73287 906.03 -2.51797 906.838 0.214264 906.838Z" fill="#6C63FF"/>
<path d="M389.393 992.805C392.124 992.805 394.339 991.997 394.339 991.001C394.339 990.006 392.124 989.198 389.393 989.198C386.659 989.198 384.444 990.006 384.444 991.001C384.444 991.997 386.659 992.805 389.393 992.805Z" fill="#6C63FF"/>
<path d="M61.2294 999.418C63.9616 999.418 66.1765 998.61 66.1765 997.615C66.1765 996.618 63.9616 995.811 61.2294 995.811C58.4971 995.811 56.2822 996.618 56.2822 997.615C56.2822 998.61 58.4971 999.418 61.2294 999.418Z" fill="#6C63FF"/>
<path d="M176.663 976.573C179.397 976.573 181.61 975.766 181.61 974.77C181.61 973.773 179.397 972.966 176.663 972.966C173.932 972.966 171.716 973.773 171.716 974.77C171.716 975.766 173.932 976.573 176.663 976.573Z" fill="white"/>
<path d="M-353.171 428.839C-357.59 489.41 -136.107 551.243 140.354 551.243C416.815 551.243 857.083 431.829 647.985 428.839C245.078 423.077 107.008 362.247 147.407 319.126C219.76 241.899 -344.468 309.573 -353.171 428.839Z" fill="#3F3D56"/>
<path d="M14.5696 380.866L11.199 380.083L13.3444 378.854L12.4243 378.642L10.2805 379.871L6.90989 379.088L6.32451 379.423L9.69512 380.205L7.54966 381.434L8.46997 381.647L10.6136 380.418L13.9842 381.2L14.5696 380.866Z" fill="#6C63FF"/>
<path d="M265.227 469.837L261.857 469.055L264 467.826L263.081 467.613L260.938 468.842L257.568 468.06L256.982 468.396L260.352 469.178L258.207 470.407L259.125 470.62L261.271 469.391L264.641 470.173L265.227 469.837Z" fill="#6C63FF"/>
<path d="M162.985 516.728L159.614 515.946L161.76 514.717L160.839 514.504L158.696 515.733L155.325 514.951L154.74 515.287L158.11 516.069L155.965 517.298L156.885 517.511L159.029 516.282L162.399 517.064L162.985 516.728Z" fill="#6C63FF"/>
<path d="M560.407 465.029L557.037 464.246L559.183 463.017L558.262 462.805L556.118 464.034L552.748 463.251L552.162 463.586L555.532 464.368L553.387 465.597L554.308 465.811L556.451 464.582L559.822 465.363L560.407 465.029Z" fill="#6C63FF"/>
<path d="M93.7245 405.801L89.0049 404.707L92.0079 402.986L90.7217 402.688L87.7186 404.408L83.0006 403.313L82.1812 403.783L86.9008 404.877L83.8978 406.598L85.1841 406.896L88.1869 405.176L92.9049 406.27L93.7245 405.801Z" fill="white"/>
<path d="M67.3396 362.409C70.0718 362.409 72.2867 361.602 72.2867 360.605C72.2867 359.61 70.0718 358.803 67.3396 358.803C64.6073 358.803 62.3924 359.61 62.3924 360.605C62.3924 361.602 64.6073 362.409 67.3396 362.409Z" fill="#6C63FF"/>
<path d="M21.1659 472.423C23.8982 472.423 26.1131 471.616 26.1131 470.62C26.1131 469.623 23.8982 468.816 21.1659 468.816C18.4337 468.816 16.2188 469.623 16.2188 470.62C16.2188 471.616 18.4337 472.423 21.1659 472.423Z" fill="#6C63FF"/>
<path d="M17.8678 433.949C19.6894 433.949 21.1659 433.41 21.1659 432.746C21.1659 432.082 19.6894 431.544 17.8678 431.544C16.0463 431.544 14.5696 432.082 14.5696 432.746C14.5696 433.41 16.0463 433.949 17.8678 433.949Z" fill="#6C63FF"/>
<path d="M355.925 486.851C357.746 486.851 359.223 486.313 359.223 485.648C359.223 484.985 357.746 484.446 355.925 484.446C354.103 484.446 352.626 484.985 352.626 485.648C352.626 486.313 354.103 486.851 355.925 486.851Z" fill="#FF6584"/>
<path d="M57.4453 323.934C59.2667 323.934 60.7435 323.397 60.7435 322.732C60.7435 322.069 59.2667 321.531 57.4453 321.531C55.6239 321.531 54.1472 322.069 54.1472 322.732C54.1472 323.397 55.6239 323.934 57.4453 323.934Z" fill="#FF6584"/>
<path d="M456.518 448.376C459.249 448.376 461.464 447.569 461.464 446.572C461.464 445.577 459.249 444.77 456.518 444.77C453.784 444.77 451.569 445.577 451.569 446.572C451.569 447.569 453.784 448.376 456.518 448.376Z" fill="#6C63FF"/>
<path d="M128.355 454.988C131.087 454.988 133.302 454.181 133.302 453.186C133.302 452.19 131.087 451.382 128.355 451.382C125.622 451.382 123.408 452.19 123.408 453.186C123.408 454.181 125.622 454.988 128.355 454.988Z" fill="#6C63FF"/>
<path d="M44.2529 501.881C53.3604 501.881 60.7435 499.189 60.7435 495.868C60.7435 492.549 53.3604 489.857 44.2529 489.857C35.1454 489.857 27.7623 492.549 27.7623 495.868C27.7623 499.189 35.1454 501.881 44.2529 501.881Z" fill="#6C63FF"/>
<path d="M243.789 432.145C246.522 432.145 248.735 431.338 248.735 430.341C248.735 429.345 246.522 428.537 243.789 428.537C241.057 428.537 238.842 429.345 238.842 430.341C238.842 431.338 241.057 432.145 243.789 432.145Z" fill="white"/>
<path d="M-339.283 699.732C-343.702 760.303 -122.219 822.136 154.242 822.136C430.702 822.136 870.97 702.722 661.873 699.732C258.966 693.97 120.895 633.14 161.295 590.019C233.648 512.792 -330.58 580.466 -339.283 699.732Z" fill="#3F3D56"/>
<path d="M28.4576 651.758L25.087 650.976L27.2324 649.747L26.3123 649.534L24.1685 650.763L20.7979 649.981L20.2125 650.315L23.5831 651.098L21.4377 652.327L22.358 652.539L24.5016 651.31L27.8722 652.093L28.4576 651.758Z" fill="#6C63FF"/>
<path d="M279.115 740.73L275.745 739.948L277.888 738.719L276.969 738.506L274.826 739.735L271.456 738.953L270.87 739.289L274.24 740.071L272.095 741.3L273.013 741.512L275.159 740.284L278.529 741.066L279.115 740.73Z" fill="#6C63FF"/>
<path d="M176.874 787.621L173.501 786.839L175.647 785.61L174.728 785.397L172.585 786.626L169.213 785.844L168.628 786.179L171.998 786.962L169.853 788.191L170.773 788.403L172.916 787.174L176.288 787.957L176.874 787.621Z" fill="#6C63FF"/>
<path d="M574.295 735.922L570.925 735.139L573.071 733.91L572.149 733.698L570.006 734.926L566.636 734.144L566.05 734.478L569.42 735.261L567.275 736.49L568.196 736.704L570.339 735.475L573.71 736.256L574.295 735.922Z" fill="#6C63FF"/>
<path d="M107.612 676.694L102.893 675.6L105.896 673.879L104.61 673.581L101.607 675.301L96.8886 674.206L96.0692 674.676L100.789 675.77L97.7858 677.491L99.072 677.789L102.075 676.069L106.793 677.163L107.612 676.694Z" fill="white"/>
<path d="M81.2276 633.302C83.9598 633.302 86.1747 632.495 86.1747 631.498C86.1747 630.503 83.9598 629.696 81.2276 629.696C78.4953 629.696 76.2804 630.503 76.2804 631.498C76.2804 632.495 78.4953 633.302 81.2276 633.302Z" fill="#6C63FF"/>
<path d="M35.0539 743.316C37.7862 743.316 40.0011 742.509 40.0011 741.512C40.0011 740.516 37.7862 739.709 35.0539 739.709C32.3217 739.709 30.1068 740.516 30.1068 741.512C30.1068 742.509 32.3217 743.316 35.0539 743.316Z" fill="#6C63FF"/>
<path d="M31.7557 704.842C33.5774 704.842 35.0539 704.302 35.0539 703.639C35.0539 702.974 33.5774 702.436 31.7557 702.436C29.9343 702.436 28.4576 702.974 28.4576 703.639C28.4576 704.302 29.9343 704.842 31.7557 704.842Z" fill="#6C63FF"/>
<path d="M369.813 757.744C371.634 757.744 373.111 757.206 373.111 756.541C373.111 755.878 371.634 755.339 369.813 755.339C367.991 755.339 366.514 755.878 366.514 756.541C366.514 757.206 367.991 757.744 369.813 757.744Z" fill="#FF6584"/>
<path d="M71.3333 594.827C73.1547 594.827 74.6315 594.29 74.6315 593.625C74.6315 592.962 73.1547 592.424 71.3333 592.424C69.5119 592.424 68.0352 592.962 68.0352 593.625C68.0352 594.29 69.5119 594.827 71.3333 594.827Z" fill="#FF6584"/>
<path d="M470.406 719.269C473.137 719.269 475.352 718.461 475.352 717.465C475.352 716.47 473.137 715.663 470.406 715.663C467.672 715.663 465.457 716.47 465.457 717.465C465.457 718.461 467.672 719.269 470.406 719.269Z" fill="#6C63FF"/>
<path d="M142.243 725.881C144.975 725.881 147.19 725.074 147.19 724.079C147.19 723.083 144.975 722.275 142.243 722.275C139.51 722.275 137.296 723.083 137.296 724.079C137.296 725.074 139.51 725.881 142.243 725.881Z" fill="#6C63FF"/>
<path d="M58.1409 772.773C67.2484 772.773 74.6315 770.082 74.6315 766.761C74.6315 763.442 67.2484 760.75 58.1409 760.75C49.0334 760.75 41.6503 763.442 41.6503 766.761C41.6503 770.082 49.0334 772.773 58.1409 772.773Z" fill="#6C63FF"/>
<path d="M257.677 703.038C260.41 703.038 262.623 702.23 262.623 701.234C262.623 700.238 260.41 699.43 257.677 699.43C254.945 699.43 252.73 700.238 252.73 701.234C252.73 702.23 254.945 703.038 257.677 703.038Z" fill="white"/>
<path d="M315.768 64.1241C311.349 124.696 532.833 186.528 809.294 186.528C1085.75 186.528 1526.02 67.1142 1316.92 64.1241C914.017 58.3627 775.947 -2.46738 816.347 -45.5888C888.699 -122.816 324.471 -55.141 315.768 64.1241Z" fill="#3F3D56"/>
<path d="M683.508 16.1506L680.138 15.3685L682.284 14.1398L681.362 13.9269L679.219 15.1557L675.849 14.3736L675.263 14.7084L678.633 15.4906L676.488 16.7194L677.409 16.9328L679.552 15.704L682.922 16.4855L683.508 16.1506Z" fill="#6C63FF"/>
<path d="M528.497 94.3023L525.127 93.5201L527.273 92.2913L526.351 92.0786L524.208 93.3074L520.838 92.5252L520.252 92.8601L523.622 93.6422L521.477 94.871L522.398 95.0844L524.541 93.8556L527.911 94.6371L528.497 94.3023Z" fill="#6C63FF"/>
<path d="M549.936 129.772L546.563 128.989L548.709 127.76L547.79 127.548L545.646 128.777L542.274 127.994L541.688 128.329L545.061 129.111L542.915 130.34L543.834 130.553L545.98 129.325L549.35 130.106L549.936 129.772Z" fill="#6C63FF"/>
<path d="M480.674 27.5728L477.304 26.7906L479.449 25.562L478.528 25.3491L476.385 26.5779L473.015 25.7957L472.429 26.1306L475.799 26.9127L473.653 28.1415L474.575 28.3549L476.718 27.1261L480.088 27.9076L480.674 27.5728Z" fill="#6C63FF"/>
<path d="M762.663 41.0864L757.943 39.9924L760.948 38.2717L759.661 37.9736L756.659 39.6936L751.939 38.5988L751.12 39.0683L755.839 40.1624L752.837 41.8829L754.124 42.1817L757.126 40.4612L761.843 41.556L762.663 41.0864Z" fill="white"/>
<path d="M592.81 63.8234C595.541 63.8234 597.756 63.016 597.756 62.0199C597.756 61.024 595.541 60.2164 592.81 60.2164C590.079 60.2164 587.864 61.024 587.864 62.0199C587.864 63.016 590.079 63.8234 592.81 63.8234Z" fill="#6C63FF"/>
<path d="M399.871 63.8234C402.602 63.8234 404.818 63.016 404.818 62.0199C404.818 61.024 402.602 60.2164 399.871 60.2164C397.137 60.2164 394.922 61.024 394.922 62.0199C394.922 63.016 397.137 63.8234 399.871 63.8234Z" fill="#6C63FF"/>
<path d="M690.105 107.709C692.836 107.709 695.051 106.901 695.051 105.905C695.051 104.909 692.836 104.102 690.105 104.102C687.374 104.102 685.158 104.909 685.158 105.905C685.158 106.901 687.374 107.709 690.105 107.709Z" fill="#6C63FF"/>
<path d="M686.806 69.234C688.628 69.234 690.105 68.6956 690.105 68.0316C690.105 67.3676 688.628 66.8294 686.806 66.8294C684.985 66.8294 683.508 67.3676 683.508 68.0316C683.508 68.6956 684.985 69.234 686.806 69.234Z" fill="#6C63FF"/>
<path d="M520.252 56.6095C522.074 56.6095 523.551 56.0712 523.551 55.4072C523.551 54.7431 522.074 54.2049 520.252 54.2049C518.431 54.2049 516.954 54.7431 516.954 55.4072C516.954 56.0712 518.431 56.6095 520.252 56.6095Z" fill="#FF6584"/>
<path d="M591.162 15.129C592.984 15.129 594.458 14.5907 594.458 13.9267C594.458 13.2626 592.984 12.7243 591.162 12.7243C589.34 12.7243 587.864 13.2626 587.864 13.9267C587.864 14.5907 589.34 15.129 591.162 15.129Z" fill="#6C63FF"/>
<path d="M713.191 137.166C722.3 137.166 729.681 134.475 729.681 131.154C729.681 127.834 722.3 125.143 713.191 125.143C704.083 125.143 696.702 127.834 696.702 131.154C696.702 134.475 704.083 137.166 713.191 137.166Z" fill="#6C63FF"/>
<path d="M-272.156 155.303C-276.576 215.875 -55.0932 277.707 221.369 277.707C497.828 277.707 938.096 158.293 728.998 155.303C326.091 149.542 188.021 88.7112 228.421 45.5898C300.773 -31.637 -263.455 36.0376 -272.156 155.303Z" fill="#3F3D56"/>
<path d="M95.5829 107.329L92.2123 106.547L94.3577 105.318L93.4377 105.105L91.2938 106.334L87.9232 105.552L87.3378 105.887L90.7084 106.669L88.563 107.898L89.4833 108.111L91.6269 106.883L94.9975 107.664L95.5829 107.329Z" fill="#6C63FF"/>
<path d="M346.24 196.302L342.87 195.519L345.013 194.29L344.095 194.078L341.951 195.307L338.581 194.524L337.995 194.86L341.366 195.642L339.22 196.871L340.139 197.084L342.284 195.855L345.655 196.637L346.24 196.302Z" fill="#6C63FF"/>
<path d="M243.999 243.193L240.627 242.41L242.772 241.181L241.853 240.969L239.71 242.198L236.338 241.415L235.752 241.751L239.124 242.533L236.979 243.762L237.898 243.975L240.041 242.746L243.414 243.528L243.999 243.193Z" fill="#6C63FF"/>
<path d="M641.421 191.493L638.05 190.711L640.196 189.482L639.275 189.269L637.131 190.498L633.761 189.716L633.176 190.05L636.546 190.832L634.4 192.061L635.321 192.275L637.465 191.046L640.835 191.827L641.421 191.493Z" fill="#6C63FF"/>
<path d="M174.737 132.265L170.018 131.171L173.022 129.451L171.735 129.152L168.732 130.872L164.014 129.777L163.195 130.247L167.914 131.342L164.911 133.062L166.197 133.361L169.2 131.64L173.918 132.734L174.737 132.265Z" fill="white"/>
<path d="M4.88505 155.002C7.61729 155.002 9.83219 154.194 9.83219 153.198C9.83219 152.203 7.61729 151.396 4.88505 151.396C2.15259 151.396 -0.0623169 152.203 -0.0623169 153.198C-0.0623169 154.194 2.15259 155.002 4.88505 155.002Z" fill="#6C63FF"/>
<path d="M148.353 88.8737C151.085 88.8737 153.3 88.0663 153.3 87.0703C153.3 86.0743 151.085 85.2668 148.353 85.2668C145.621 85.2668 143.406 86.0743 143.406 87.0703C143.406 88.0663 145.621 88.8737 148.353 88.8737Z" fill="#6C63FF"/>
<path d="M102.179 198.888C104.911 198.888 107.126 198.08 107.126 197.084C107.126 196.088 104.911 195.28 102.179 195.28C99.447 195.28 97.2321 196.088 97.2321 197.084C97.2321 198.08 99.447 198.888 102.179 198.888Z" fill="#6C63FF"/>
<path d="M98.8811 160.413C100.703 160.413 102.179 159.874 102.179 159.21C102.179 158.546 100.703 158.008 98.8811 158.008C97.0597 158.008 95.5829 158.546 95.5829 159.21C95.5829 159.874 97.0597 160.413 98.8811 160.413Z" fill="#6C63FF"/>
<path d="M436.938 213.315C438.76 213.315 440.237 212.777 440.237 212.113C440.237 211.449 438.76 210.91 436.938 210.91C435.117 210.91 433.64 211.449 433.64 212.113C433.64 212.777 435.117 213.315 436.938 213.315Z" fill="#FF6584"/>
<path d="M138.459 50.3991C140.28 50.3991 141.757 49.8608 141.757 49.1968C141.757 48.5328 140.28 47.9944 138.459 47.9944C136.637 47.9944 135.16 48.5328 135.16 49.1968C135.16 49.8608 136.637 50.3991 138.459 50.3991Z" fill="#FF6584"/>
<path d="M3.23585 106.308C5.0575 106.308 6.53403 105.769 6.53403 105.105C6.53403 104.441 5.0575 103.903 3.23585 103.903C1.41444 103.903 -0.0623169 104.441 -0.0623169 105.105C-0.0623169 105.769 1.41444 106.308 3.23585 106.308Z" fill="#6C63FF"/>
<path d="M44.4623 66.0294C46.2838 66.0294 47.7603 65.4912 47.7603 64.8272C47.7603 64.163 46.2838 63.6248 44.4623 63.6248C42.6407 63.6248 41.1642 64.163 41.1642 64.8272C41.1642 65.4912 42.6407 66.0294 44.4623 66.0294Z" fill="white"/>
<path d="M537.531 174.84C540.263 174.84 542.478 174.033 542.478 173.037C542.478 172.042 540.263 171.234 537.531 171.234C534.798 171.234 532.582 172.042 532.582 173.037C532.582 174.033 534.798 174.84 537.531 174.84Z" fill="#6C63FF"/>
<path d="M209.367 181.453C212.101 181.453 214.316 180.645 214.316 179.65C214.316 178.654 212.101 177.847 209.367 177.847C206.636 177.847 204.421 178.654 204.421 179.65C204.421 180.645 206.636 181.453 209.367 181.453Z" fill="#6C63FF"/>
<path d="M125.266 228.345C134.374 228.345 141.757 225.653 141.757 222.332C141.757 219.013 134.374 216.321 125.266 216.321C116.159 216.321 108.776 219.013 108.776 222.332C108.776 225.653 116.159 228.345 125.266 228.345Z" fill="#6C63FF"/>
<path d="M-202.716 290.089C-207.136 350.66 14.3467 412.493 290.809 412.493C567.268 412.493 1007.54 293.079 798.438 290.089C395.531 284.327 257.461 223.497 297.861 180.376C370.213 103.149 -194.015 170.823 -202.716 290.089Z" fill="#3F3D56"/>
<path d="M165.023 242.116L161.652 241.333L163.798 240.104L162.878 239.892L160.734 241.121L157.363 240.338L156.778 240.673L160.148 241.455L158.003 242.684L158.923 242.897L161.067 241.668L164.438 242.45L165.023 242.116Z" fill="#6C63FF"/>
<path d="M415.68 331.087L412.31 330.305L414.453 329.076L413.535 328.863L411.391 330.092L408.021 329.31L407.435 329.646L410.806 330.428L408.66 331.657L409.579 331.87L411.724 330.641L415.095 331.423L415.68 331.087Z" fill="#6C63FF"/>
<path d="M10.0118 320.266L6.64094 319.484L8.78641 318.256L7.86633 318.042L5.72249 319.271L2.35186 318.49L1.76649 318.825L5.1371 319.607L2.99164 320.836L3.91195 321.048L6.05557 319.82L9.42618 320.602L10.0118 320.266Z" fill="#6C63FF"/>
<path d="M313.439 377.978L310.067 377.196L312.212 375.967L311.293 375.754L309.15 376.983L305.778 376.201L305.192 376.537L308.564 377.319L306.419 378.548L307.338 378.76L309.481 377.532L312.854 378.314L313.439 377.978Z" fill="#6C63FF"/>
<path d="M31.4495 355.736L28.0787 354.954L30.2241 353.725L29.3041 353.512L27.1602 354.741L23.7896 353.959L23.2042 354.293L26.5748 355.075L24.4294 356.304L25.3497 356.517L27.4933 355.289L30.8639 356.07L31.4495 355.736Z" fill="#6C63FF"/>
<path d="M710.86 326.279L707.49 325.496L709.636 324.267L708.715 324.055L706.571 325.284L703.201 324.501L702.616 324.836L705.986 325.618L703.84 326.847L704.761 327.061L706.905 325.832L710.275 326.613L710.86 326.279Z" fill="#6C63FF"/>
<path d="M244.177 267.051L239.458 265.957L242.462 264.236L241.175 263.938L238.173 265.658L233.454 264.563L232.634 265.033L237.354 266.127L234.352 267.848L235.639 268.146L238.641 266.426L243.358 267.52L244.177 267.051Z" fill="white"/>
<path d="M74.325 289.787C77.0573 289.787 79.2722 288.98 79.2722 287.984C79.2722 286.989 77.0573 286.181 74.325 286.181C71.5926 286.181 69.3777 286.989 69.3777 287.984C69.3777 288.98 71.5926 289.787 74.325 289.787Z" fill="#6C63FF"/>
<path d="M217.792 223.659C220.526 223.659 222.741 222.852 222.741 221.855C222.741 220.86 220.526 220.053 217.792 220.053C215.061 220.053 212.846 220.86 212.846 221.855C212.846 222.852 215.061 223.659 217.792 223.659Z" fill="#6C63FF"/>
<path d="M171.619 333.673C174.351 333.673 176.566 332.866 176.566 331.87C176.566 330.873 174.351 330.066 171.619 330.066C168.887 330.066 166.672 330.873 166.672 331.87C166.672 332.866 168.887 333.673 171.619 333.673Z" fill="#6C63FF"/>
<path d="M168.321 295.199C170.143 295.199 171.619 294.66 171.619 293.996C171.619 293.332 170.143 292.794 168.321 292.794C166.5 292.794 165.023 293.332 165.023 293.996C165.023 294.66 166.5 295.199 168.321 295.199Z" fill="#6C63FF"/>
<path d="M506.378 348.101C508.2 348.101 509.677 347.563 509.677 346.898C509.677 346.235 508.2 345.696 506.378 345.696C504.556 345.696 503.08 346.235 503.08 346.898C503.08 347.563 504.556 348.101 506.378 348.101Z" fill="#FF6584"/>
<path d="M1.76649 282.574C3.5879 282.574 5.06466 282.036 5.06466 281.371C5.06466 280.708 3.5879 280.169 1.76649 280.169C-0.054917 280.169 -1.53167 280.708 -1.53167 281.371C-1.53167 282.036 -0.054917 282.574 1.76649 282.574Z" fill="#FF6584"/>
<path d="M207.9 185.184C209.721 185.184 211.196 184.647 211.196 183.982C211.196 183.319 209.721 182.781 207.9 182.781C206.078 182.781 204.601 183.319 204.601 183.982C204.601 184.647 206.078 185.184 207.9 185.184Z" fill="#FF6584"/>
<path d="M72.6758 241.093C74.4975 241.093 75.974 240.555 75.974 239.892C75.974 239.227 74.4975 238.689 72.6758 238.689C70.8544 238.689 69.3777 239.227 69.3777 239.892C69.3777 240.555 70.8544 241.093 72.6758 241.093Z" fill="#6C63FF"/>
<path d="M113.902 200.816C115.724 200.816 117.2 200.276 117.2 199.613C117.2 198.948 115.724 198.411 113.902 198.411C112.081 198.411 110.604 198.948 110.604 199.613C110.604 200.276 112.081 200.816 113.902 200.816Z" fill="white"/>
<path d="M606.971 309.626C609.703 309.626 611.918 308.819 611.918 307.822C611.918 306.827 609.703 306.02 606.971 306.02C604.238 306.02 602.022 306.827 602.022 307.822C602.022 308.819 604.238 309.626 606.971 309.626Z" fill="#6C63FF"/>
<path d="M278.807 316.238C281.541 316.238 283.756 315.431 283.756 314.436C283.756 313.44 281.541 312.632 278.807 312.632C276.076 312.632 273.861 313.44 273.861 314.436C273.861 315.431 276.076 316.238 278.807 316.238Z" fill="#6C63FF"/>
<path d="M194.706 363.131C203.814 363.131 211.196 360.439 211.196 357.118C211.196 353.799 203.814 351.107 194.706 351.107C185.598 351.107 178.216 353.799 178.216 357.118C178.216 360.439 185.598 363.131 194.706 363.131Z" fill="#6C63FF"/>
<path d="M394.242 293.395C396.975 293.395 399.188 292.588 399.188 291.591C399.188 290.595 396.975 289.787 394.242 289.787C391.511 289.787 389.295 290.595 389.295 291.591C389.295 292.588 391.511 293.395 394.242 293.395Z" fill="white"/>
<path d="M-188.829 560.982C-193.248 621.553 28.2347 683.385 304.697 683.385C581.156 683.385 1021.42 563.972 812.326 560.982C409.419 555.22 271.349 494.389 311.749 451.269C384.101 374.042 -180.127 441.716 -188.829 560.982Z" fill="#3F3D56"/>
<path d="M178.911 513.008L175.541 512.226L177.686 510.997L176.765 510.784L174.622 512.013L171.251 511.231L170.666 511.565L174.036 512.348L171.891 513.577L172.812 513.789L174.955 512.56L178.325 513.343L178.911 513.008Z" fill="#6C63FF"/>
<path d="M429.568 601.98L426.198 601.198L428.342 599.969L427.423 599.756L425.279 600.985L421.909 600.203L421.323 600.539L424.694 601.321L422.548 602.55L423.467 602.763L425.613 601.534L428.983 602.316L429.568 601.98Z" fill="#6C63FF"/>
<path d="M23.8998 591.159L20.5289 590.377L22.6744 589.149L21.7543 588.935L19.6105 590.164L16.2399 589.383L15.6545 589.717L19.0251 590.5L16.8796 591.729L17.7999 591.941L19.9436 590.712L23.3142 591.495L23.8998 591.159Z" fill="#6C63FF"/>
<path d="M327.327 648.871L323.955 648.089L326.1 646.86L325.181 646.647L323.038 647.876L319.666 647.094L319.08 647.429L322.452 648.212L320.307 649.441L321.226 649.653L323.369 648.425L326.742 649.207L327.327 648.871Z" fill="#6C63FF"/>
<path d="M45.3375 626.629L41.9667 625.847L44.1121 624.618L43.1921 624.405L41.0482 625.634L37.6776 624.851L37.0922 625.186L40.4628 625.968L38.3174 627.197L39.2377 627.41L41.3813 626.182L44.7519 626.963L45.3375 626.629Z" fill="#6C63FF"/>
<path d="M724.748 597.172L721.378 596.389L723.524 595.16L722.603 594.948L720.459 596.177L717.089 595.394L716.504 595.729L719.874 596.511L717.728 597.74L718.649 597.954L720.793 596.725L724.163 597.506L724.748 597.172Z" fill="#6C63FF"/>
<path d="M258.065 537.944L253.346 536.85L256.35 535.129L255.063 534.83L252.061 536.551L247.342 535.455L246.522 535.926L251.242 537.02L248.24 538.741L249.527 539.039L252.529 537.319L257.246 538.413L258.065 537.944Z" fill="white"/>
<path d="M88.213 560.68C90.9453 560.68 93.1602 559.873 93.1602 558.877C93.1602 557.881 90.9453 557.074 88.213 557.074C85.4806 557.074 83.2657 557.881 83.2657 558.877C83.2657 559.873 85.4806 560.68 88.213 560.68Z" fill="#6C63FF"/>
<path d="M231.68 494.552C234.414 494.552 236.629 493.745 236.629 492.748C236.629 491.753 234.414 490.946 231.68 490.946C228.949 490.946 226.734 491.753 226.734 492.748C226.734 493.745 228.949 494.552 231.68 494.552Z" fill="#6C63FF"/>
<path d="M185.508 604.566C188.239 604.566 190.454 603.759 190.454 602.763C190.454 601.766 188.239 600.959 185.508 600.959C182.776 600.959 180.561 601.766 180.561 602.763C180.561 603.759 182.776 604.566 185.508 604.566Z" fill="#6C63FF"/>
<path d="M182.209 566.092C184.031 566.092 185.508 565.552 185.508 564.889C185.508 564.224 184.031 563.687 182.209 563.687C180.387 563.687 178.911 564.224 178.911 564.889C178.911 565.552 180.387 566.092 182.209 566.092Z" fill="#6C63FF"/>
<path d="M520.266 618.994C522.088 618.994 523.565 618.456 523.565 617.791C523.565 617.128 522.088 616.589 520.266 616.589C518.444 616.589 516.968 617.128 516.968 617.791C516.968 618.456 518.444 618.994 520.266 618.994Z" fill="#FF6584"/>
<path d="M15.6545 553.467C17.4759 553.467 18.9527 552.929 18.9527 552.264C18.9527 551.601 17.4759 551.062 15.6545 551.062C13.8331 551.062 12.3563 551.601 12.3563 552.264C12.3563 552.929 13.8331 553.467 15.6545 553.467Z" fill="#FF6584"/>
<path d="M221.788 456.077C223.609 456.077 225.084 455.54 225.084 454.875C225.084 454.211 223.609 453.674 221.788 453.674C219.966 453.674 218.489 454.211 218.489 454.875C218.489 455.54 219.966 456.077 221.788 456.077Z" fill="#FF6584"/>
<path d="M86.5638 511.986C88.3855 511.986 89.862 511.448 89.862 510.784C89.862 510.12 88.3855 509.582 86.5638 509.582C84.7424 509.582 83.2657 510.12 83.2657 510.784C83.2657 511.448 84.7424 511.986 86.5638 511.986Z" fill="#6C63FF"/>
<path d="M127.79 471.708C129.612 471.708 131.088 471.169 131.088 470.506C131.088 469.841 129.612 469.303 127.79 469.303C125.969 469.303 124.492 469.841 124.492 470.506C124.492 471.169 125.969 471.708 127.79 471.708Z" fill="white"/>
<path d="M620.859 580.519C623.591 580.519 625.806 579.711 625.806 578.715C625.806 577.72 623.591 576.913 620.859 576.913C618.126 576.913 615.91 577.72 615.91 578.715C615.91 579.711 618.126 580.519 620.859 580.519Z" fill="#6C63FF"/>
<path d="M292.695 587.131C295.429 587.131 297.644 586.324 297.644 585.329C297.644 584.333 295.429 583.525 292.695 583.525C289.964 583.525 287.749 584.333 287.749 585.329C287.749 586.324 289.964 587.131 292.695 587.131Z" fill="#6C63FF"/>
<path d="M208.594 634.024C217.702 634.024 225.084 631.332 225.084 628.011C225.084 624.692 217.702 622 208.594 622C199.486 622 192.104 624.692 192.104 628.011C192.104 631.332 199.486 634.024 208.594 634.024Z" fill="#6C63FF"/>
<path d="M408.13 564.288C410.863 564.288 413.076 563.48 413.076 562.484C413.076 561.488 410.863 560.68 408.13 560.68C405.399 560.68 403.183 561.488 403.183 562.484C403.183 563.48 405.399 564.288 408.13 564.288Z" fill="white"/>
<path d="M-121.703 16.5528C-126.123 77.124 95.36 138.957 371.822 138.957C648.281 138.957 1088.55 19.5428 879.452 16.5528C476.544 10.7913 338.475 -50.0388 378.875 -93.1602C451.227 -170.387 -113.002 -102.712 -121.703 16.5528Z" fill="#3F3D56"/>
<path d="M496.694 57.5519L493.323 56.7697L495.467 55.541L494.548 55.3281L492.405 56.5569L489.034 55.7748L488.449 56.1097L491.819 56.8917L489.673 58.1205L490.592 58.3339L492.738 57.1051L496.108 57.8868L496.694 57.5519Z" fill="#6C63FF"/>
<path d="M91.0251 46.7309L87.6543 45.9487L89.7997 44.7199L88.8797 44.5072L86.7358 45.736L83.3652 44.9538L82.7798 45.2887L86.1504 46.0708L84.005 47.2996L84.9253 47.513L87.0689 46.2842L90.4395 47.0657L91.0251 46.7309Z" fill="#6C63FF"/>
<path d="M394.452 104.443L391.08 103.661L393.226 102.432L392.307 102.219L390.163 103.448L386.791 102.666L386.205 103.001L389.578 103.783L387.432 105.012L388.351 105.225L390.494 103.996L393.867 104.778L394.452 104.443Z" fill="#6C63FF"/>
<path d="M112.463 82.1997L109.092 81.4176L111.237 80.1888L110.317 79.9759L108.174 81.2047L104.803 80.4227L104.218 80.7575L107.588 81.5395L105.443 82.7683L106.363 82.9817L108.507 81.7529L111.877 82.5346L112.463 82.1997Z" fill="#6C63FF"/>
<path d="M155.338 16.252C158.071 16.252 160.286 15.4446 160.286 14.4485C160.286 13.4525 158.071 12.645 155.338 12.645C152.606 12.645 150.391 13.4525 150.391 14.4485C150.391 15.4446 152.606 16.252 155.338 16.252Z" fill="#6C63FF"/>
<path d="M252.633 60.1371C255.364 60.1371 257.579 59.3297 257.579 58.3337C257.579 57.3377 255.364 56.5302 252.633 56.5302C249.902 56.5302 247.686 57.3377 247.686 58.3337C247.686 59.3297 249.902 60.1371 252.633 60.1371Z" fill="#6C63FF"/>
<path d="M249.334 21.6626C251.156 21.6626 252.633 21.1242 252.633 20.4602C252.633 19.7962 251.156 19.2578 249.334 19.2578C247.513 19.2578 246.036 19.7962 246.036 20.4602C246.036 21.1242 247.513 21.6626 249.334 21.6626Z" fill="#6C63FF"/>
<path d="M587.392 74.5652C589.213 74.5652 590.69 74.0269 590.69 73.3629C590.69 72.6988 589.213 72.1606 587.392 72.1606C585.57 72.1606 584.093 72.6988 584.093 73.3629C584.093 74.0269 585.57 74.5652 587.392 74.5652Z" fill="#FF6584"/>
<path d="M82.7798 9.03804C84.6012 9.03804 86.078 8.49982 86.078 7.8358C86.078 7.17165 84.6012 6.63344 82.7798 6.63344C80.9584 6.63344 79.4816 7.17165 79.4816 7.8358C79.4816 8.49982 80.9584 9.03804 82.7798 9.03804Z" fill="#FF6584"/>
<path d="M687.985 36.0906C690.716 36.0906 692.931 35.2831 692.931 34.2871C692.931 33.291 690.716 32.4835 687.985 32.4835C685.251 32.4835 683.036 33.291 683.036 34.2871C683.036 35.2831 685.251 36.0906 687.985 36.0906Z" fill="#6C63FF"/>
<path d="M359.82 42.7034C362.554 42.7034 364.769 41.8959 364.769 40.8999C364.769 39.9038 362.554 39.0964 359.82 39.0964C357.089 39.0964 354.874 39.9038 354.874 40.8999C354.874 41.8959 357.089 42.7034 359.82 42.7034Z" fill="#6C63FF"/>
<path d="M275.719 89.5944C284.828 89.5944 292.209 86.9028 292.209 83.5827C292.209 80.2625 284.828 77.571 275.719 77.571C266.611 77.571 259.23 80.2625 259.23 83.5827C259.23 86.9028 266.611 89.5944 275.719 89.5944Z" fill="#6C63FF"/>
<path d="M475.255 19.8591C477.989 19.8591 480.202 19.0515 480.202 18.0556C480.202 17.0595 477.989 16.2521 475.255 16.2521C472.524 16.2521 470.309 17.0595 470.309 18.0556C470.309 19.0515 472.524 19.8591 475.255 19.8591Z" fill="white"/>
<path d="M167.63 882.089C163.211 942.66 384.694 1004.49 661.155 1004.49C937.615 1004.49 1377.88 885.079 1168.78 882.089C765.878 876.327 627.808 815.497 668.208 772.376C740.56 695.149 176.332 762.823 167.63 882.089Z" fill="#3F3D56"/>
<path d="M535.369 834.116L531.999 833.333L534.145 832.104L533.224 831.892L531.08 833.121L527.71 832.338L527.125 832.673L530.495 833.455L528.349 834.684L529.27 834.897L531.414 833.668L534.784 834.45L535.369 834.116Z" fill="#6C63FF"/>
<path d="M380.358 912.266L376.988 911.484L379.134 910.256L378.213 910.042L376.069 911.271L372.699 910.49L372.114 910.824L375.484 911.607L373.338 912.836L374.259 913.048L376.403 911.82L379.773 912.602L380.358 912.266Z" fill="#6C63FF"/>
<path d="M683.786 969.978L680.413 969.196L682.559 967.967L681.64 967.754L679.497 968.983L676.124 968.201L675.539 968.537L678.911 969.319L676.765 970.548L677.684 970.76L679.828 969.532L683.2 970.314L683.786 969.978Z" fill="#6C63FF"/>
<path d="M401.797 947.736L398.424 946.954L400.57 945.725L399.651 945.512L397.508 946.741L394.135 945.959L393.55 946.293L396.922 947.075L394.776 948.304L395.695 948.517L397.841 947.289L401.211 948.07L401.797 947.736Z" fill="#6C63FF"/>
<path d="M332.535 845.537L329.165 844.754L331.311 843.527L330.389 843.314L328.246 844.542L324.876 843.761L324.29 844.095L327.66 844.877L325.515 846.106L326.436 846.319L328.579 845.09L331.95 845.872L332.535 845.537Z" fill="#6C63FF"/>
<path d="M614.524 859.051L609.804 857.957L612.809 856.236L611.522 855.938L608.52 857.658L603.8 856.563L602.981 857.033L607.7 858.127L604.698 859.848L605.985 860.146L608.987 858.426L613.705 859.52L614.524 859.051Z" fill="white"/>
<path d="M444.672 881.787C447.403 881.787 449.618 880.98 449.618 879.984C449.618 878.989 447.403 878.181 444.672 878.181C441.94 878.181 439.725 878.989 439.725 879.984C439.725 880.98 441.94 881.787 444.672 881.787Z" fill="#6C63FF"/>
<path d="M251.732 881.787C254.464 881.787 256.679 880.98 256.679 879.984C256.679 878.989 254.464 878.181 251.732 878.181C248.999 878.181 246.784 878.989 246.784 879.984C246.784 880.98 248.999 881.787 251.732 881.787Z" fill="#6C63FF"/>
<path d="M588.139 815.659C590.873 815.659 593.088 814.852 593.088 813.855C593.088 812.86 590.873 812.053 588.139 812.053C585.408 812.053 583.193 812.86 583.193 813.855C583.193 814.852 585.408 815.659 588.139 815.659Z" fill="#6C63FF"/>
<path d="M541.966 925.673C544.697 925.673 546.913 924.866 546.913 923.87C546.913 922.873 544.697 922.066 541.966 922.066C539.235 922.066 537.02 922.873 537.02 923.87C537.02 924.866 539.235 925.673 541.966 925.673Z" fill="#6C63FF"/>
<path d="M538.668 887.199C540.489 887.199 541.966 886.66 541.966 885.996C541.966 885.332 540.489 884.794 538.668 884.794C536.846 884.794 535.369 885.332 535.369 885.996C535.369 886.66 536.846 887.199 538.668 887.199Z" fill="#6C63FF"/>
<path d="M372.114 874.574C373.935 874.574 375.412 874.036 375.412 873.371C375.412 872.708 373.935 872.169 372.114 872.169C370.292 872.169 368.815 872.708 368.815 873.371C368.815 874.036 370.292 874.574 372.114 874.574Z" fill="#FF6584"/>
<path d="M578.246 777.185C580.068 777.185 581.542 776.647 581.542 775.982C581.542 775.319 580.068 774.781 578.246 774.781C576.425 774.781 574.948 775.319 574.948 775.982C574.948 776.647 576.425 777.185 578.246 777.185Z" fill="#FF6584"/>
<path d="M443.023 833.093C444.845 833.093 446.32 832.555 446.32 831.892C446.32 831.227 444.845 830.689 443.023 830.689C441.202 830.689 439.725 831.227 439.725 831.892C439.725 832.555 441.202 833.093 443.023 833.093Z" fill="#6C63FF"/>
<path d="M484.25 792.816C486.072 792.816 487.546 792.276 487.546 791.613C487.546 790.948 486.072 790.411 484.25 790.411C482.428 790.411 480.952 790.948 480.952 791.613C480.952 792.276 482.428 792.816 484.25 792.816Z" fill="white"/>
<path d="M649.154 908.238C651.887 908.238 654.102 907.431 654.102 906.436C654.102 905.44 651.887 904.632 649.154 904.632C646.422 904.632 644.207 905.44 644.207 906.436C644.207 907.431 646.422 908.238 649.154 908.238Z" fill="#6C63FF"/>
<path d="M565.053 955.131C574.161 955.131 581.542 952.439 581.542 949.118C581.542 945.799 574.161 943.107 565.053 943.107C555.944 943.107 548.563 945.799 548.563 949.118C548.563 952.439 555.944 955.131 565.053 955.131Z" fill="#6C63FF"/>
<path d="M764.589 885.395C767.322 885.395 769.535 884.588 769.535 883.591C769.535 882.595 767.322 881.787 764.589 881.787C761.857 881.787 759.642 882.595 759.642 883.591C759.642 884.588 761.857 885.395 764.589 885.395Z" fill="white"/>
<path d="M234.754 337.66C230.336 398.232 451.819 460.064 728.281 460.064C1004.74 460.064 1445.01 340.651 1235.91 337.66C833.003 331.899 694.933 271.068 735.333 227.947C807.685 150.72 243.457 218.395 234.754 337.66Z" fill="#3F3D56"/>
<path d="M602.495 289.687L599.125 288.905L601.27 287.676L600.349 287.463L598.206 288.692L594.835 287.91L594.25 288.244L597.62 289.026L595.474 290.255L596.396 290.468L598.539 289.239L601.909 290.021L602.495 289.687Z" fill="#6C63FF"/>
<path d="M447.484 367.838L444.114 367.055L446.259 365.828L445.338 365.614L443.195 366.843L439.825 366.062L439.239 366.396L442.609 367.178L440.463 368.407L441.385 368.62L443.528 367.391L446.898 368.173L447.484 367.838Z" fill="#6C63FF"/>
<path d="M750.911 425.55L747.539 424.767L749.684 423.538L748.765 423.326L746.622 424.555L743.25 423.772L742.664 424.108L746.036 424.89L743.891 426.119L744.81 426.332L746.953 425.103L750.325 425.885L750.911 425.55Z" fill="#6C63FF"/>
<path d="M468.922 403.307L465.55 402.525L467.695 401.296L466.777 401.083L464.633 402.312L461.261 401.53L460.675 401.864L464.048 402.647L461.902 403.876L462.821 404.088L464.966 402.861L468.337 403.642L468.922 403.307Z" fill="#6C63FF"/>
<path d="M399.66 301.108L396.29 300.326L398.436 299.098L397.515 298.885L395.371 300.113L392.001 299.332L391.416 299.666L394.786 300.449L392.64 301.678L393.561 301.89L395.705 300.661L399.075 301.444L399.66 301.108Z" fill="#6C63FF"/>
<path d="M681.649 314.622L676.93 313.528L679.934 311.808L678.647 311.509L675.645 313.23L670.925 312.134L670.106 312.605L674.826 313.699L671.824 315.419L673.111 315.718L676.113 313.997L680.83 315.091L681.649 314.622Z" fill="white"/>
<path d="M511.797 337.359C514.528 337.359 516.743 336.551 516.743 335.555C516.743 334.56 514.528 333.753 511.797 333.753C509.066 333.753 506.85 334.56 506.85 335.555C506.85 336.551 509.066 337.359 511.797 337.359Z" fill="#6C63FF"/>
<path d="M318.858 337.359C321.589 337.359 323.804 336.551 323.804 335.555C323.804 334.56 321.589 333.753 318.858 333.753C316.124 333.753 313.909 334.56 313.909 335.555C313.909 336.551 316.124 337.359 318.858 337.359Z" fill="#6C63FF"/>
<path d="M655.264 271.231C657.998 271.231 660.213 270.423 660.213 269.427C660.213 268.432 657.998 267.624 655.264 267.624C652.533 267.624 650.318 268.432 650.318 269.427C650.318 270.423 652.533 271.231 655.264 271.231Z" fill="#6C63FF"/>
<path d="M609.091 381.245C611.823 381.245 614.038 380.437 614.038 379.441C614.038 378.445 611.823 377.637 609.091 377.637C606.36 377.637 604.145 378.445 604.145 379.441C604.145 380.437 606.36 381.245 609.091 381.245Z" fill="#6C63FF"/>
<path d="M605.793 342.77C607.615 342.77 609.091 342.231 609.091 341.568C609.091 340.903 607.615 340.365 605.793 340.365C603.971 340.365 602.495 340.903 602.495 341.568C602.495 342.231 603.971 342.77 605.793 342.77Z" fill="#6C63FF"/>
<path d="M439.239 330.145C441.061 330.145 442.537 329.607 442.537 328.943C442.537 328.279 441.061 327.74 439.239 327.74C437.417 327.74 435.941 328.279 435.941 328.943C435.941 329.607 437.417 330.145 439.239 330.145Z" fill="#FF6584"/>
<path d="M645.372 232.756C647.193 232.756 648.668 232.218 648.668 231.553C648.668 230.89 647.193 230.352 645.372 230.352C643.55 230.352 642.073 230.89 642.073 231.553C642.073 232.218 643.55 232.756 645.372 232.756Z" fill="#FF6584"/>
<path d="M510.149 288.664C511.97 288.664 513.445 288.126 513.445 287.463C513.445 286.798 511.97 286.261 510.149 286.261C508.327 286.261 506.85 286.798 506.85 287.463C506.85 288.126 508.327 288.664 510.149 288.664Z" fill="#6C63FF"/>
<path d="M551.375 248.387C553.197 248.387 554.671 247.848 554.671 247.185C554.671 246.52 553.197 245.982 551.375 245.982C549.554 245.982 548.077 246.52 548.077 247.185C548.077 247.848 549.554 248.387 551.375 248.387Z" fill="white"/>
<path d="M716.279 363.81C719.013 363.81 721.228 363.002 721.228 362.007C721.228 361.011 719.013 360.204 716.279 360.204C713.548 360.204 711.333 361.011 711.333 362.007C711.333 363.002 713.548 363.81 716.279 363.81Z" fill="#6C63FF"/>
<path d="M632.178 410.702C641.286 410.702 648.668 408.01 648.668 404.69C648.668 401.37 641.286 398.678 632.178 398.678C623.07 398.678 615.688 401.37 615.688 404.69C615.688 408.01 623.07 410.702 632.178 410.702Z" fill="#6C63FF"/>
<path d="M248.642 608.553C244.224 669.125 465.707 730.957 742.169 730.957C1018.63 730.957 1458.9 611.543 1249.8 608.553C846.891 602.792 708.821 541.961 749.221 498.84C821.573 421.613 257.346 489.287 248.642 608.553Z" fill="#3F3D56"/>
<path d="M616.383 560.58L613.013 559.798L615.158 558.569L614.237 558.356L612.094 559.585L608.723 558.803L608.138 559.137L611.508 559.919L609.362 561.148L610.284 561.361L612.427 560.132L615.797 560.914L616.383 560.58Z" fill="#6C63FF"/>
<path d="M461.372 638.73L458.002 637.948L460.147 636.721L459.226 636.506L457.083 637.735L453.712 636.954L453.127 637.289L456.497 638.071L454.351 639.3L455.273 639.513L457.416 638.284L460.786 639.066L461.372 638.73Z" fill="#6C63FF"/>
<path d="M764.799 696.442L761.427 695.66L763.572 694.431L762.653 694.219L760.51 695.447L757.138 694.665L756.552 695.001L759.924 695.783L757.779 697.012L758.698 697.225L760.841 695.996L764.213 696.778L764.799 696.442Z" fill="#6C63FF"/>
<path d="M482.81 674.2L479.438 673.418L481.583 672.189L480.665 671.976L478.521 673.205L475.149 672.423L474.563 672.757L477.936 673.54L475.79 674.768L476.709 674.981L478.854 673.754L482.225 674.535L482.81 674.2Z" fill="#6C63FF"/>
<path d="M413.548 572.001L410.178 571.219L412.324 569.991L411.403 569.778L409.259 571.006L405.889 570.225L405.304 570.559L408.674 571.342L406.528 572.571L407.449 572.783L409.593 571.554L412.963 572.337L413.548 572.001Z" fill="#6C63FF"/>
<path d="M695.537 585.515L690.818 584.421L693.822 582.701L692.535 582.402L689.533 584.122L684.813 583.027L683.994 583.497L688.714 584.592L685.712 586.312L686.998 586.611L690.001 584.89L694.718 585.984L695.537 585.515Z" fill="white"/>
<path d="M525.685 608.252C528.416 608.252 530.631 607.444 530.631 606.448C530.631 605.453 528.416 604.646 525.685 604.646C522.953 604.646 520.738 605.453 520.738 606.448C520.738 607.444 522.953 608.252 525.685 608.252Z" fill="#6C63FF"/>
<path d="M332.746 608.252C335.477 608.252 337.692 607.444 337.692 606.448C337.692 605.453 335.477 604.646 332.746 604.646C330.012 604.646 327.797 605.453 327.797 606.448C327.797 607.444 330.012 608.252 332.746 608.252Z" fill="#6C63FF"/>
<path d="M669.152 542.123C671.886 542.123 674.101 541.316 674.101 540.32C674.101 539.325 671.886 538.517 669.152 538.517C666.421 538.517 664.206 539.325 664.206 540.32C664.206 541.316 666.421 542.123 669.152 542.123Z" fill="#6C63FF"/>
<path d="M622.98 652.138C625.711 652.138 627.926 651.33 627.926 650.334C627.926 649.338 625.711 648.53 622.98 648.53C620.248 648.53 618.033 649.338 618.033 650.334C618.033 651.33 620.248 652.138 622.98 652.138Z" fill="#6C63FF"/>
<path d="M619.681 613.663C621.503 613.663 622.979 613.124 622.979 612.46C622.979 611.796 621.503 611.258 619.681 611.258C617.859 611.258 616.383 611.796 616.383 612.46C616.383 613.124 617.859 613.663 619.681 613.663Z" fill="#6C63FF"/>
<path d="M453.127 601.038C454.949 601.038 456.425 600.5 456.425 599.836C456.425 599.172 454.949 598.633 453.127 598.633C451.305 598.633 449.829 599.172 449.829 599.836C449.829 600.5 451.305 601.038 453.127 601.038Z" fill="#FF6584"/>
<path d="M659.26 503.649C661.081 503.649 662.556 503.111 662.556 502.446C662.556 501.783 661.081 501.245 659.26 501.245C657.438 501.245 655.961 501.783 655.961 502.446C655.961 503.111 657.438 503.649 659.26 503.649Z" fill="#FF6584"/>
<path d="M524.037 559.557C525.858 559.557 527.333 559.019 527.333 558.356C527.333 557.691 525.858 557.153 524.037 557.153C522.215 557.153 520.738 557.691 520.738 558.356C520.738 559.019 522.215 559.557 524.037 559.557Z" fill="#6C63FF"/>
<path d="M565.263 519.28C567.085 519.28 568.559 518.741 568.559 518.077C568.559 517.413 567.085 516.875 565.263 516.875C563.442 516.875 561.965 517.413 561.965 518.077C561.965 518.741 563.442 519.28 565.263 519.28Z" fill="white"/>
<path d="M730.167 634.703C732.901 634.703 735.116 633.895 735.116 632.9C735.116 631.904 732.901 631.097 730.167 631.097C727.436 631.097 725.221 631.904 725.221 632.9C725.221 633.895 727.436 634.703 730.167 634.703Z" fill="#6C63FF"/>
<path d="M646.066 681.595C655.174 681.595 662.556 678.903 662.556 675.582C662.556 672.263 655.174 669.571 646.066 669.571C636.958 669.571 629.576 672.263 629.576 675.582C629.576 678.903 636.958 681.595 646.066 681.595Z" fill="#6C63FF"/>
<path d="M-374.003 847.732C-378.422 908.303 -156.939 970.136 119.522 970.136C395.982 970.136 836.25 850.722 627.153 847.732C224.246 841.97 86.1754 781.14 126.575 738.019C198.928 660.792 -365.3 728.466 -374.003 847.732Z" fill="#3F3D56"/>
<path d="M244.395 888.73L241.025 887.948L243.168 886.719L242.249 886.506L240.106 887.735L236.736 886.953L236.15 887.289L239.52 888.071L237.375 889.3L238.293 889.513L240.439 888.284L243.809 889.066L244.395 888.73Z" fill="#6C63FF"/>
<path d="M142.153 935.621L138.782 934.839L140.928 933.61L140.007 933.397L137.864 934.626L134.493 933.844L133.908 934.179L137.278 934.962L135.133 936.191L136.053 936.403L138.197 935.174L141.567 935.957L142.153 935.621Z" fill="#6C63FF"/>
<path d="M539.575 883.922L536.205 883.139L538.351 881.91L537.429 881.698L535.286 882.926L531.916 882.144L531.33 882.479L534.7 883.261L532.555 884.49L533.476 884.704L535.619 883.475L538.989 884.256L539.575 883.922Z" fill="#6C63FF"/>
<path d="M72.8925 824.694L68.1729 823.6L71.1759 821.879L69.8897 821.58L66.8866 823.301L62.1686 822.205L61.3493 822.676L66.0688 823.77L63.0658 825.491L64.3521 825.789L67.3549 824.069L72.0729 825.163L72.8925 824.694Z" fill="white"/>
<path d="M46.5076 781.302C49.2398 781.302 51.4547 780.495 51.4547 779.498C51.4547 778.503 49.2398 777.696 46.5076 777.696C43.7754 777.696 41.5605 778.503 41.5605 779.498C41.5605 780.495 43.7754 781.302 46.5076 781.302Z" fill="#6C63FF"/>
<path d="M0.333933 891.316C3.06616 891.316 5.28107 890.509 5.28107 889.512C5.28107 888.516 3.06616 887.709 0.333933 887.709C-2.3983 887.709 -4.6132 888.516 -4.6132 889.512C-4.6132 890.509 -2.3983 891.316 0.333933 891.316Z" fill="#6C63FF"/>
<path d="M-2.96423 852.842C-1.14259 852.842 0.333939 852.302 0.333939 851.639C0.333939 850.974 -1.14259 850.436 -2.96423 850.436C-4.78564 850.436 -6.2624 850.974 -6.2624 851.639C-6.2624 852.302 -4.78564 852.842 -2.96423 852.842Z" fill="#6C63FF"/>
<path d="M335.093 905.744C336.914 905.744 338.391 905.206 338.391 904.541C338.391 903.878 336.914 903.339 335.093 903.339C333.271 903.339 331.794 903.878 331.794 904.541C331.794 905.206 333.271 905.744 335.093 905.744Z" fill="#FF6584"/>
<path d="M36.6133 742.827C38.4347 742.827 39.9115 742.289 39.9115 741.625C39.9115 740.961 38.4347 740.424 36.6133 740.424C34.7919 740.424 33.3151 740.961 33.3151 741.625C33.3151 742.289 34.7919 742.827 36.6133 742.827Z" fill="#FF6584"/>
<path d="M435.686 867.269C438.417 867.269 440.632 866.461 440.632 865.465C440.632 864.47 438.417 863.663 435.686 863.663C432.952 863.663 430.737 864.47 430.737 865.465C430.737 866.461 432.952 867.269 435.686 867.269Z" fill="#6C63FF"/>
<path d="M107.523 873.881C110.255 873.881 112.47 873.074 112.47 872.079C112.47 871.083 110.255 870.275 107.523 870.275C104.79 870.275 102.576 871.083 102.576 872.079C102.576 873.074 104.79 873.881 107.523 873.881Z" fill="#6C63FF"/>
<path d="M23.4209 920.773C32.5284 920.773 39.9115 918.082 39.9115 914.761C39.9115 911.442 32.5284 908.75 23.4209 908.75C14.3134 908.75 6.93027 911.442 6.93027 914.761C6.93027 918.082 14.3134 920.773 23.4209 920.773Z" fill="#6C63FF"/>
<path d="M222.956 851.038C225.69 851.038 227.903 850.23 227.903 849.234C227.903 848.238 225.69 847.43 222.956 847.43C220.225 847.43 218.01 848.238 218.01 849.234C218.01 850.23 220.225 851.038 222.956 851.038Z" fill="white"/>
</g>
<g clip-path="url(#clip2)">
<g opacity="0.5">
<path opacity="0.5" d="M363.013 1012.85C360.96 1012.85 313.745 1031.88 259.006 981.769C229.279 954.56 200.162 951.662 179.756 954.698C167.216 956.561 155.766 962.238 146.696 970.46C139.401 977.1 121.747 986.147 80.3825 983.676C16.7478 979.871 -0.0167542 1022.05 -0.0167542 1022.05H375.983C375.983 1022.05 365.052 1012.85 363.013 1012.85Z" fill="url(#paint0_linear)"/>
</g>
<path d="M0 1023C0 1023 16.7646 980.818 80.3993 984.623C121.764 987.106 139.422 978.047 146.695 971.411C155.748 963.173 167.194 957.513 179.722 955.649C200.127 952.614 229.249 955.511 258.972 982.721C313.711 1032.83 360.926 1013.8 362.978 1013.8C365.031 1013.8 375.979 1023 375.979 1023H0Z" fill="#086972"/>
<path opacity="0.02" d="M0 1023C0 1023 16.7646 980.818 80.3993 984.623C121.764 987.106 139.422 978.047 146.695 971.411C155.748 963.173 167.194 957.513 179.722 955.649C200.127 952.614 229.249 955.511 258.972 982.721C313.711 1032.83 360.926 1013.8 362.978 1013.8C365.031 1013.8 375.979 1023 375.979 1023H0Z" fill="#086972"/>
<path d="M95.3328 975.146H68.5487V993.592H95.3328V975.146Z" fill="black"/>
<path d="M66.2151 974.396L81.1828 960.52C81.2911 960.42 81.4199 960.34 81.5617 960.285C81.7034 960.231 81.8554 960.203 82.0089 960.203C82.1623 960.203 82.3143 960.231 82.4561 960.285C82.5978 960.34 82.7266 960.42 82.8349 960.52L97.6833 974.285C97.8467 974.436 97.9581 974.629 98.0034 974.838C98.0487 975.048 98.026 975.266 97.938 975.463C97.8501 975.661 97.7009 975.83 97.5092 975.949C97.3176 976.068 97.0922 976.132 96.8615 976.132L67.054 976.243C66.8219 976.246 66.5941 976.184 66.3998 976.066C66.2056 975.948 66.0537 975.78 65.9636 975.581C65.8735 975.383 65.8494 975.164 65.8942 974.953C65.939 974.742 66.0507 974.548 66.2151 974.396V974.396Z" fill="black"/>
<path opacity="0.05" d="M66.2151 974.396L81.1828 960.52C81.2911 960.42 81.4199 960.34 81.5617 960.285C81.7034 960.231 81.8554 960.203 82.0089 960.203C82.1623 960.203 82.3143 960.231 82.4561 960.285C82.5978 960.34 82.7266 960.42 82.8349 960.52L97.6833 974.285C97.8467 974.436 97.9581 974.629 98.0034 974.838C98.0487 975.048 98.026 975.266 97.938 975.463C97.8501 975.661 97.7009 975.83 97.5092 975.949C97.3176 976.068 97.0922 976.132 96.8615 976.132L67.054 976.243C66.8219 976.246 66.5941 976.184 66.3998 976.066C66.2056 975.948 66.0537 975.78 65.9636 975.581C65.8735 975.383 65.8494 975.164 65.8942 974.953C65.939 974.742 66.0507 974.548 66.2151 974.396Z" fill="black"/>
<path d="M81.5958 985.271H82.1323C82.9342 985.271 83.7032 985.566 84.2702 986.092C84.8371 986.617 85.1557 987.33 85.1557 988.073V993.6H78.5725V988.073C78.5725 987.33 78.891 986.617 79.458 986.092C80.025 985.566 80.794 985.271 81.5958 985.271V985.271Z" fill="white"/>
<path d="M82.0131 965.439C82.9233 965.439 83.661 964.755 83.661 963.911C83.661 963.068 82.9233 962.384 82.0131 962.384C81.103 962.384 80.3652 963.068 80.3652 963.911C80.3652 964.755 81.103 965.439 82.0131 965.439Z" fill="white"/>
<path d="M76.9288 977.502H70.6437V981.939H76.9288V977.502Z" fill="white"/>
<path d="M74.0843 977.502H73.4839V981.939H74.0843V977.502Z" fill="black"/>
<path d="M93.6849 977.502H87.3997V981.939H93.6849V977.502Z" fill="white"/>
<path d="M90.8446 977.502H90.2442V981.939H90.8446V977.502Z" fill="black"/>
<g opacity="0.2">
<path opacity="0.2" d="M192.683 955.615C192.63 955.6 192.683 955.615 192.683 955.615V955.615Z" fill="url(#paint1_linear)"/>
</g>
<g opacity="0.2">
<path opacity="0.2" d="M193.301 967.077H193.353C193.363 967.073 193.372 967.067 193.379 967.059C193.386 967.05 193.39 967.04 193.391 967.03C193.394 967.014 193.394 966.998 193.391 966.982V966.943C193.348 966.848 193.25 966.722 193.195 966.611L193.169 966.552C193.167 966.526 193.167 966.499 193.169 966.473C193.169 966.473 193.169 966.449 193.169 966.438L194.089 963.639L194.111 963.572C194.111 963.572 195.282 964.038 195.584 964.969C195.758 965.421 195.767 965.913 195.609 966.37L195.588 966.418H195.609V966.931H196.887C196.976 966.892 196.857 966.789 196.738 966.686L196.708 966.659L196.631 966.584C196.61 966.561 196.591 966.536 196.576 966.509L196.555 966.461V966.434H196.516V966.39C196.676 965.704 196.64 964.992 196.411 964.323C196.183 963.654 195.77 963.053 195.213 962.577V962.577C195.521 961.725 195.521 960.804 195.213 959.952C195.333 959.873 197.653 958.318 197.636 956.305C197.643 956.197 197.643 956.089 197.636 955.981C197.636 955.981 197.836 955.827 197.636 955.547V955.523H197.615H197.475C197.383 955.531 197.294 955.558 197.215 955.602C197.215 955.602 197.083 955.997 197.215 956.099H197.181C197.181 956.099 195.805 958.863 194.886 959.257L194.822 959.222V958.863C194.823 958.847 194.823 958.831 194.822 958.815V958.815C194.822 958.801 194.822 958.786 194.822 958.772C194.925 958.722 195.018 958.657 195.098 958.578V958.578C195.129 958.548 195.157 958.517 195.184 958.484V958.484L195.218 958.436L195.252 958.381L195.277 958.33C195.296 958.292 195.311 958.254 195.324 958.215V958.168V958.109C195.324 958.109 195.324 958.077 195.324 958.061C195.324 958.041 195.324 958.022 195.324 957.998C195.324 957.885 195.302 957.773 195.26 957.666C195.26 957.638 195.247 957.609 195.222 957.58L195.201 957.536L195.171 957.489C195.194 957.463 195.221 957.44 195.252 957.422C195.311 957.391 195.376 957.372 195.443 957.366H195.609H195.643C195.668 957.357 195.691 957.346 195.712 957.331C195.744 957.306 195.782 957.287 195.822 957.276H195.571H195.533H195.499H195.46H195.426H195.392H195.358H195.324H195.29L195.222 957.248C195.257 957.261 195.295 957.269 195.333 957.272H195.477H195.503L195.529 957.252V957.22H195.482H195.452C195.394 957.228 195.335 957.228 195.277 957.22H195.154H195.098L195.047 957.201C195.117 957.224 195.195 957.221 195.262 957.192C195.33 957.163 195.382 957.11 195.407 957.045C195.433 956.98 195.429 956.908 195.398 956.846C195.366 956.783 195.309 956.735 195.239 956.711L195.286 956.684C195.335 956.645 195.365 956.589 195.371 956.53C195.377 956.505 195.377 956.479 195.371 956.455L195.341 956.478H195.316C195.235 956.531 195.137 956.556 195.039 956.549H195.005C194.918 956.529 194.834 956.5 194.754 956.463L194.681 956.439H194.66H194.6H194.566H194.519H194.294C193.976 956.449 193.672 956.567 193.442 956.77C193.389 956.819 193.34 956.872 193.297 956.928C193.266 956.639 193.324 956.348 193.463 956.087H193.438H193.361L193.323 956.155C193.343 956.059 193.382 955.968 193.438 955.886H193.412C193.469 955.828 193.5 955.752 193.5 955.673C193.5 955.594 193.469 955.518 193.412 955.46C193.212 955.18 192.842 955.397 192.842 955.397C192.812 955.488 192.792 955.582 192.782 955.677L192.722 955.653C192.654 955.866 191.896 958.314 193.148 959.877C193.146 959.91 193.146 959.943 193.148 959.976V962.613L192.297 966.228L192.13 966.911L193.327 967.093L193.301 967.077ZM193.514 958.531C193.582 958.583 193.656 958.627 193.736 958.661C193.733 958.686 193.733 958.711 193.736 958.736V959.08L193.663 959.111C193.608 958.941 193.561 958.744 193.51 958.531H193.514Z" fill="url(#paint2_linear)"/>
</g>
<path d="M197.649 956.289C197.649 956.289 197.87 956.115 197.649 955.807C197.428 955.499 197.019 955.74 197.019 955.74C197.019 955.74 196.87 956.186 197.019 956.289C197.168 956.392 197.649 956.289 197.649 956.289Z" fill="#CA7070"/>
<path d="M195.358 967.799H196.38C196.376 967.844 196.383 967.89 196.4 967.932C196.417 967.974 196.444 968.012 196.478 968.044C196.614 968.19 196.904 968.368 196.763 968.439H195.358V967.799Z" fill="#00695C"/>
<path opacity="0.2" d="M196.401 968.044C196.367 968.012 196.34 967.974 196.324 967.932C196.307 967.89 196.3 967.844 196.303 967.799H196.376C196.372 967.844 196.379 967.89 196.396 967.932C196.413 967.974 196.439 968.012 196.474 968.044C196.61 968.19 196.9 968.368 196.759 968.439H196.687C196.815 968.368 196.538 968.19 196.401 968.044Z" fill="white"/>
<path d="M191.713 967.606L192.684 967.764C192.658 967.869 192.673 967.98 192.727 968.076C192.833 968.277 193.067 968.538 192.927 968.593L191.543 968.384L191.713 967.606Z" fill="#00695C"/>
<path d="M192.182 955.87C192.182 955.87 191.087 959.072 192.922 960.844L193.455 960.449C193.455 960.449 192.369 956.956 192.978 956.135C191.905 955.823 192.182 955.87 192.182 955.87Z" fill="#00695C"/>
<path d="M192.94 956.151C192.94 956.151 193.161 955.977 192.94 955.669C192.718 955.361 192.309 955.602 192.309 955.602C192.309 955.602 192.16 956.048 192.309 956.151C192.458 956.253 192.94 956.151 192.94 956.151Z" fill="#CA7070"/>
<path opacity="0.2" d="M192.641 968.06C192.588 967.964 192.573 967.854 192.599 967.748L191.713 967.614L192.684 967.764C192.658 967.869 192.673 967.98 192.727 968.076C192.833 968.277 193.067 968.538 192.927 968.593H192.867C192.961 968.498 192.744 968.253 192.641 968.06Z" fill="white"/>
<path d="M193.808 960.28H193.893C194.157 960.28 194.37 960.082 194.37 959.838V959.293C194.37 959.049 194.157 958.851 193.893 958.851H193.808C193.545 958.851 193.331 959.049 193.331 959.293V959.838C193.331 960.082 193.545 960.28 193.808 960.28Z" fill="#CA7070"/>
<path opacity="0.2" d="M193.378 960.659C193.378 960.659 192.305 957.209 192.888 956.36H192.974H192.999C192.39 957.181 193.476 960.674 193.476 960.674L192.944 961.069L192.897 961.022L193.378 960.659Z" fill="white"/>
<path d="M193.829 959.352C194.464 959.352 194.979 958.875 194.979 958.286C194.979 957.698 194.464 957.22 193.829 957.22C193.195 957.22 192.68 957.698 192.68 958.286C192.68 958.875 193.195 959.352 193.829 959.352Z" fill="#CA7070"/>
<path opacity="0.2" d="M194.238 959.798V959.332C194.242 959.298 194.242 959.264 194.238 959.23C194.463 959.123 194.644 958.951 194.753 958.739C194.862 958.528 194.892 958.289 194.84 958.06C194.787 957.831 194.655 957.624 194.463 957.471C194.271 957.319 194.031 957.229 193.778 957.216H193.842C194.1 957.216 194.351 957.296 194.554 957.444C194.756 957.592 194.9 957.798 194.961 958.03C195.022 958.263 194.997 958.507 194.889 958.725C194.782 958.942 194.6 959.12 194.37 959.23C194.374 959.264 194.374 959.298 194.37 959.332V959.798C194.37 959.926 194.316 960.048 194.218 960.139C194.121 960.229 193.989 960.28 193.851 960.28H193.787C193.913 960.264 194.028 960.207 194.111 960.118C194.194 960.029 194.239 959.916 194.238 959.798V959.798Z" fill="white"/>
<path d="M192.663 963.599C192.663 963.599 194.881 963.832 194.962 963.599C195.31 962.651 195.31 961.623 194.962 960.674C194.962 960.534 194.932 960.396 194.875 960.267C194.817 960.137 194.732 960.02 194.625 959.921C194.519 959.822 194.392 959.743 194.252 959.69C194.113 959.636 193.963 959.609 193.812 959.609V959.609C193.508 959.609 193.215 959.721 192.999 959.921C192.784 960.121 192.663 960.392 192.663 960.674V963.599Z" fill="#00695C"/>
<path d="M192.663 963.599L191.662 967.863H192.663L193.702 964.705C193.702 964.705 194.979 965.222 195.333 966.252C195.547 966.772 195.547 967.347 195.333 967.867H196.41V967.819C196.588 967.059 196.547 966.269 196.291 965.529C196.036 964.788 195.574 964.123 194.954 963.599" fill="#263238"/>
<path opacity="0.2" d="M194.813 963.599C195.161 962.651 195.161 961.623 194.813 960.674C194.813 960.404 194.701 960.143 194.501 959.946C194.301 959.749 194.027 959.63 193.736 959.613H193.808C194.113 959.613 194.406 959.725 194.621 959.925C194.837 960.125 194.958 960.396 194.958 960.678C195.305 961.627 195.305 962.655 194.958 963.603C194.928 963.686 194.626 963.71 194.247 963.706C194.575 963.698 194.813 963.67 194.813 963.599Z" fill="white"/>
<path d="M194.979 960.659C194.979 960.659 197.96 958.732 197.649 956.293H196.985C196.985 956.293 195.388 959.49 194.37 959.802C193.353 960.114 194.979 960.659 194.979 960.659Z" fill="#00695C"/>
<g opacity="0.2">
<path opacity="0.2" d="M193.68 964.772L192.663 967.878H192.514L193.553 964.72L193.68 964.772Z" fill="white"/>
<path opacity="0.2" d="M194.813 963.615H194.962C195.583 964.138 196.044 964.804 196.3 965.544C196.555 966.285 196.596 967.075 196.419 967.835V967.882H196.269V967.835C196.447 967.075 196.406 966.285 196.151 965.544C195.895 964.804 195.434 964.138 194.813 963.615Z" fill="white"/>
</g>
<path opacity="0.2" d="M197.538 956.317H197.649C197.947 958.76 194.979 960.682 194.979 960.682L194.907 960.655C195.239 960.43 197.815 958.602 197.538 956.317Z" fill="white"/>
<path d="M194.745 957.809C194.681 957.946 194.637 958.091 194.613 958.239C194.583 958.39 194.521 958.535 194.431 958.663C194.34 958.792 194.223 958.903 194.085 958.989C193.926 959.069 193.75 959.113 193.57 959.119C193.434 959.135 193.296 959.124 193.164 959.087C193.033 959.05 192.912 958.989 192.808 958.906C192.687 958.785 192.606 958.634 192.573 958.472C192.516 958.23 192.525 957.98 192.599 957.742C192.674 957.505 192.811 957.289 192.999 957.114C193.19 956.943 193.429 956.825 193.689 956.774C193.949 956.723 194.219 956.741 194.468 956.826C194.558 956.866 194.652 956.898 194.749 956.92C194.826 956.934 194.905 956.93 194.98 956.908C195.054 956.886 195.121 956.847 195.175 956.794C195.187 956.83 195.19 956.868 195.183 956.905C195.177 956.942 195.16 956.976 195.136 957.006C195.112 957.037 195.081 957.061 195.045 957.077C195.008 957.094 194.968 957.102 194.928 957.102C195.013 957.14 195.106 957.162 195.2 957.167C195.294 957.171 195.388 957.159 195.477 957.13C195.427 957.228 195.339 957.305 195.23 957.345C195.121 957.386 194.999 957.386 194.89 957.347C195.099 957.433 195.325 957.476 195.554 957.473C195.507 957.473 195.414 957.556 195.354 957.572C195.28 957.578 195.206 957.578 195.132 957.572C195.05 957.572 194.97 957.595 194.901 957.637C194.832 957.679 194.778 957.739 194.745 957.809Z" fill="#263238"/>
<g opacity="0.2">
<path opacity="0.2" d="M194.898 957.105C194.984 957.143 195.076 957.164 195.171 957.168C195.048 957.176 194.924 957.155 194.813 957.105C194.849 957.105 194.885 957.099 194.918 957.085C194.951 957.072 194.98 957.052 195.005 957.028C195.029 957.003 195.048 956.974 195.06 956.943C195.071 956.911 195.076 956.878 195.073 956.845L195.132 956.797C195.144 956.832 195.147 956.869 195.141 956.905C195.135 956.941 195.12 956.975 195.098 957.005C195.075 957.035 195.045 957.059 195.011 957.077C194.976 957.094 194.938 957.104 194.898 957.105V957.105Z" fill="white"/>
<path opacity="0.2" d="M194.668 956.92C194.571 956.898 194.477 956.866 194.387 956.826C194.252 956.776 194.108 956.748 193.962 956.743C194.138 956.737 194.313 956.765 194.477 956.826C194.567 956.866 194.661 956.898 194.758 956.92H194.796C194.754 956.926 194.711 956.926 194.668 956.92V956.92Z" fill="white"/>
<path opacity="0.2" d="M195.239 957.572C195.299 957.572 195.392 957.473 195.439 957.473C195.21 957.476 194.984 957.433 194.775 957.347C194.822 957.364 194.873 957.374 194.924 957.374C195.113 957.441 195.314 957.473 195.516 957.469C195.469 957.469 195.375 957.552 195.316 957.568C195.265 957.575 195.213 957.575 195.162 957.568L195.239 957.572Z" fill="white"/>
<path opacity="0.2" d="M193.493 959.119C193.673 959.113 193.85 959.069 194.008 958.989C194.146 958.903 194.263 958.792 194.354 958.663C194.445 958.535 194.507 958.39 194.536 958.239C194.56 958.091 194.605 957.946 194.668 957.809C194.702 957.745 194.753 957.691 194.817 957.652C194.88 957.613 194.954 957.591 195.03 957.588H195.103C195.027 957.591 194.953 957.613 194.889 957.652C194.825 957.691 194.774 957.745 194.741 957.809C194.677 957.946 194.633 958.091 194.609 958.239C194.579 958.39 194.517 958.535 194.427 958.663C194.336 958.792 194.218 958.903 194.081 958.989C193.922 959.069 193.746 959.113 193.565 959.119H193.493Z" fill="white"/>
<path opacity="0.2" d="M194.988 957.378C195.066 957.373 195.142 957.35 195.208 957.311C195.274 957.271 195.329 957.217 195.367 957.153L195.452 957.13C195.411 957.21 195.345 957.277 195.262 957.322C195.179 957.366 195.083 957.386 194.988 957.378V957.378Z" fill="white"/>
</g>
<path opacity="0.2" d="M197.577 956.289C197.577 956.289 197.798 956.115 197.577 955.807C197.548 955.762 197.507 955.725 197.459 955.697C197.411 955.67 197.356 955.653 197.3 955.649C197.368 955.642 197.437 955.653 197.499 955.681C197.561 955.709 197.613 955.753 197.649 955.807C197.871 956.115 197.649 956.289 197.649 956.289C197.509 956.317 197.366 956.332 197.223 956.332C197.342 956.327 197.46 956.312 197.577 956.289Z" fill="white"/>
<path d="M202.652 952.456C202.652 952.456 201.558 955.657 203.393 957.43L203.926 957.035C203.926 957.035 202.84 953.541 203.449 952.72C202.376 952.409 202.652 952.456 202.652 952.456Z" fill="#FF5252"/>
<path d="M203.411 952.74C203.411 952.74 203.632 952.566 203.411 952.259C203.189 951.951 202.78 952.191 202.78 952.191C202.78 952.191 202.631 952.637 202.78 952.74C202.929 952.843 203.411 952.74 203.411 952.74Z" fill="#F6B9AD"/>
<path d="M204.279 956.869H204.364C204.628 956.869 204.841 956.671 204.841 956.427V955.882C204.841 955.638 204.628 955.44 204.364 955.44H204.279C204.016 955.44 203.802 955.638 203.802 955.882V956.427C203.802 956.671 204.016 956.869 204.279 956.869Z" fill="#F6B9AD"/>
<path opacity="0.2" d="M203.849 957.26C203.849 957.26 202.776 953.81 203.359 952.961H203.445H203.47C202.861 953.782 203.947 957.276 203.947 957.276L203.415 957.67L203.368 957.623L203.849 957.26Z" fill="white"/>
<path d="M204.3 955.937C204.935 955.937 205.45 955.46 205.45 954.872C205.45 954.283 204.935 953.806 204.3 953.806C203.665 953.806 203.151 954.283 203.151 954.872C203.151 955.46 203.665 955.937 204.3 955.937Z" fill="#F6B9AD"/>
<path opacity="0.2" d="M204.709 956.384V955.922C204.713 955.888 204.713 955.853 204.709 955.819C204.934 955.712 205.115 955.54 205.224 955.329C205.332 955.117 205.363 954.878 205.311 954.649C205.258 954.42 205.126 954.213 204.934 954.061C204.742 953.908 204.502 953.819 204.249 953.806H204.313C204.571 953.806 204.822 953.886 205.024 954.033C205.227 954.181 205.371 954.388 205.432 954.62C205.493 954.852 205.467 955.097 205.36 955.314C205.253 955.532 205.07 955.71 204.841 955.819C204.845 955.853 204.845 955.888 204.841 955.922V956.387C204.841 956.515 204.786 956.638 204.689 956.728C204.592 956.818 204.459 956.869 204.322 956.869H204.258C204.384 956.854 204.5 956.796 204.583 956.706C204.667 956.617 204.711 956.502 204.709 956.384V956.384Z" fill="white"/>
<path d="M203.134 960.185C203.134 960.185 205.352 960.418 205.433 960.185C205.697 959.435 205.007 958.606 205.344 958.211C205.448 958.072 205.511 957.91 205.526 957.741C205.542 957.572 205.51 957.402 205.433 957.248C205.433 957.108 205.403 956.97 205.346 956.84C205.288 956.711 205.203 956.593 205.096 956.494C204.99 956.395 204.863 956.317 204.723 956.263C204.584 956.21 204.434 956.182 204.283 956.182V956.182C203.978 956.182 203.686 956.295 203.47 956.494C203.255 956.694 203.134 956.965 203.134 957.248V960.185Z" fill="#FF5252"/>
<path opacity="0.2" d="M205.348 958.227C205.452 958.088 205.515 957.925 205.531 957.756C205.546 957.588 205.514 957.418 205.437 957.264C205.437 956.981 205.316 956.71 205.101 956.51C204.885 956.31 204.593 956.198 204.288 956.198H204.215C204.507 956.215 204.78 956.334 204.98 956.532C205.18 956.729 205.292 956.989 205.293 957.26C205.369 957.414 205.401 957.584 205.386 957.752C205.37 957.921 205.307 958.084 205.203 958.223C204.845 958.618 205.557 959.431 205.293 960.197C205.267 960.268 205.037 960.295 204.735 960.299C205.109 960.299 205.412 960.28 205.442 960.197C205.701 959.435 204.99 958.622 205.348 958.227Z" fill="white"/>
<path d="M204.96 960.118C205.816 961.372 206.149 962.872 205.897 964.338V964.385H205.207C205.346 963.854 205.346 963.301 205.207 962.77C205.076 962.152 204.703 961.601 204.16 961.223L203.491 964.381H202.848L203.491 960.118H204.96Z" fill="#F6B9AD"/>
<path d="M208.865 953.984C208.865 953.984 209.133 953.881 209.019 953.522C208.904 953.162 208.439 953.285 208.439 953.285C208.439 953.285 208.154 953.68 208.265 953.81C208.376 953.94 208.865 953.984 208.865 953.984Z" fill="#F6B9AD"/>
<path d="M204.926 957.434C204.926 957.434 208.371 956.399 208.861 953.984L208.222 953.802C208.222 953.802 205.667 956.427 204.611 956.447C203.555 956.466 204.926 957.434 204.926 957.434Z" fill="#FF5252"/>
<path opacity="0.2" d="M208.742 953.987L208.848 954.019C208.359 956.435 204.914 957.469 204.914 957.469L204.854 957.426C205.259 957.291 208.286 956.241 208.742 953.987Z" fill="white"/>
<g opacity="0.2">
<path opacity="0.2" d="M204.002 961.219L203.334 964.377H203.483L204.13 961.306C204.089 961.275 204.047 961.246 204.002 961.219V961.219Z" fill="white"/>
<path opacity="0.2" d="M204.96 960.118H204.811C205.667 961.372 206 962.872 205.748 964.338V964.385H205.884V964.338C206.14 962.874 205.811 961.374 204.96 960.118V960.118Z" fill="white"/>
</g>
<path opacity="0.2" d="M208.789 953.948C208.789 953.948 209.057 953.845 208.942 953.486C208.928 953.436 208.902 953.389 208.865 953.35C208.828 953.311 208.781 953.28 208.729 953.261C208.797 953.273 208.86 953.302 208.91 953.345C208.961 953.388 208.997 953.444 209.014 953.506C209.129 953.861 208.861 953.968 208.861 953.968C208.717 953.957 208.574 953.932 208.435 953.893C208.551 953.92 208.669 953.939 208.789 953.948V953.948Z" fill="white"/>
<path d="M203.134 960.07L201.737 962.802C202.553 962.839 203.366 962.93 204.168 963.074C205.714 963.347 206.451 962.68 206.451 962.68L205.459 960.07H203.134Z" fill="#263238"/>
<path d="M203.504 964.369C203.504 964.369 204.241 964.507 204.092 964.764H202.767L202.84 964.369H203.504Z" fill="#FF5252"/>
<path d="M205.859 964.369C205.859 964.369 206.596 964.507 206.447 964.764H205.122L205.195 964.369H205.859Z" fill="#FF5252"/>
<path d="M205.344 953.995C205.344 953.995 203.577 956.317 204.386 957.272L201.222 957.205C201.222 957.205 202.103 951.947 205.344 953.995Z" fill="#FCCC63"/>
<path opacity="0.2" d="M205.344 953.995C204.981 953.746 204.556 953.586 204.109 953.53C204.413 953.62 204.7 953.753 204.96 953.924C204.96 953.924 203.193 956.245 204.002 957.201L201.217 957.142V957.201L204.381 957.268C203.577 956.317 205.344 953.995 205.344 953.995Z" fill="white"/>
<path opacity="0.2" d="M205.459 960.07H205.237L206.234 962.664C205.821 962.978 205.302 963.146 204.769 963.138C205.382 963.193 205.994 963.023 206.472 962.664L205.459 960.07Z" fill="white"/>
<path opacity="0.2" d="M203.504 964.369H203.355C203.355 964.369 204.092 964.507 203.943 964.764H204.092C204.241 964.503 203.504 964.369 203.504 964.369Z" fill="white"/>
<path opacity="0.2" d="M205.859 964.369H205.71C205.71 964.369 206.447 964.507 206.298 964.764H206.447C206.596 964.503 205.859 964.369 205.859 964.369Z" fill="white"/>
</g>
<path opacity="0.02" d="M0 281C0 281 16.7646 238.818 80.3993 242.623C121.764 245.106 139.422 236.047 146.695 229.411C155.748 221.173 167.194 215.513 179.722 213.649C200.127 210.614 229.249 213.511 258.972 240.721C313.711 290.833 360.926 271.803 362.978 271.803C365.031 271.803 375.979 281 375.979 281H0Z" fill="#086972"/>
<path d="M766 1023C766 1023 749.234 953.225 685.596 959.52C659.5 935.5 637.273 954.976 630 944C620.947 930.373 598.796 914.674 586.268 911.593C565.861 906.571 536.738 911.364 507.014 956.372C452.271 1039.27 440.053 997.5 438 997.5C435.947 997.5 390 1023 390 1023H766Z" fill="#086972"/>
</g>
<defs>
<linearGradient id="paint0_linear" x1="188" y1="1022.05" x2="188" y2="953.735" gradientUnits="userSpaceOnUse">
<stop stop-color="#808080" stop-opacity="0.25"/>
<stop offset="0.54" stop-color="#808080" stop-opacity="0.12"/>
<stop offset="1" stop-color="#808080" stop-opacity="0.1"/>
</linearGradient>
<linearGradient id="paint1_linear" x1="1053.09" y1="959.728" x2="1053.09" y2="959.728" gradientUnits="userSpaceOnUse">
<stop stop-color="#808080" stop-opacity="0.25"/>
<stop offset="0.54" stop-color="#808080" stop-opacity="0.12"/>
<stop offset="1" stop-color="#808080" stop-opacity="0.1"/>
</linearGradient>
<linearGradient id="paint2_linear" x1="-14795.2" y1="8778.08" x2="-14795.2" y2="8426.32" gradientUnits="userSpaceOnUse">
<stop stop-color="#808080" stop-opacity="0.25"/>
<stop offset="0.54" stop-color="#808080" stop-opacity="0.12"/>
<stop offset="1" stop-color="#808080" stop-opacity="0.1"/>
</linearGradient>
<clipPath id="clip0">
<rect width="768" height="1024" fill="white"/>
</clipPath>
<clipPath id="clip1">
<rect width="868" height="1073" fill="white" transform="translate(-59 -23)"/>
</clipPath>
<clipPath id="clip2">
<rect width="376" height="281" fill="white" transform="translate(0 742)"/>
</clipPath>
</defs>
</svg>
